<svg width="221" height="119" viewBox="0 0 221 119" fill="none" xmlns="http://www.w3.org/2000/svg">
<g clip-path="url(#clip0_771_5399)">
<path d="M111.253 106.045C130.29 106.045 145.723 90.6122 145.723 71.5754C145.723 52.5385 130.29 37.1062 111.253 37.1062C92.2166 37.1062 76.7842 52.5385 76.7842 71.5754C76.7842 90.6122 92.2166 106.045 111.253 106.045Z" stroke="white" stroke-width="7.65982" stroke-linecap="round" stroke-linejoin="round"/>
<path d="M118.913 63.9155L103.594 79.2352M103.594 63.9155L118.913 79.2352L103.594 63.9155Z" stroke="white" stroke-width="7.65982" stroke-linecap="round" stroke-linejoin="round"/>
</g>
<path d="M160.264 95.6712V83.9931L189.544 37.863H199.613V54.0274H193.654L175.195 83.2397V83.7877H216.805V95.6712H160.264ZM193.928 108V92.1096L194.202 86.9383V37.863H208.106V108H193.928Z" fill="white"/>
<path d="M5.62329 95.6712V83.9931L34.9041 37.863H44.9726V54.0274H39.0137L20.5548 83.2397V83.7877H62.1644V95.6712H5.62329ZM39.2877 108V92.1096L39.5616 86.9383V37.863H53.4658V108H39.2877Z" fill="white"/>
<defs>
<clipPath id="clip0_771_5399">
<rect width="91.9178" height="91.9178" fill="white" transform="translate(65.2944 25.6165)"/>
</clipPath>
</defs>
</svg>
