<svg width="38" height="37" viewBox="0 0 38 37" fill="none" xmlns="http://www.w3.org/2000/svg">
<path d="M36.5701 6.94913C36.7358 6.94913 36.8947 6.88325 37.0119 6.76598C37.129 6.6487 37.1949 6.48965 37.1949 6.3238C37.1949 6.15795 37.129 5.9989 37.0119 5.88162C36.8947 5.76435 36.7358 5.69847 36.5701 5.69847H34.696V3.82247C34.6961 3.74033 34.6799 3.659 34.6486 3.58311C34.6172 3.50722 34.5712 3.43826 34.5131 3.38018C34.4551 3.32211 34.3862 3.27605 34.3104 3.24464C34.2346 3.21323 34.1534 3.19709 34.0713 3.19713H32.1972V1.32113C32.1972 1.15529 32.1314 0.996229 32.0142 0.878957C31.897 0.761684 31.7381 0.695801 31.5725 0.695801C31.4068 0.695801 31.2479 0.761684 31.1307 0.878957C31.0136 0.996229 30.9478 1.15529 30.9478 1.32113V3.19713H27.1995V1.32113C27.1995 1.15529 27.1337 0.996229 27.0165 0.878957C26.8994 0.761684 26.7405 0.695801 26.5748 0.695801C26.4091 0.695801 26.2502 0.761684 26.133 0.878957C26.0159 0.996229 25.9501 1.15529 25.9501 1.32113V3.19713H22.2018V1.32113C22.2018 1.15529 22.136 0.996229 22.0188 0.878957C21.9017 0.761684 21.7428 0.695801 21.5771 0.695801C21.4114 0.695801 21.2525 0.761684 21.1354 0.878957C21.0182 0.996229 20.9524 1.15529 20.9524 1.32113V3.19713H17.2041V1.32113C17.2041 1.15529 17.1383 0.996229 17.0212 0.878957C16.904 0.761684 16.7451 0.695801 16.5794 0.695801C16.4137 0.695801 16.2548 0.761684 16.1377 0.878957C16.0205 0.996229 15.9547 1.15529 15.9547 1.32113V3.19713H12.2065V1.32113C12.2065 1.15529 12.1406 0.996229 12.0235 0.878957C11.9063 0.761684 11.7474 0.695801 11.5817 0.695801C11.4161 0.695801 11.2572 0.761684 11.14 0.878957C11.0228 0.996229 10.957 1.15529 10.957 1.32113V3.19713H7.20877V1.32113C7.20877 1.15529 7.14295 0.996229 7.0258 0.878957C6.90864 0.761684 6.74974 0.695801 6.58406 0.695801C6.41838 0.695801 6.25948 0.761684 6.14232 0.878957C6.02517 0.996229 5.95935 1.15529 5.95935 1.32113V3.19713H4.08522C4.00317 3.19709 3.92191 3.21323 3.8461 3.24464C3.77028 3.27605 3.7014 3.32211 3.64338 3.38018C3.58536 3.43826 3.53934 3.50722 3.50797 3.58311C3.47659 3.659 3.46046 3.74033 3.46051 3.82247V5.69847H1.58638C1.4207 5.69847 1.2618 5.76435 1.14464 5.88162C1.02749 5.9989 0.96167 6.15795 0.96167 6.3238C0.96167 6.48965 1.02749 6.6487 1.14464 6.76598C1.2618 6.88325 1.4207 6.94913 1.58638 6.94913H3.46051V10.7011H1.58638C1.4207 10.7011 1.2618 10.767 1.14464 10.8843C1.02749 11.0016 0.96167 11.1606 0.96167 11.3265C0.96167 11.4923 1.02749 11.6514 1.14464 11.7686C1.2618 11.8859 1.4207 11.9518 1.58638 11.9518H3.46051V15.7038H1.58638C1.4207 15.7038 1.2618 15.7697 1.14464 15.887C1.02749 16.0042 0.96167 16.1633 0.96167 16.3291C0.96167 16.495 1.02749 16.654 1.14464 16.7713C1.2618 16.8886 1.4207 16.9545 1.58638 16.9545H3.46051V20.7065H1.58638C1.4207 20.7065 1.2618 20.7723 1.14464 20.8896C1.02749 21.0069 0.96167 21.1659 0.96167 21.3318C0.96167 21.4976 1.02749 21.6567 1.14464 21.774C1.2618 21.8912 1.4207 21.9571 1.58638 21.9571H3.46051V25.7091H1.58638C1.4207 25.7091 1.2618 25.775 1.14464 25.8923C1.02749 26.0096 0.96167 26.1686 0.96167 26.3345C0.96167 26.5003 1.02749 26.6594 1.14464 26.7766C1.2618 26.8939 1.4207 26.9598 1.58638 26.9598H3.46051V30.7118H1.58638C1.4207 30.7118 1.2618 30.7777 1.14464 30.895C1.02749 31.0122 0.96167 31.1713 0.96167 31.3371C0.96167 31.503 1.02749 31.662 1.14464 31.7793C1.2618 31.8966 1.4207 31.9625 1.58638 31.9625H3.46051V33.8385C3.46046 33.9206 3.47659 34.0019 3.50797 34.0778C3.53934 34.1537 3.58536 34.2227 3.64338 34.2807C3.7014 34.3388 3.77028 34.3849 3.8461 34.4163C3.92191 34.4477 4.00317 34.4638 4.08522 34.4638H5.95935V36.3398C5.95935 36.5056 6.02517 36.6647 6.14232 36.782C6.25948 36.8992 6.41838 36.9651 6.58406 36.9651C6.74974 36.9651 6.90864 36.8992 7.0258 36.782C7.14295 36.6647 7.20877 36.5056 7.20877 36.3398V34.4638H10.957V36.3398C10.957 36.5056 11.0228 36.6647 11.14 36.782C11.2572 36.8992 11.4161 36.9651 11.5817 36.9651C11.7474 36.9651 11.9063 36.8992 12.0235 36.782C12.1406 36.6647 12.2065 36.5056 12.2065 36.3398V34.4638H15.9547V36.3398C15.9547 36.5056 16.0205 36.6647 16.1377 36.782C16.2548 36.8992 16.4137 36.9651 16.5794 36.9651C16.7451 36.9651 16.904 36.8992 17.0212 36.782C17.1383 36.6647 17.2041 36.5056 17.2041 36.3398V33.8385C17.2042 33.7563 17.1881 33.675 17.1567 33.5991C17.1253 33.5232 17.0793 33.4543 17.0213 33.3962C16.9632 33.3381 16.8944 33.292 16.8185 33.2606C16.7427 33.2292 16.6615 33.2131 16.5794 33.2131H4.70993V4.4478H33.4466V33.2131H21.5771C21.4951 33.2131 21.4138 33.2292 21.338 33.2606C21.2622 33.292 21.1933 33.3381 21.1353 33.3962C21.0772 33.4543 21.0312 33.5232 20.9999 33.5991C20.9685 33.675 20.9523 33.7563 20.9524 33.8385V36.3398C20.9524 36.5056 21.0182 36.6647 21.1354 36.782C21.2525 36.8992 21.4114 36.9651 21.5771 36.9651C21.7428 36.9651 21.9017 36.8992 22.0188 36.782C22.136 36.6647 22.2018 36.5056 22.2018 36.3398V34.4638H25.9501V36.3398C25.9501 36.5056 26.0159 36.6647 26.133 36.782C26.2502 36.8992 26.4091 36.9651 26.5748 36.9651C26.7405 36.9651 26.8994 36.8992 27.0165 36.782C27.1337 36.6647 27.1995 36.5056 27.1995 36.3398V34.4638H30.9478V36.3398C30.9478 36.5056 31.0136 36.6647 31.1307 36.782C31.2479 36.8992 31.4068 36.9651 31.5725 36.9651C31.7381 36.9651 31.897 36.8992 32.0142 36.782C32.1314 36.6647 32.1972 36.5056 32.1972 36.3398V34.4638H34.0713C34.1534 34.4638 34.2346 34.4477 34.3104 34.4163C34.3862 34.3849 34.4551 34.3388 34.5131 34.2807C34.5712 34.2227 34.6172 34.1537 34.6486 34.0778C34.6799 34.0019 34.6961 33.9206 34.696 33.8385V31.9625H36.5701C36.7358 31.9625 36.8947 31.8966 37.0119 31.7793C37.129 31.662 37.1949 31.503 37.1949 31.3371C37.1949 31.1713 37.129 31.0122 37.0119 30.895C36.8947 30.7777 36.7358 30.7118 36.5701 30.7118H34.696V26.9598H36.5701C36.7358 26.9598 36.8947 26.8939 37.0119 26.7766C37.129 26.6594 37.1949 26.5003 37.1949 26.3345C37.1949 26.1686 37.129 26.0096 37.0119 25.8923C36.8947 25.775 36.7358 25.7091 36.5701 25.7091H34.696V21.9571H36.5701C36.7358 21.9571 36.8947 21.8912 37.0119 21.774C37.129 21.6567 37.1949 21.4976 37.1949 21.3318C37.1949 21.1659 37.129 21.0069 37.0119 20.8896C36.8947 20.7723 36.7358 20.7065 36.5701 20.7065H34.696V16.9545H36.5701C36.7358 16.9545 36.8947 16.8886 37.0119 16.7713C37.129 16.654 37.1949 16.495 37.1949 16.3291C37.1949 16.1633 37.129 16.0042 37.0119 15.887C36.8947 15.7697 36.7358 15.7038 36.5701 15.7038H34.696V11.9518H36.5701C36.7358 11.9518 36.8947 11.8859 37.0119 11.7686C37.129 11.6514 37.1949 11.4923 37.1949 11.3265C37.1949 11.1606 37.129 11.0016 37.0119 10.8843C36.8947 10.767 36.7358 10.7011 36.5701 10.7011H34.696V6.94913H36.5701Z" fill="white"/>
<path d="M23.4508 8.82553C23.4509 8.7434 23.4347 8.66206 23.4034 8.58617C23.372 8.51028 23.326 8.44132 23.2679 8.38324C23.2099 8.32517 23.141 8.27911 23.0652 8.2477C22.9894 8.21629 22.9081 8.20015 22.8261 8.2002H9.08247C9.00042 8.20015 8.91917 8.21629 8.84335 8.2477C8.76754 8.27911 8.69865 8.32517 8.64063 8.38324C8.58261 8.44132 8.5366 8.51028 8.50522 8.58617C8.47384 8.66206 8.45772 8.7434 8.45776 8.82553V28.8362C8.45772 28.9183 8.47384 28.9997 8.50522 29.0756C8.5366 29.1514 8.58261 29.2204 8.64063 29.2785C8.69865 29.3366 8.76754 29.3826 8.84335 29.414C8.91917 29.4454 9.00042 29.4616 9.08247 29.4615H12.8307C12.9467 29.4614 13.0604 29.429 13.1591 29.368C13.2577 29.3069 13.3375 29.2197 13.3896 29.1159L14.4657 26.9602H23.69L24.7661 29.1159C24.8181 29.2197 24.8979 29.3069 24.9966 29.368C25.0953 29.429 25.2089 29.4614 25.3249 29.4615H29.0732C29.1553 29.4616 29.2365 29.4454 29.3123 29.414C29.3881 29.3826 29.457 29.3366 29.515 29.2785C29.5731 29.2204 29.6191 29.1514 29.6505 29.0756C29.6818 28.9997 29.698 28.9183 29.6979 28.8362V15.0789C29.698 14.9967 29.6818 14.9154 29.6505 14.8395C29.6191 14.7636 29.5731 14.6947 29.515 14.6366C29.457 14.5785 29.3881 14.5324 29.3123 14.501C29.2365 14.4696 29.1553 14.4535 29.0732 14.4535C27.5825 14.4519 26.1534 13.8584 25.0994 12.8033C24.0453 11.7482 23.4524 10.3177 23.4508 8.82553ZM28.4485 28.2109H25.7105L24.6343 26.0552C24.5823 25.9514 24.5025 25.8641 24.4039 25.8031C24.3052 25.7421 24.1915 25.7097 24.0755 25.7095H14.0802C13.9642 25.7097 13.8505 25.7421 13.7518 25.8031C13.6531 25.8641 13.5733 25.9514 13.5213 26.0552L12.4452 28.2109H9.70718V9.45086H22.2295C22.3776 11.0518 23.0804 12.5505 24.2161 13.6874C25.3519 14.8244 26.8491 15.5278 28.4485 15.6761V28.2109Z" fill="white"/>
<path d="M29.6994 10.0762C29.6994 9.70516 29.5895 9.34245 29.3836 9.03395C29.1776 8.72544 28.8849 8.48499 28.5425 8.343C28.2 8.20101 27.8232 8.16386 27.4596 8.23624C27.0961 8.30863 26.7622 8.4873 26.5001 8.74966C26.238 9.01203 26.0595 9.3463 25.9872 9.71021C25.9148 10.0741 25.952 10.4513 26.0938 10.7941C26.2357 11.1369 26.4759 11.4299 26.7841 11.636C27.0923 11.8422 27.4546 11.9522 27.8253 11.9522C28.3222 11.9517 28.7985 11.7538 29.1499 11.4021C29.5012 11.0504 29.6989 10.5736 29.6994 10.0762ZM27.2006 10.0762C27.2006 9.95252 27.2372 9.83161 27.3058 9.72878C27.3745 9.62594 27.4721 9.54579 27.5862 9.49846C27.7004 9.45113 27.826 9.43875 27.9471 9.46288C28.0683 9.48701 28.1796 9.54656 28.267 9.63402C28.3544 9.72147 28.4139 9.8329 28.438 9.9542C28.4621 10.0755 28.4497 10.2012 28.4024 10.3155C28.3551 10.4298 28.2751 10.5274 28.1723 10.5961C28.0696 10.6649 27.9488 10.7015 27.8253 10.7015C27.6597 10.7012 27.501 10.6352 27.3839 10.518C27.2668 10.4008 27.2009 10.2419 27.2006 10.0762ZM15.3311 16.9549C15.4968 16.9549 15.6557 16.889 15.7728 16.7717C15.89 16.6544 15.9558 16.4954 15.9558 16.3295C15.9558 16.1637 15.89 16.0046 15.7728 15.8874C15.6557 15.7701 15.4968 15.7042 15.3311 15.7042C14.5027 15.7042 13.7082 16.0336 13.1224 16.62C12.5366 17.2063 12.2075 18.0016 12.2075 18.8309C12.2075 19.6601 12.5366 20.4554 13.1224 21.0417C13.7082 21.6281 14.5027 21.9575 15.3311 21.9575C15.4968 21.9575 15.6557 21.8916 15.7728 21.7744C15.89 21.6571 15.9558 21.498 15.9558 21.3322C15.9558 21.1663 15.89 21.0073 15.7728 20.89C15.6557 20.7727 15.4968 20.7069 15.3311 20.7069C14.834 20.7069 14.3573 20.5092 14.0059 20.1574C13.6544 19.8056 13.4569 19.3284 13.4569 18.8309C13.4569 18.3333 13.6544 17.8561 14.0059 17.5043C14.3573 17.1525 14.834 16.9549 15.3311 16.9549ZM19.0793 15.7042H17.8299C17.7479 15.7041 17.6666 15.7203 17.5908 15.7517C17.515 15.7831 17.4461 15.8292 17.3881 15.8872C17.33 15.9453 17.284 16.0143 17.2527 16.0902C17.2213 16.1661 17.2052 16.2474 17.2052 16.3295V21.3322C17.2052 21.498 17.271 21.6571 17.3882 21.7744C17.5053 21.8916 17.6642 21.9575 17.8299 21.9575C17.9956 21.9575 18.1545 21.8916 18.2716 21.7744C18.3888 21.6571 18.4546 21.498 18.4546 21.3322V19.4562H19.0793C19.5764 19.4562 20.0531 19.2585 20.4045 18.9067C20.756 18.5549 20.9535 18.0777 20.9535 17.5802C20.9535 17.0826 20.756 16.6055 20.4045 16.2537C20.0531 15.9018 19.5764 15.7042 19.0793 15.7042ZM19.0793 18.2055H18.4546V16.9549H19.0793C19.245 16.9549 19.4039 17.0207 19.5211 17.138C19.6382 17.2553 19.704 17.4143 19.704 17.5802C19.704 17.746 19.6382 17.9051 19.5211 18.0224C19.4039 18.1396 19.245 18.2055 19.0793 18.2055ZM23.4523 20.0815V16.3295C23.4523 16.1637 23.3865 16.0046 23.2693 15.8874C23.1522 15.7701 22.9933 15.7042 22.8276 15.7042C22.6619 15.7042 22.503 15.7701 22.3859 15.8874C22.2687 16.0046 22.2029 16.1637 22.2029 16.3295V20.0815C22.2029 20.5791 22.4003 21.0562 22.7518 21.4081C23.1033 21.7599 23.58 21.9575 24.077 21.9575C24.5741 21.9575 25.0508 21.7599 25.4022 21.4081C25.7537 21.0562 25.9511 20.5791 25.9511 20.0815V16.3295C25.9511 16.1637 25.8853 16.0046 25.7682 15.8874C25.651 15.7701 25.4921 15.7042 25.3264 15.7042C25.1607 15.7042 25.0019 15.7701 24.8847 15.8874C24.7675 16.0046 24.7017 16.1637 24.7017 16.3295V20.0815C24.7017 20.2474 24.6359 20.4064 24.5187 20.5237C24.4016 20.641 24.2427 20.7069 24.077 20.7069C23.9113 20.7069 23.7524 20.641 23.6353 20.5237C23.5181 20.4064 23.4523 20.2474 23.4523 20.0815Z" fill="white"/>
<path d="M19.0795 34.464C19.4246 34.464 19.7043 34.1841 19.7043 33.8387C19.7043 33.4934 19.4246 33.2134 19.0795 33.2134C18.7345 33.2134 18.4548 33.4934 18.4548 33.8387C18.4548 34.1841 18.7345 34.464 19.0795 34.464Z" fill="white"/>
</svg>
