<svg width="40" height="40" viewBox="0 0 40 40" fill="none" xmlns="http://www.w3.org/2000/svg">
<path d="M10.6692 14.6236H6.21872C6.05011 14.6236 5.88839 14.6906 5.76916 14.8098C5.64993 14.9291 5.58295 15.0908 5.58295 15.2594V18.4383C5.58295 18.6069 5.64993 18.7687 5.76916 18.8879C5.88839 19.0071 6.05011 19.0741 6.21872 19.0741H9.39762C9.52468 19.0741 9.64884 19.036 9.75406 18.9648C9.85928 18.8936 9.94075 18.7924 9.98794 18.6744L11.2595 15.4955C11.2981 15.399 11.3124 15.2946 11.3013 15.1913C11.2902 15.088 11.2539 14.989 11.1956 14.903C11.1374 14.8169 11.0589 14.7465 10.9672 14.6978C10.8754 14.6491 10.7731 14.6236 10.6692 14.6236ZM8.96719 17.8025H6.8545V15.8952H9.73013L8.96719 17.8025ZM22.1132 13.3521C21.9446 13.3521 21.7828 13.419 21.6636 13.5383C21.5444 13.6575 21.4774 13.8192 21.4774 13.9878V17.8025C21.4774 17.9712 21.5444 18.1329 21.6636 18.2521C21.7828 18.3713 21.9446 18.4383 22.1132 18.4383C22.2818 18.4383 22.4435 18.3713 22.5627 18.2521C22.682 18.1329 22.749 17.9712 22.749 17.8025V13.9878C22.749 13.8192 22.682 13.6575 22.5627 13.5383C22.4435 13.419 22.2818 13.3521 22.1132 13.3521Z" fill="white"/>
<path d="M26.5617 13.9872H24.9643C24.897 13.7968 24.8193 13.6103 24.7315 13.4285L25.8624 12.2976C25.9815 12.1784 26.0485 12.0167 26.0485 11.8482C26.0485 11.6796 25.9815 11.518 25.8624 11.3988L24.0639 9.60028C23.9447 9.48114 23.7831 9.41421 23.6145 9.41421C23.446 9.41421 23.2843 9.48114 23.1651 9.60028L22.0342 10.7312C21.8524 10.6434 21.6659 10.5657 21.4755 10.4983V8.90092C21.4755 8.7323 21.4085 8.57059 21.2893 8.45135C21.1701 8.33212 21.0084 8.26514 20.8397 8.26514H18.2966C18.128 8.26514 17.9663 8.33212 17.8471 8.45135C17.7278 8.57059 17.6608 8.7323 17.6608 8.90092V10.4983C17.4705 10.5657 17.284 10.6434 17.1022 10.7312L15.9713 9.60028C15.852 9.48114 15.6904 9.41421 15.5219 9.41421C15.3533 9.41421 15.1917 9.48114 15.0724 9.60028L13.274 11.3988C13.1548 11.518 13.0879 11.6796 13.0879 11.8482C13.0879 12.0167 13.1548 12.1784 13.274 12.2976L14.4049 13.4285C14.3171 13.6103 14.2394 13.7968 14.172 13.9872H12.5746C12.406 13.9872 12.2443 14.0542 12.1251 14.1734C12.0058 14.2926 11.9388 14.4544 11.9388 14.623V17.1661C11.9388 17.3347 12.0058 17.4964 12.1251 17.6157C12.2443 17.7349 12.406 17.8019 12.5746 17.8019H14.172C14.2397 17.9921 14.3174 18.1786 14.4049 18.3606L13.274 19.4915C13.1548 19.6107 13.0879 19.7724 13.0879 19.9409C13.0879 20.1095 13.1548 20.2711 13.274 20.3903L15.0724 22.1888C15.1917 22.3079 15.3533 22.3749 15.5219 22.3749C15.6904 22.3749 15.852 22.3079 15.9713 22.1888L17.1022 21.0579C17.2841 21.1453 17.4706 21.2231 17.6608 21.2908V22.8882C17.6608 23.0568 17.7278 23.2185 17.8471 23.3377C17.9663 23.457 18.128 23.5239 18.2966 23.5239H20.8397C21.0084 23.5239 21.1701 23.457 21.2893 23.3377C21.4085 23.2185 21.4755 23.0568 21.4755 22.8882V21.2908C21.6657 21.2231 21.8522 21.1453 22.0342 21.0579L23.1651 22.1888C23.2843 22.3079 23.446 22.3749 23.6145 22.3749C23.7831 22.3749 23.9447 22.3079 24.0639 22.1888L25.8624 20.3903C25.9815 20.2711 26.0485 20.1095 26.0485 19.9409C26.0485 19.7724 25.9815 19.6107 25.8624 19.4915L24.7315 18.3606C24.8189 18.1786 24.8967 17.9921 24.9643 17.8019H26.5617C26.7304 17.8019 26.8921 17.7349 27.0113 17.6157C27.1305 17.4964 27.1975 17.3347 27.1975 17.1661V14.623C27.1975 14.4544 27.1305 14.2926 27.0113 14.1734C26.8921 14.0542 26.7304 13.9872 26.5617 13.9872ZM25.926 16.5303H24.4939C24.3529 16.5303 24.2159 16.5773 24.1045 16.6638C23.9931 16.7502 23.9137 16.8713 23.8788 17.008C23.7742 17.4104 23.6137 17.7962 23.4019 18.154C23.3301 18.2754 23.3007 18.4173 23.3184 18.5573C23.3361 18.6973 23.3999 18.8275 23.4997 18.9272L24.5137 19.9405L23.6141 20.8401L22.6008 19.8261C22.5011 19.7263 22.3709 19.6625 22.2309 19.6448C22.0909 19.6271 21.949 19.6565 21.8276 19.7283C21.4698 19.9401 21.084 20.1006 20.6816 20.2052C20.545 20.2401 20.4239 20.3195 20.3374 20.4309C20.2509 20.5423 20.204 20.6793 20.204 20.8203V22.2524H18.9324V20.8203C18.9324 20.6793 18.8854 20.5423 18.799 20.4309C18.7125 20.3195 18.5914 20.2401 18.4548 20.2052C18.0523 20.1006 17.6666 19.9401 17.3088 19.7283C17.1873 19.6565 17.0454 19.6271 16.9054 19.6448C16.7654 19.6625 16.6353 19.7263 16.5355 19.8261L15.5222 20.8401L14.6226 19.9405L15.6367 18.9272C15.7365 18.8275 15.8003 18.6973 15.818 18.5573C15.8357 18.4173 15.8063 18.2754 15.7344 18.154C15.5226 17.7962 15.3621 17.4104 15.2576 17.008C15.2227 16.8713 15.1432 16.7502 15.0319 16.6638C14.9205 16.5773 14.7835 16.5303 14.6425 16.5303H13.2104V15.2588H14.6425C14.7835 15.2587 14.9205 15.2118 15.0319 15.1253C15.1432 15.0388 15.2227 14.9177 15.2576 14.7811C15.3621 14.3787 15.5226 13.9929 15.7344 13.6351C15.8063 13.5137 15.8357 13.3718 15.818 13.2318C15.8003 13.0918 15.7365 12.9616 15.6367 12.8619L14.6226 11.8486L15.5222 10.9489L16.5355 11.963C16.6353 12.0628 16.7654 12.1266 16.9054 12.1443C17.0454 12.162 17.1873 12.1326 17.3088 12.0608C17.6666 11.849 18.0523 11.6884 18.4548 11.5839C18.5914 11.549 18.7125 11.4696 18.799 11.3582C18.8854 11.2468 18.9324 11.1098 18.9324 10.9688V9.5367H20.204V10.9688C20.204 11.1098 20.2509 11.2468 20.3374 11.3582C20.4239 11.4696 20.545 11.549 20.6816 11.5839C21.084 11.6884 21.4698 11.849 21.8276 12.0608C21.949 12.1326 22.0909 12.162 22.2309 12.1443C22.3709 12.1266 22.5011 12.0628 22.6008 11.963L23.6141 10.9489L24.5137 11.8486L23.4997 12.8619C23.3999 12.9616 23.3361 13.0918 23.3184 13.2318C23.3007 13.3718 23.3301 13.5137 23.4019 13.6351C23.6137 13.9929 23.7742 14.3787 23.8788 14.7811C23.9137 14.9177 23.9931 15.0388 24.1045 15.1253C24.2159 15.2118 24.3529 15.2587 24.4939 15.2588H25.926V16.5303Z" fill="white"/>
<path d="M36.2079 16.5304C36.3578 16.9546 36.653 17.3121 37.041 17.5398C37.4291 17.7674 37.8852 17.8506 38.3287 17.7745C38.7721 17.6984 39.1744 17.468 39.4644 17.124C39.7544 16.78 39.9135 16.3445 39.9135 15.8946C39.9135 15.4447 39.7544 15.0092 39.4644 14.6652C39.1744 14.3212 38.7721 14.0908 38.3287 14.0147C37.8852 13.9386 37.4291 14.0218 37.041 14.2494C36.653 14.4771 36.3578 14.8346 36.2079 15.2588H29.6792C29.4873 13.229 28.8297 11.2709 27.7576 9.53676H32.9193C33.0879 9.53676 33.2496 9.46977 33.3689 9.35054C33.4881 9.23131 33.5551 9.06959 33.5551 8.90097V2.54314H36.2079C36.3578 2.96734 36.653 3.32487 37.041 3.55253C37.4291 3.78019 37.8852 3.86332 38.3287 3.78724C38.7721 3.71115 39.1744 3.48075 39.4644 3.13674C39.7544 2.79274 39.9135 2.35729 39.9135 1.90735C39.9135 1.45742 39.7544 1.02197 39.4644 0.677965C39.1744 0.333963 38.7721 0.103558 38.3287 0.0274725C37.8852 -0.0486125 37.4291 0.0345215 37.041 0.262181C36.653 0.489841 36.3578 0.847367 36.2079 1.27157H32.9193C32.7507 1.27157 32.589 1.33856 32.4697 1.45779C32.3505 1.57702 32.2835 1.73873 32.2835 1.90735V8.26519H26.8675C25.6195 6.67989 24.028 5.39847 22.213 4.51744C20.398 3.6364 18.4066 3.17874 16.3891 3.17892C9.02676 3.17892 3.03773 9.168 3.03773 16.5304C3.03773 16.7004 3.04091 16.8753 3.04806 17.0525C3.03838 17.106 3.03544 17.1604 3.03932 17.2146L3.13945 18.5132L0.572498 23.2196C0.523348 23.3097 0.496747 23.4104 0.494969 23.513C0.49319 23.6157 0.516287 23.7172 0.562285 23.809C0.608282 23.9007 0.675814 23.98 0.759108 24.04C0.842401 24.1 0.93898 24.1389 1.04059 24.1534L3.60198 24.519L4.31087 33.745C4.3231 33.9048 4.39522 34.0541 4.51281 34.163C4.63041 34.2719 4.78479 34.3324 4.94506 34.3323H9.47021L10.0361 38.8615C10.0552 39.0153 10.13 39.1568 10.2462 39.2594C10.3624 39.362 10.5121 39.4186 10.6671 39.4186H25.29C25.3783 39.4185 25.4656 39.4001 25.5464 39.3645C25.6272 39.3288 25.6997 39.2768 25.7593 39.2116C25.8189 39.1464 25.8642 39.0695 25.8925 38.9858C25.9207 38.9022 25.9312 38.8135 25.9234 38.7256L24.8449 26.8627C26.0005 25.9197 26.9904 24.7902 27.7735 23.5208C27.7933 23.5231 27.8132 23.5241 27.8331 23.524H32.2835V29.8818C32.2835 30.0504 32.3505 30.2122 32.4697 30.3314C32.589 30.4506 32.7507 30.5176 32.9193 30.5176H36.2079C36.3578 30.9418 36.653 31.2993 37.041 31.527C37.4291 31.7547 37.8852 31.8378 38.3287 31.7617C38.7721 31.6856 39.1744 31.4552 39.4644 31.1112C39.7544 30.7672 39.9135 30.3318 39.9135 29.8818C39.9135 29.4319 39.7544 28.9964 39.4644 28.6524C39.1744 28.3084 38.7721 28.078 38.3287 28.0019C37.8852 27.9259 37.4291 28.009 37.041 28.2367C36.653 28.4643 36.3578 28.8218 36.2079 29.246H33.5551V22.8882C33.5551 22.7196 33.4881 22.5579 33.3689 22.4386C33.2496 22.3194 33.0879 22.2524 32.9193 22.2524H28.4625C29.3078 20.4635 29.7443 18.5089 29.7404 16.5304H36.2079ZM38.0055 15.2588C38.1313 15.2588 38.2542 15.2961 38.3587 15.366C38.4633 15.4358 38.5448 15.5351 38.5929 15.6513C38.641 15.7675 38.6536 15.8953 38.6291 16.0186C38.6046 16.142 38.544 16.2552 38.4551 16.3442C38.3662 16.4331 38.2529 16.4936 38.1296 16.5182C38.0062 16.5427 37.8784 16.5301 37.7622 16.482C37.6461 16.4339 37.5468 16.3524 37.4769 16.2478C37.407 16.1433 37.3698 16.0203 37.3698 15.8946C37.37 15.726 37.437 15.5645 37.5562 15.4453C37.6754 15.3261 37.837 15.259 38.0055 15.2588ZM38.0055 1.27157C38.1313 1.27157 38.2542 1.30886 38.3587 1.37872C38.4633 1.44858 38.5448 1.54788 38.5929 1.66405C38.641 1.78022 38.6536 1.90806 38.6291 2.03139C38.6046 2.15472 38.544 2.26801 38.4551 2.35692C38.3662 2.44584 38.2529 2.50639 38.1296 2.53092C38.0062 2.55545 37.8784 2.54286 37.7622 2.49474C37.6461 2.44662 37.5468 2.36513 37.4769 2.26058C37.407 2.15602 37.3698 2.0331 37.3698 1.90735C37.37 1.73881 37.437 1.57723 37.5562 1.45804C37.6754 1.33886 37.837 1.2718 38.0055 1.27157ZM38.0055 29.246C38.1313 29.246 38.2542 29.2833 38.3587 29.3532C38.4633 29.4231 38.5448 29.5224 38.5929 29.6385C38.641 29.7547 38.6536 29.8825 38.6291 30.0059C38.6046 30.1292 38.544 30.2425 38.4551 30.3314C38.3662 30.4203 38.2529 30.4809 38.1296 30.5054C38.0062 30.5299 37.8784 30.5173 37.7622 30.4692C37.6461 30.4211 37.5468 30.3396 37.4769 30.2351C37.407 30.1305 37.3698 30.0076 37.3698 29.8818C37.37 29.7133 37.437 29.5517 37.5562 29.4325C37.6754 29.3133 37.837 29.2463 38.0055 29.246ZM5.14295 27.9745H10.0313V29.8818H5.28918L5.14295 27.9745ZM23.7903 26.0767C23.7063 26.1422 23.64 26.2277 23.5975 26.3254C23.555 26.4232 23.5377 26.53 23.5471 26.6362L23.6115 27.3387H17.9237L13.66 23.0742C13.5406 22.955 13.3788 22.8881 13.2102 22.8882H9.39551C9.22689 22.8882 9.06518 22.9552 8.94595 23.0744C8.82672 23.1937 8.75973 23.3554 8.75973 23.524C8.75973 23.6926 8.82672 23.8543 8.94595 23.9736C9.06518 24.0928 9.22689 24.1598 9.39551 24.1598H12.9471L17.2108 28.4243C17.3302 28.5434 17.492 28.6103 17.6606 28.6103H23.7267L23.9 30.5176H20.2037C20.0351 30.5176 19.8734 30.5846 19.7542 30.7038C19.6349 30.8231 19.568 30.9848 19.568 31.1534C19.568 31.322 19.6349 31.4837 19.7542 31.603C19.8734 31.7222 20.0351 31.7892 20.2037 31.7892H24.016L24.5938 38.147H11.2281L10.6623 33.6179C10.6431 33.464 10.5684 33.3225 10.4522 33.2199C10.336 33.1173 10.1863 33.0607 10.0313 33.0607H5.53395L5.38693 31.1534H10.6671C10.8357 31.1534 10.9974 31.0864 11.1166 30.9672C11.2359 30.8479 11.3028 30.6862 11.3028 30.5176V27.3387C11.3028 27.1701 11.2359 27.0084 11.1166 26.8891C10.9974 26.7699 10.8357 26.7029 10.6671 26.7029H5.0452L4.83062 23.9134C4.81941 23.7691 4.75938 23.633 4.66042 23.5274C4.56147 23.4218 4.42949 23.353 4.28624 23.3325L2.12698 23.0241L4.34584 18.9567C4.40486 18.8489 4.43137 18.7263 4.42214 18.6038L4.31803 17.2591C4.32452 17.2182 4.32665 17.1766 4.32438 17.1352C4.31405 16.9301 4.30928 16.7267 4.30928 16.5304C4.30928 9.86975 9.7285 4.45049 16.3891 4.45049C16.5115 4.45049 16.6338 4.45287 16.7554 4.45685L11.6756 9.53676H8.75973C8.59111 9.53676 8.4294 9.60374 8.31017 9.72297C8.19094 9.84221 8.12395 10.0039 8.12395 10.1725C8.12395 10.3412 8.19094 10.5029 8.31017 10.6221C8.4294 10.7413 8.59111 10.8083 8.75973 10.8083H11.9386C12.1073 10.8084 12.2691 10.7415 12.3884 10.6224L18.3926 4.61738C24.1034 5.57503 28.4689 10.5516 28.4689 16.5304C28.4742 18.374 28.0549 20.194 27.2436 21.8495C26.4323 23.505 25.2507 24.9514 23.7903 26.0767Z" fill="white"/>
<path d="M19.5696 13.3521H17.0265C16.8578 13.3521 16.6961 13.419 16.5769 13.5383C16.4577 13.6575 16.3907 13.8192 16.3907 13.9878V17.8025C16.3907 17.9712 16.4577 18.1329 16.5769 18.2521C16.6961 18.3713 16.8578 18.4383 17.0265 18.4383C17.1951 18.4383 17.3568 18.3713 17.476 18.2521C17.5953 18.1329 17.6622 17.9712 17.6622 17.8025V16.531H18.9338V17.8025C18.9338 17.9712 19.0008 18.1329 19.12 18.2521C19.2392 18.3713 19.401 18.4383 19.5696 18.4383C19.7382 18.4383 19.8999 18.3713 20.0191 18.2521C20.1384 18.1329 20.2054 17.9712 20.2054 17.8025V13.9878C20.2054 13.8192 20.1384 13.6575 20.0191 13.5383C19.8999 13.419 19.7382 13.3521 19.5696 13.3521ZM18.9338 15.2594H17.6622V14.6236H18.9338V15.2594Z" fill="white"/>
</svg>
