<svg width="269" height="112" viewBox="0 0 269 112" fill="none" xmlns="http://www.w3.org/2000/svg">
<g filter="url(#filter0_i_901_5583)">
<path fill-rule="evenodd" clip-rule="evenodd" d="M2 8.26209C2 3.85925 5.56921 0.290039 9.97205 0.290039H57.8044V16.2341H9.97205C5.56921 16.2341 2 12.6649 2 8.26209ZM2 36.9617C2 32.5589 5.56921 28.9897 9.97205 28.9897H57.8044V44.9338H9.97205C5.56921 44.9338 2 41.3646 2 36.9617ZM9.97205 57.6882C5.56921 57.6882 2 61.2575 2 65.6603C2 70.0631 5.56921 73.6324 9.97205 73.6324H57.8044V57.6882H9.97205Z" fill="white"/>
</g>
<g filter="url(#filter1_i_901_5583)">
<path fill-rule="evenodd" clip-rule="evenodd" d="M88.0997 49.7163H99.2661C112.915 49.7163 123.979 38.6517 123.979 25.0029C123.979 11.3541 112.915 0.289551 99.2661 0.289551H68.9653V49.7163H68.9668L68.9655 63.4672C68.9651 68.7506 73.2477 73.0341 78.5311 73.0345C83.8145 73.035 88.098 68.7524 88.0985 63.4689L88.0997 49.7163Z" fill="white"/>
</g>
<g filter="url(#filter2_i_901_5583)">
<path fill-rule="evenodd" clip-rule="evenodd" d="M134.336 0.467773C129.933 0.467773 126.364 4.03698 126.364 8.43983C126.364 12.8427 129.933 16.4119 134.336 16.4119L147.091 16.4119V64.0673C147.091 69.3507 151.374 73.6337 156.658 73.6337C161.941 73.6337 166.224 69.3507 166.224 64.0673V16.4119L178.979 16.4119C183.382 16.4119 186.951 12.8427 186.951 8.43983C186.951 4.03699 183.382 0.467778 178.979 0.467777L134.336 0.467773Z" fill="white"/>
</g>
<g filter="url(#filter3_i_901_5583)">
<path d="M229.073 61.6692H203.722L199.869 73.6329H178.979L201.206 11.0802C203.505 4.61147 209.626 0.290039 216.491 0.290039V0.290039C223.364 0.290039 229.49 4.62055 231.783 11.099L253.917 73.6329H232.926L229.073 61.6692ZM229.073 61.6692L216.397 22.3449L203.722 61.6692H229.073Z" fill="white"/>
</g>
<g filter="url(#filter4_d_901_5583)">
<path d="M6.1531 92.1684V94.0636H9.86122V96.5192H6.1531V98.6123H10.3556V101.2H2.92291V89.5809H10.3556V92.1684H6.1531ZM11.5563 95.3656C11.5563 94.2229 11.7925 93.2066 12.2649 92.3167C12.7484 91.4158 13.4296 90.7181 14.3085 90.2237C15.1875 89.7183 16.1983 89.4656 17.3409 89.4656C18.7912 89.4656 20.0108 89.8556 20.9996 90.6357C21.9885 91.4048 22.6257 92.454 22.9114 93.7835H19.434C19.2252 93.344 18.9341 93.0089 18.5605 92.7781C18.1979 92.5474 17.7749 92.4321 17.2915 92.4321C16.5444 92.4321 15.9456 92.7012 15.4951 93.2396C15.0556 93.767 14.8359 94.4756 14.8359 95.3656C14.8359 96.2665 15.0556 96.9862 15.4951 97.5245C15.9456 98.0519 16.5444 98.3156 17.2915 98.3156C17.7749 98.3156 18.1979 98.2002 18.5605 97.9695C18.9341 97.7388 19.2252 97.4037 19.434 96.9642H22.9114C22.6257 98.2936 21.9885 99.3484 20.9996 100.128C20.0108 100.898 18.7912 101.282 17.3409 101.282C16.1983 101.282 15.1875 101.035 14.3085 100.54C13.4296 100.035 12.7484 99.3374 12.2649 98.4475C11.7925 97.5465 11.5563 96.5192 11.5563 95.3656ZM28.8248 101.315C27.4734 101.315 26.3637 100.996 25.4957 100.359C24.6277 99.711 24.1608 98.7881 24.0949 97.5905H27.5393C27.5723 97.997 27.6931 98.2936 27.9019 98.4804C28.1106 98.6672 28.3798 98.7606 28.7094 98.7606C29.0061 98.7606 29.2478 98.6892 29.4346 98.5463C29.6323 98.3925 29.7312 98.1838 29.7312 97.9201C29.7312 97.5795 29.5719 97.3158 29.2533 97.129C28.9347 96.9422 28.4183 96.7335 27.7041 96.5028C26.946 96.25 26.3307 96.0083 25.8583 95.7776C25.3968 95.5359 24.9903 95.1898 24.6387 94.7393C24.2981 94.2779 24.1278 93.6791 24.1278 92.943C24.1278 92.1958 24.3146 91.5586 24.6882 91.0312C25.0617 90.4928 25.5781 90.0863 26.2373 89.8116C26.8966 89.537 27.6437 89.3996 28.4787 89.3996C29.8301 89.3996 30.9068 89.7183 31.7089 90.3555C32.5219 90.9818 32.9559 91.8662 33.0108 93.0089H29.5005C29.4895 92.6573 29.3796 92.3936 29.1709 92.2178C28.9731 92.042 28.7149 91.9541 28.3963 91.9541C28.1546 91.9541 27.9568 92.0255 27.803 92.1684C27.6492 92.3112 27.5723 92.5145 27.5723 92.7781C27.5723 92.9979 27.6547 93.1902 27.8195 93.355C27.9953 93.5088 28.2095 93.6461 28.4622 93.767C28.7149 93.8769 29.0885 94.0197 29.5829 94.1955C30.319 94.4482 30.9233 94.7009 31.3958 94.9536C31.8792 95.1953 32.2912 95.5414 32.6318 95.9919C32.9834 96.4313 33.1592 96.9917 33.1592 97.6729C33.1592 98.3651 32.9834 98.9858 32.6318 99.5352C32.2912 100.085 31.7913 100.519 31.1321 100.837C30.4838 101.156 29.7147 101.315 28.8248 101.315ZM49.8198 101.2L48.8805 100.31C47.8367 101.024 46.5897 101.381 45.1394 101.381C44.2274 101.381 43.4309 101.233 42.7497 100.936C42.0795 100.639 41.5576 100.222 41.184 99.6835C40.8215 99.1451 40.6402 98.5244 40.6402 97.8212C40.6402 97.118 40.8215 96.4808 41.184 95.9095C41.5576 95.3271 42.1124 94.8547 42.8486 94.4921C42.5739 94.1405 42.3761 93.8054 42.2553 93.4868C42.1344 93.1682 42.074 92.8276 42.074 92.465C42.074 91.8937 42.2223 91.3718 42.519 90.8994C42.8156 90.4269 43.2496 90.0534 43.8209 89.7787C44.4032 89.493 45.0899 89.3502 45.881 89.3502C46.683 89.3502 47.3642 89.4985 47.9246 89.7952C48.4849 90.0808 48.9024 90.4654 49.1771 90.9488C49.4628 91.4212 49.6001 91.9376 49.5891 92.498H46.6061C46.6061 92.2453 46.5347 92.053 46.3919 91.9212C46.2491 91.7893 46.0733 91.7234 45.8645 91.7234C45.6448 91.7234 45.458 91.7893 45.3042 91.9212C45.1613 92.042 45.0899 92.2123 45.0899 92.4321C45.0899 92.8166 45.3646 93.2836 45.914 93.8329L48.6332 96.4863C48.7321 96.2885 48.8365 96.0523 48.9464 95.7776L49.276 95.1843H52.4732L51.9953 96.1072C51.5997 97.0521 51.1658 97.8487 50.6933 98.4969L53.462 101.2H49.8198ZM45.3536 98.7935C45.9359 98.7935 46.4523 98.6672 46.9028 98.4145L44.612 96.2226C44.3263 96.3984 44.1121 96.6016 43.9693 96.8324C43.8264 97.0631 43.755 97.2993 43.755 97.541C43.755 97.8926 43.8978 98.1893 44.1835 98.431C44.4692 98.6727 44.8592 98.7935 45.3536 98.7935ZM66.7266 93.4539C66.7266 94.157 66.5618 94.7998 66.2322 95.3821C65.9135 95.9534 65.4246 96.4149 64.7654 96.7664C64.1171 97.107 63.3206 97.2773 62.3757 97.2773H60.7771V101.2H57.5469V89.5809H62.3757C63.3096 89.5809 64.1007 89.7457 64.7489 90.0753C65.4081 90.4049 65.9025 90.8609 66.2322 91.4432C66.5618 92.0255 66.7266 92.6957 66.7266 93.4539ZM62.0626 94.7064C62.9745 94.7064 63.4305 94.2889 63.4305 93.4539C63.4305 92.6078 62.9745 92.1848 62.0626 92.1848H60.7771V94.7064H62.0626ZM71.2545 93.5857C71.617 93.0583 72.0565 92.6408 72.5729 92.3332C73.0893 92.0255 73.6441 91.8717 74.2374 91.8717V95.3162H73.331C72.6278 95.3162 72.106 95.4535 71.7654 95.7282C71.4248 96.0028 71.2545 96.4808 71.2545 97.162V101.2H68.0243V91.9541H71.2545V93.5857ZM79.6969 101.315C78.774 101.315 77.9445 101.123 77.2083 100.738C76.4832 100.354 75.9119 99.8044 75.4944 99.0902C75.0768 98.376 74.8681 97.5355 74.8681 96.5687C74.8681 95.6128 75.0768 94.7778 75.4944 94.0636C75.9228 93.3495 76.4997 92.8001 77.2248 92.4156C77.9609 92.031 78.7905 91.8388 79.7134 91.8388C80.6363 91.8388 81.4603 92.031 82.1855 92.4156C82.9216 92.8001 83.4984 93.3495 83.9159 94.0636C84.3444 94.7778 84.5587 95.6128 84.5587 96.5687C84.5587 97.5245 84.3444 98.3651 83.9159 99.0902C83.4984 99.8044 82.9216 100.354 82.1855 100.738C81.4493 101.123 80.6198 101.315 79.6969 101.315ZM79.6969 98.5134C80.1474 98.5134 80.5209 98.3486 80.8176 98.019C81.1252 97.6784 81.279 97.1949 81.279 96.5687C81.279 95.9424 81.1252 95.4645 80.8176 95.1349C80.5209 94.8053 80.1529 94.6404 79.7134 94.6404C79.2739 94.6404 78.9058 94.8053 78.6092 95.1349C78.3125 95.4645 78.1642 95.9424 78.1642 96.5687C78.1642 97.2059 78.307 97.6894 78.5927 98.019C78.8784 98.3486 79.2464 98.5134 79.6969 98.5134ZM89.2843 91.8388C89.9106 91.8388 90.4544 91.9651 90.9159 92.2178C91.3883 92.4705 91.7509 92.8111 92.0036 93.2396V91.9541H95.2338V101.101C95.2338 101.969 95.069 102.749 94.7394 103.441C94.4098 104.144 93.8934 104.705 93.1902 105.122C92.498 105.54 91.6191 105.748 90.5533 105.748C89.125 105.748 87.9823 105.413 87.1254 104.743C86.2684 104.073 85.7794 103.161 85.6586 102.007H88.8393C88.9053 102.304 89.0701 102.535 89.3338 102.699C89.5974 102.864 89.938 102.947 90.3555 102.947C91.4543 102.947 92.0036 102.331 92.0036 101.101V99.9142C91.7509 100.343 91.3883 100.683 90.9159 100.936C90.4544 101.189 89.9106 101.315 89.2843 101.315C88.5482 101.315 87.878 101.123 87.2737 100.738C86.6804 100.354 86.2079 99.8044 85.8564 99.0902C85.5158 98.3651 85.3455 97.5245 85.3455 96.5687C85.3455 95.6128 85.5158 94.7778 85.8564 94.0636C86.2079 93.3495 86.6804 92.8001 87.2737 92.4156C87.878 92.031 88.5482 91.8388 89.2843 91.8388ZM92.0036 96.5687C92.0036 95.9754 91.8388 95.5084 91.5092 95.1678C91.1906 94.8272 90.795 94.6569 90.3226 94.6569C89.8392 94.6569 89.4381 94.8272 89.1195 95.1678C88.8009 95.4974 88.6416 95.9644 88.6416 96.5687C88.6416 97.162 88.8009 97.6344 89.1195 97.986C89.4381 98.3266 89.8392 98.4969 90.3226 98.4969C90.795 98.4969 91.1906 98.3266 91.5092 97.986C91.8388 97.6454 92.0036 97.173 92.0036 96.5687ZM100.305 93.5857C100.667 93.0583 101.107 92.6408 101.623 92.3332C102.139 92.0255 102.694 91.8717 103.288 91.8717V95.3162H102.381C101.678 95.3162 101.156 95.4535 100.816 95.7282C100.475 96.0028 100.305 96.4808 100.305 97.162V101.2H97.0745V91.9541H100.305V93.5857ZM103.918 96.5687C103.918 95.6128 104.089 94.7778 104.429 94.0636C104.781 93.3495 105.253 92.8001 105.846 92.4156C106.451 92.031 107.121 91.8388 107.857 91.8388C108.494 91.8388 109.044 91.9651 109.505 92.2178C109.967 92.4705 110.324 92.8111 110.576 93.2396V91.9541H113.807V101.2H110.576V99.9142C110.324 100.343 109.961 100.683 109.489 100.936C109.027 101.189 108.483 101.315 107.857 101.315C107.121 101.315 106.451 101.123 105.846 100.738C105.253 100.354 104.781 99.8044 104.429 99.0902C104.089 98.3651 103.918 97.5245 103.918 96.5687ZM110.576 96.5687C110.576 95.9754 110.412 95.5084 110.082 95.1678C109.763 94.8272 109.368 94.6569 108.895 94.6569C108.412 94.6569 108.011 94.8272 107.692 95.1678C107.374 95.4974 107.214 95.9644 107.214 96.5687C107.214 97.162 107.374 97.6344 107.692 97.986C108.011 98.3266 108.412 98.4969 108.895 98.4969C109.368 98.4969 109.763 98.3266 110.082 97.986C110.412 97.6454 110.576 97.173 110.576 96.5687ZM127.728 91.8717C128.892 91.8717 129.804 92.2233 130.463 92.9265C131.133 93.6296 131.469 94.591 131.469 95.8106V101.2H128.238V96.2391C128.238 95.7446 128.101 95.3601 127.826 95.0854C127.552 94.8107 127.178 94.6734 126.706 94.6734C126.233 94.6734 125.86 94.8107 125.585 95.0854C125.31 95.3601 125.173 95.7446 125.173 96.2391V101.2H121.943V96.2391C121.943 95.7446 121.805 95.3601 121.531 95.0854C121.267 94.8107 120.899 94.6734 120.427 94.6734C119.943 94.6734 119.564 94.8107 119.289 95.0854C119.015 95.3601 118.877 95.7446 118.877 96.2391V101.2H115.647V91.9541H118.877V93.1737C119.163 92.7781 119.531 92.465 119.982 92.2343C120.443 91.9926 120.97 91.8717 121.564 91.8717C122.245 91.8717 122.849 92.02 123.377 92.3167C123.915 92.6133 124.338 93.0308 124.646 93.5692C124.975 93.0638 125.409 92.6573 125.948 92.3497C126.486 92.031 127.079 91.8717 127.728 91.8717ZM145.319 91.8717C146.483 91.8717 147.395 92.2233 148.054 92.9265C148.725 93.6296 149.06 94.591 149.06 95.8106V101.2H145.829V96.2391C145.829 95.7446 145.692 95.3601 145.417 95.0854C145.143 94.8107 144.769 94.6734 144.297 94.6734C143.824 94.6734 143.451 94.8107 143.176 95.0854C142.901 95.3601 142.764 95.7446 142.764 96.2391V101.2H139.534V96.2391C139.534 95.7446 139.397 95.3601 139.122 95.0854C138.858 94.8107 138.49 94.6734 138.018 94.6734C137.534 94.6734 137.155 94.8107 136.881 95.0854C136.606 95.3601 136.468 95.7446 136.468 96.2391V101.2H133.238V91.9541H136.468V93.1737C136.754 92.7781 137.122 92.465 137.573 92.2343C138.034 91.9926 138.562 91.8717 139.155 91.8717C139.836 91.8717 140.44 92.02 140.968 92.3167C141.506 92.6133 141.929 93.0308 142.237 93.5692C142.566 93.0638 143 92.6573 143.539 92.3497C144.077 92.031 144.67 91.8717 145.319 91.8717ZM152.461 91.0971C151.89 91.0971 151.428 90.9433 151.077 90.6357C150.736 90.3171 150.566 89.9215 150.566 89.4491C150.566 88.9656 150.736 88.5646 151.077 88.246C151.428 87.9274 151.89 87.7681 152.461 87.7681C153.021 87.7681 153.472 87.9274 153.812 88.246C154.164 88.5646 154.34 88.9656 154.34 89.4491C154.34 89.9215 154.164 90.3171 153.812 90.6357C153.472 90.9433 153.021 91.0971 152.461 91.0971ZM154.06 91.9541V101.2H150.829V91.9541H154.06ZM161.947 91.8717C163.013 91.8717 163.859 92.2288 164.485 92.943C165.112 93.6461 165.425 94.602 165.425 95.8106V101.2H162.195V96.2391C162.195 95.7117 162.057 95.2997 161.783 95.003C161.508 94.6954 161.14 94.5416 160.678 94.5416C160.195 94.5416 159.816 94.6954 159.541 95.003C159.267 95.2997 159.129 95.7117 159.129 96.2391V101.2H155.899V91.9541H159.129V93.2726C159.415 92.8551 159.799 92.52 160.283 92.2673C160.766 92.0036 161.321 91.8717 161.947 91.8717ZM170.609 91.8388C171.235 91.8388 171.779 91.9651 172.24 92.2178C172.713 92.4705 173.075 92.8111 173.328 93.2396V91.9541H176.558V101.101C176.558 101.969 176.393 102.749 176.064 103.441C175.734 104.144 175.218 104.705 174.515 105.122C173.822 105.54 172.943 105.748 171.878 105.748C170.449 105.748 169.307 105.413 168.45 104.743C167.593 104.073 167.104 103.161 166.983 102.007H170.164C170.23 102.304 170.394 102.535 170.658 102.699C170.922 102.864 171.262 102.947 171.68 102.947C172.779 102.947 173.328 102.331 173.328 101.101V99.9142C173.075 100.343 172.713 100.683 172.24 100.936C171.779 101.189 171.235 101.315 170.609 101.315C169.873 101.315 169.202 101.123 168.598 100.738C168.005 100.354 167.532 99.8044 167.181 99.0902C166.84 98.3651 166.67 97.5245 166.67 96.5687C166.67 95.6128 166.84 94.7778 167.181 94.0636C167.532 93.3495 168.005 92.8001 168.598 92.4156C169.202 92.031 169.873 91.8388 170.609 91.8388ZM173.328 96.5687C173.328 95.9754 173.163 95.5084 172.834 95.1678C172.515 94.8272 172.119 94.6569 171.647 94.6569C171.164 94.6569 170.763 94.8272 170.444 95.1678C170.125 95.4974 169.966 95.9644 169.966 96.5687C169.966 97.162 170.125 97.6344 170.444 97.986C170.763 98.3266 171.164 98.4969 171.647 98.4969C172.119 98.4969 172.515 98.3266 172.834 97.986C173.163 97.6454 173.328 97.173 173.328 96.5687ZM190.305 89.5809V92.1519H187.206V101.2H183.976V92.1519H180.911V89.5809H190.305ZM194.73 93.5857C195.092 93.0583 195.532 92.6408 196.048 92.3332C196.565 92.0255 197.119 91.8717 197.713 91.8717V95.3162H196.806C196.103 95.3162 195.581 95.4535 195.241 95.7282C194.9 96.0028 194.73 96.4808 194.73 97.162V101.2H191.5V91.9541H194.73V93.5857ZM198.343 96.5687C198.343 95.6128 198.514 94.7778 198.854 94.0636C199.206 93.3495 199.678 92.8001 200.272 92.4156C200.876 92.031 201.546 91.8388 202.282 91.8388C202.92 91.8388 203.469 91.9651 203.93 92.2178C204.392 92.4705 204.749 92.8111 205.002 93.2396V91.9541H208.232V101.2H205.002V99.9142C204.749 100.343 204.386 100.683 203.914 100.936C203.452 101.189 202.909 101.315 202.282 101.315C201.546 101.315 200.876 101.123 200.272 100.738C199.678 100.354 199.206 99.8044 198.854 99.0902C198.514 98.3651 198.343 97.5245 198.343 96.5687ZM205.002 96.5687C205.002 95.9754 204.837 95.5084 204.507 95.1678C204.189 94.8272 203.793 94.6569 203.321 94.6569C202.837 94.6569 202.436 94.8272 202.117 95.1678C201.799 95.4974 201.64 95.9644 201.64 96.5687C201.64 97.162 201.799 97.6344 202.117 97.986C202.436 98.3266 202.837 98.4969 203.321 98.4969C203.793 98.4969 204.189 98.3266 204.507 97.986C204.837 97.6454 205.002 97.173 205.002 96.5687ZM211.704 91.0971C211.133 91.0971 210.671 90.9433 210.32 90.6357C209.979 90.3171 209.809 89.9215 209.809 89.4491C209.809 88.9656 209.979 88.5646 210.32 88.246C210.671 87.9274 211.133 87.7681 211.704 87.7681C212.264 87.7681 212.715 87.9274 213.055 88.246C213.407 88.5646 213.583 88.9656 213.583 89.4491C213.583 89.9215 213.407 90.3171 213.055 90.6357C212.715 90.9433 212.264 91.0971 211.704 91.0971ZM213.303 91.9541V101.2H210.072V91.9541H213.303ZM221.19 91.8717C222.256 91.8717 223.102 92.2288 223.728 92.943C224.355 93.6461 224.668 94.602 224.668 95.8106V101.2H221.438V96.2391C221.438 95.7117 221.3 95.2997 221.026 95.003C220.751 94.6954 220.383 94.5416 219.921 94.5416C219.438 94.5416 219.059 94.6954 218.784 95.003C218.51 95.2997 218.372 95.7117 218.372 96.2391V101.2H215.142V91.9541H218.372V93.2726C218.658 92.8551 219.043 92.52 219.526 92.2673C220.009 92.0036 220.564 91.8717 221.19 91.8717ZM228.072 91.0971C227.501 91.0971 227.039 90.9433 226.688 90.6357C226.347 90.3171 226.177 89.9215 226.177 89.4491C226.177 88.9656 226.347 88.5646 226.688 88.246C227.039 87.9274 227.501 87.7681 228.072 87.7681C228.632 87.7681 229.083 87.9274 229.423 88.246C229.775 88.5646 229.951 88.9656 229.951 89.4491C229.951 89.9215 229.775 90.3171 229.423 90.6357C229.083 90.9433 228.632 91.0971 228.072 91.0971ZM229.67 91.9541V101.2H226.44V91.9541H229.67ZM237.558 91.8717C238.624 91.8717 239.47 92.2288 240.096 92.943C240.723 93.6461 241.036 94.602 241.036 95.8106V101.2H237.806V96.2391C237.806 95.7117 237.668 95.2997 237.394 95.003C237.119 94.6954 236.751 94.5416 236.289 94.5416C235.806 94.5416 235.427 94.6954 235.152 95.003C234.878 95.2997 234.74 95.7117 234.74 96.2391V101.2H231.51V91.9541H234.74V93.2726C235.026 92.8551 235.41 92.52 235.894 92.2673C236.377 92.0036 236.932 91.8717 237.558 91.8717ZM246.22 91.8388C246.846 91.8388 247.39 91.9651 247.851 92.2178C248.324 92.4705 248.686 92.8111 248.939 93.2396V91.9541H252.169V101.101C252.169 101.969 252.004 102.749 251.675 103.441C251.345 104.144 250.829 104.705 250.126 105.122C249.433 105.54 248.554 105.748 247.489 105.748C246.06 105.748 244.918 105.413 244.061 104.743C243.204 104.073 242.715 103.161 242.594 102.007H245.775C245.841 102.304 246.005 102.535 246.269 102.699C246.533 102.864 246.873 102.947 247.291 102.947C248.39 102.947 248.939 102.331 248.939 101.101V99.9142C248.686 100.343 248.324 100.683 247.851 100.936C247.39 101.189 246.846 101.315 246.22 101.315C245.484 101.315 244.813 101.123 244.209 100.738C243.616 100.354 243.143 99.8044 242.792 99.0902C242.451 98.3651 242.281 97.5245 242.281 96.5687C242.281 95.6128 242.451 94.7778 242.792 94.0636C243.143 93.3495 243.616 92.8001 244.209 92.4156C244.813 92.031 245.484 91.8388 246.22 91.8388ZM248.939 96.5687C248.939 95.9754 248.774 95.5084 248.445 95.1678C248.126 94.8272 247.73 94.6569 247.258 94.6569C246.775 94.6569 246.373 94.8272 246.055 95.1678C245.736 95.4974 245.577 95.9644 245.577 96.5687C245.577 97.162 245.736 97.6344 246.055 97.986C246.373 98.3266 246.775 98.4969 247.258 98.4969C247.73 98.4969 248.126 98.3266 248.445 97.986C248.774 97.6454 248.939 97.173 248.939 96.5687Z" fill="white"/>
</g>
<defs>
<filter id="filter0_i_901_5583" x="2" y="-1.7204" width="55.8042" height="75.3527" filterUnits="userSpaceOnUse" color-interpolation-filters="sRGB">
<feFlood flood-opacity="0" result="BackgroundImageFix"/>
<feBlend mode="normal" in="SourceGraphic" in2="BackgroundImageFix" result="shape"/>
<feColorMatrix in="SourceAlpha" type="matrix" values="0 0 0 0 0 0 0 0 0 0 0 0 0 0 0 0 0 0 127 0" result="hardAlpha"/>
<feOffset dy="-5.02609"/>
<feGaussianBlur stdDeviation="1.00522"/>
<feComposite in2="hardAlpha" operator="arithmetic" k2="-1" k3="1"/>
<feColorMatrix type="matrix" values="0 0 0 0 0 0 0 0 0 0 0 0 0 0 0 0 0 0 0.2 0"/>
<feBlend mode="normal" in2="shape" result="effect1_innerShadow_901_5583"/>
</filter>
<filter id="filter1_i_901_5583" x="68.9653" y="-1.72088" width="55.0142" height="74.7556" filterUnits="userSpaceOnUse" color-interpolation-filters="sRGB">
<feFlood flood-opacity="0" result="BackgroundImageFix"/>
<feBlend mode="normal" in="SourceGraphic" in2="BackgroundImageFix" result="shape"/>
<feColorMatrix in="SourceAlpha" type="matrix" values="0 0 0 0 0 0 0 0 0 0 0 0 0 0 0 0 0 0 127 0" result="hardAlpha"/>
<feOffset dy="-5.02609"/>
<feGaussianBlur stdDeviation="1.00522"/>
<feComposite in2="hardAlpha" operator="arithmetic" k2="-1" k3="1"/>
<feColorMatrix type="matrix" values="0 0 0 0 0 0 0 0 0 0 0 0 0 0 0 0 0 0 0.2 0"/>
<feBlend mode="normal" in2="shape" result="effect1_innerShadow_901_5583"/>
</filter>
<filter id="filter2_i_901_5583" x="126.364" y="-1.54266" width="60.5874" height="75.1765" filterUnits="userSpaceOnUse" color-interpolation-filters="sRGB">
<feFlood flood-opacity="0" result="BackgroundImageFix"/>
<feBlend mode="normal" in="SourceGraphic" in2="BackgroundImageFix" result="shape"/>
<feColorMatrix in="SourceAlpha" type="matrix" values="0 0 0 0 0 0 0 0 0 0 0 0 0 0 0 0 0 0 127 0" result="hardAlpha"/>
<feOffset dy="-5.02609"/>
<feGaussianBlur stdDeviation="1.00522"/>
<feComposite in2="hardAlpha" operator="arithmetic" k2="-1" k3="1"/>
<feColorMatrix type="matrix" values="0 0 0 0 0 0 0 0 0 0 0 0 0 0 0 0 0 0 0.2 0"/>
<feBlend mode="normal" in2="shape" result="effect1_innerShadow_901_5583"/>
</filter>
<filter id="filter3_i_901_5583" x="178.979" y="-1.7204" width="74.9375" height="75.3532" filterUnits="userSpaceOnUse" color-interpolation-filters="sRGB">
<feFlood flood-opacity="0" result="BackgroundImageFix"/>
<feBlend mode="normal" in="SourceGraphic" in2="BackgroundImageFix" result="shape"/>
<feColorMatrix in="SourceAlpha" type="matrix" values="0 0 0 0 0 0 0 0 0 0 0 0 0 0 0 0 0 0 127 0" result="hardAlpha"/>
<feOffset dy="-5.02609"/>
<feGaussianBlur stdDeviation="1.00522"/>
<feComposite in2="hardAlpha" operator="arithmetic" k2="-1" k3="1"/>
<feColorMatrix type="matrix" values="0 0 0 0 0 0 0 0 0 0 0 0 0 0 0 0 0 0 0.2 0"/>
<feBlend mode="normal" in2="shape" result="effect1_innerShadow_901_5583"/>
</filter>
<filter id="filter4_d_901_5583" x="0.0508003" y="87.7681" width="254.99" height="23.7246" filterUnits="userSpaceOnUse" color-interpolation-filters="sRGB">
<feFlood flood-opacity="0" result="BackgroundImageFix"/>
<feColorMatrix in="SourceAlpha" type="matrix" values="0 0 0 0 0 0 0 0 0 0 0 0 0 0 0 0 0 0 127 0" result="hardAlpha"/>
<feOffset dy="2.87205"/>
<feGaussianBlur stdDeviation="1.43603"/>
<feComposite in2="hardAlpha" operator="out"/>
<feColorMatrix type="matrix" values="0 0 0 0 0 0 0 0 0 0 0 0 0 0 0 0 0 0 0.25 0"/>
<feBlend mode="normal" in2="BackgroundImageFix" result="effect1_dropShadow_901_5583"/>
<feBlend mode="normal" in="SourceGraphic" in2="effect1_dropShadow_901_5583" result="shape"/>
</filter>
</defs>
</svg>
