<svg width="106" height="43" viewBox="0 0 106 43" fill="none" xmlns="http://www.w3.org/2000/svg">
<rect y="0.283875" width="106" height="42" rx="20" fill="white"/>
<path d="M19.9013 27.2839V15.6475H23.8331C24.7422 15.6475 25.4884 15.8028 26.0717 16.1134C26.6551 16.4202 27.0869 16.8426 27.3672 17.3805C27.6475 17.9183 27.7876 18.5301 27.7876 19.2157C27.7876 19.9013 27.6475 20.5093 27.3672 21.0396C27.0869 21.5699 26.657 21.9865 26.0774 22.2896C25.4979 22.5888 24.7573 22.7384 23.8558 22.7384H20.674V21.4657H23.8104C24.4316 21.4657 24.9316 21.3748 25.3104 21.193C25.6929 21.0111 25.9695 20.7536 26.1399 20.4202C26.3142 20.0831 26.4013 19.6816 26.4013 19.2157C26.4013 18.7498 26.3142 18.3426 26.1399 17.9941C25.9657 17.6456 25.6873 17.3767 25.3047 17.1873C24.9221 16.9941 24.4164 16.8975 23.7876 16.8975H21.3104V27.2839H19.9013ZM25.3786 22.0566L28.2422 27.2839H26.6058L23.7876 22.0566H25.3786ZM33.5192 27.4657C32.6783 27.4657 31.9529 27.2801 31.343 26.9089C30.737 26.5339 30.2692 26.0111 29.9396 25.3407C29.6139 24.6665 29.451 23.8824 29.451 22.9884C29.451 22.0945 29.6139 21.3066 29.9396 20.6248C30.2692 19.9392 30.7275 19.4051 31.3146 19.0225C31.9055 18.6361 32.5949 18.443 33.3828 18.443C33.8374 18.443 34.2862 18.5187 34.7294 18.6702C35.1726 18.8218 35.576 19.068 35.9396 19.4089C36.3033 19.746 36.593 20.193 36.8089 20.7498C37.0249 21.3066 37.1328 21.9922 37.1328 22.8066V23.3748H30.4055V22.2157H35.7692C35.7692 21.7233 35.6707 21.2839 35.4737 20.8975C35.2805 20.5111 35.004 20.2062 34.6442 19.9827C34.2881 19.7593 33.8677 19.6475 33.3828 19.6475C32.8487 19.6475 32.3866 19.7801 31.9964 20.0452C31.6101 20.3066 31.3127 20.6475 31.1044 21.068C30.8961 21.4884 30.7919 21.9392 30.7919 22.4202V23.193C30.7919 23.8521 30.9055 24.4108 31.1328 24.8691C31.3639 25.3236 31.6839 25.6702 32.093 25.9089C32.5021 26.1437 32.9775 26.2611 33.5192 26.2611C33.8714 26.2611 34.1896 26.2119 34.4737 26.1134C34.7616 26.0111 35.0097 25.8596 35.218 25.6589C35.4264 25.4543 35.5874 25.2005 35.701 24.8975L36.9964 25.2611C36.8601 25.7005 36.6309 26.0869 36.3089 26.4202C35.987 26.7498 35.5893 27.0074 35.1158 27.193C34.6423 27.3748 34.1101 27.4657 33.5192 27.4657ZM41.7408 27.4884C41.1877 27.4884 40.6858 27.3843 40.2351 27.1759C39.7843 26.9638 39.4264 26.6589 39.1612 26.2611C38.8961 25.8596 38.7635 25.3748 38.7635 24.8066C38.7635 24.3066 38.862 23.9013 39.0589 23.5907C39.2559 23.2763 39.5192 23.0301 39.8487 22.8521C40.1783 22.674 40.5419 22.5415 40.9396 22.4543C41.3411 22.3634 41.7446 22.2915 42.1499 22.2384C42.6802 22.1702 43.1101 22.1191 43.4396 22.085C43.773 22.0471 44.0154 21.9846 44.1669 21.8975C44.3222 21.8104 44.3999 21.6589 44.3999 21.443V21.3975C44.3999 20.8369 44.2464 20.4013 43.9396 20.0907C43.6366 19.7801 43.1764 19.6248 42.5589 19.6248C41.9188 19.6248 41.4169 19.7649 41.0533 20.0452C40.6896 20.3255 40.4339 20.6248 40.2862 20.943L39.0135 20.4884C39.2408 19.9581 39.5438 19.5452 39.9226 19.2498C40.3052 18.9505 40.7218 18.7422 41.1726 18.6248C41.6271 18.5036 42.0741 18.443 42.5135 18.443C42.7938 18.443 43.1158 18.4771 43.4794 18.5452C43.8468 18.6096 44.201 18.7441 44.5419 18.9486C44.8866 19.1532 45.1726 19.4619 45.3999 19.8748C45.6271 20.2877 45.7408 20.8407 45.7408 21.5339V27.2839H44.3999V26.1021H44.3317C44.2408 26.2915 44.0893 26.4941 43.8771 26.71C43.665 26.9259 43.3828 27.1096 43.0305 27.2611C42.6783 27.4127 42.2483 27.4884 41.7408 27.4884ZM41.9453 26.2839C42.4756 26.2839 42.9226 26.1797 43.2862 25.9714C43.6536 25.763 43.9302 25.4941 44.1158 25.1646C44.3052 24.835 44.3999 24.4884 44.3999 24.1248V22.8975C44.343 22.9657 44.218 23.0282 44.0249 23.085C43.8355 23.138 43.6158 23.1854 43.3658 23.2271C43.1196 23.2649 42.879 23.299 42.6442 23.3293C42.4131 23.3558 42.2256 23.3786 42.0817 23.3975C41.7332 23.443 41.4074 23.5168 41.1044 23.6191C40.8052 23.7176 40.5627 23.8672 40.3771 24.068C40.1953 24.2649 40.1044 24.5339 40.1044 24.8748C40.1044 25.3407 40.2768 25.693 40.6214 25.9316C40.9699 26.1665 41.4112 26.2839 41.9453 26.2839ZM51.7337 27.4657C50.9155 27.4657 50.2109 27.2725 49.62 26.8861C49.0291 26.4998 48.5746 25.9676 48.2564 25.2896C47.9382 24.6115 47.7791 23.8369 47.7791 22.9657C47.7791 22.0793 47.942 21.2971 48.2678 20.6191C48.5973 19.9373 49.0556 19.4051 49.6428 19.0225C50.2337 18.6361 50.9231 18.443 51.7109 18.443C52.3246 18.443 52.8776 18.5566 53.37 18.7839C53.8625 19.0111 54.2659 19.3293 54.5803 19.7384C54.8946 20.1475 55.0897 20.6248 55.1655 21.1702H53.8246C53.7223 20.7725 53.495 20.4202 53.1428 20.1134C52.7943 19.8028 52.3246 19.6475 51.7337 19.6475C51.2109 19.6475 50.7526 19.7839 50.3587 20.0566C49.9685 20.3255 49.6636 20.7062 49.4439 21.1986C49.228 21.6873 49.12 22.2611 49.12 22.9202C49.12 23.5945 49.2261 24.1816 49.4382 24.6816C49.6541 25.1816 49.9571 25.5699 50.3473 25.8464C50.7412 26.1229 51.2034 26.2611 51.7337 26.2611C52.0821 26.2611 52.3984 26.2005 52.6825 26.0793C52.9666 25.9581 53.2071 25.7839 53.4041 25.5566C53.6011 25.3293 53.7412 25.0566 53.8246 24.7384H55.1655C55.0897 25.2536 54.9022 25.7176 54.603 26.1305C54.3075 26.5396 53.9155 26.8653 53.4268 27.1077C52.942 27.3464 52.3776 27.4657 51.7337 27.4657ZM58.4666 22.0339V27.2839H57.1257V15.6475H58.4666V19.9202H58.5803C58.7848 19.4695 59.0916 19.1115 59.5007 18.8464C59.9136 18.5774 60.4628 18.443 61.1484 18.443C61.7431 18.443 62.264 18.5623 62.7109 18.8009C63.1579 19.0358 63.5045 19.3975 63.7507 19.8861C64.0007 20.371 64.1257 20.9884 64.1257 21.7384V27.2839H62.7848V21.8293C62.7848 21.1361 62.6049 20.6002 62.245 20.2214C61.889 19.8388 61.3946 19.6475 60.7621 19.6475C60.3227 19.6475 59.9287 19.7403 59.5803 19.9259C59.2356 20.1115 58.9628 20.3824 58.7621 20.7384C58.5651 21.0945 58.4666 21.5263 58.4666 22.0339ZM76.5788 23.7157V18.5566H77.9197V27.2839H76.5788V25.8066H76.4879C76.2834 26.2498 75.9652 26.6267 75.5334 26.9373C75.1016 27.2441 74.5561 27.3975 73.897 27.3975C73.3516 27.3975 72.8667 27.2782 72.4425 27.0396C72.0182 26.7971 71.6849 26.4335 71.4425 25.9486C71.2 25.46 71.0788 24.8445 71.0788 24.1021V18.5566H72.4197V24.0111C72.4197 24.6475 72.5978 25.1551 72.9538 25.5339C73.3137 25.9127 73.772 26.1021 74.3288 26.1021C74.6622 26.1021 75.0012 26.0168 75.3459 25.8464C75.6944 25.6759 75.986 25.4146 76.2209 25.0623C76.4595 24.71 76.5788 24.2611 76.5788 23.7157ZM86.5575 20.5111L85.353 20.8521C85.2772 20.6513 85.1655 20.4562 85.0178 20.2668C84.8738 20.0736 84.6768 19.9146 84.4268 19.7896C84.1768 19.6646 83.8568 19.6021 83.4666 19.6021C82.9325 19.6021 82.4875 19.7252 82.1314 19.9714C81.7791 20.2138 81.603 20.5225 81.603 20.8975C81.603 21.2308 81.7242 21.4941 81.9666 21.6873C82.209 21.8805 82.5878 22.0415 83.103 22.1702L84.3984 22.4884C85.1787 22.6778 85.7602 22.9676 86.1428 23.3577C86.5253 23.7441 86.7166 24.2422 86.7166 24.8521C86.7166 25.3521 86.5727 25.799 86.2848 26.193C86.0007 26.5869 85.603 26.8975 85.0916 27.1248C84.5803 27.3521 83.9856 27.4657 83.3075 27.4657C82.4174 27.4657 81.6806 27.2725 81.0973 26.8861C80.514 26.4998 80.1446 25.9354 79.9893 25.193L81.2621 24.8748C81.3833 25.3445 81.6125 25.6968 81.9496 25.9316C82.2905 26.1665 82.7356 26.2839 83.2848 26.2839C83.9098 26.2839 84.406 26.1513 84.7734 25.8861C85.1446 25.6172 85.3303 25.2952 85.3303 24.9202C85.3303 24.6172 85.2242 24.3634 85.0121 24.1589C84.8 23.9505 84.4742 23.7952 84.0348 23.693L82.5803 23.3521C81.781 23.1627 81.1939 22.8691 80.8189 22.4714C80.4477 22.0699 80.2621 21.568 80.2621 20.9657C80.2621 20.4733 80.4003 20.0377 80.6768 19.6589C80.9571 19.2801 81.3378 18.9827 81.8189 18.7668C82.3037 18.5509 82.853 18.443 83.4666 18.443C84.3303 18.443 85.0083 18.6324 85.5007 19.0111C85.9969 19.3899 86.3492 19.8899 86.5575 20.5111Z" fill="#1E1E1E"/>
</svg>
