<svg width="445" height="192" viewBox="0 0 445 192" fill="none" xmlns="http://www.w3.org/2000/svg">
<path d="M1.22583 117.419C0.915033 113.867 3.54286 110.735 7.09524 110.425L121.142 100.447C124.694 100.136 127.826 102.768 128.137 106.32C129.559 122.57 130.548 133.881 131.97 150.131C132.281 153.684 129.653 156.819 126.101 157.13L12.0544 167.108C8.50201 167.419 5.37029 164.791 5.0595 161.239L1.22583 117.419Z" fill="#C39815"/>
<path d="M42.3549 138.896C42.6938 142.769 42.8388 145.524 42.7899 147.159C42.7556 148.778 42.3126 150.296 41.461 151.714C40.6253 153.131 39.4212 154.268 37.8487 155.125C36.2763 155.982 34.4027 156.506 32.2281 156.697C30.1646 156.877 28.2782 156.706 26.5691 156.184C24.8744 155.644 23.4681 154.744 22.35 153.482C21.2319 152.22 20.5082 150.804 20.1789 149.233C19.8495 147.663 19.5113 144.893 19.1641 140.925L18.5871 134.33C18.2482 130.457 18.096 127.711 18.1303 126.092C18.1791 124.457 18.6214 122.93 19.4572 121.514C20.3088 120.096 21.5208 118.958 23.0933 118.101C24.6657 117.243 26.5393 116.72 28.7139 116.529C30.7774 116.349 32.6565 116.528 34.3512 117.068C36.0603 117.59 37.4739 118.482 38.592 119.744C39.71 121.005 40.4337 122.422 40.7631 123.992C41.0924 125.563 41.4307 128.332 41.7779 132.301L42.3549 138.896ZM31.2227 127.106C31.0658 125.313 30.8627 124.179 30.6133 123.705C30.3783 123.213 29.9513 122.995 29.3323 123.049C28.8085 123.095 28.4218 123.337 28.1721 123.774C27.937 124.195 27.9062 125.397 28.0798 127.381L29.6547 145.381C29.8505 147.62 30.0586 148.993 30.279 149.501C30.5153 150.009 30.9668 150.233 31.6335 150.175C32.3161 150.115 32.7262 149.775 32.8639 149.155C33.0016 148.536 32.9712 147.091 32.7726 144.821L31.2227 127.106ZM44.1421 115.995L54.2375 115.112C56.9677 114.873 59.0817 114.904 60.5795 115.205C62.0932 115.504 63.2506 116.027 64.0516 116.773C64.8685 117.517 65.4546 118.457 65.8099 119.594C66.1798 120.713 66.4702 122.479 66.6813 124.892L66.975 128.249C67.1903 130.709 67.0932 132.525 66.6839 133.697C66.2745 134.868 65.4137 135.815 64.1014 136.538C62.8049 137.259 61.0614 137.715 58.8709 137.907L56.1804 138.142L57.5386 153.666L47.5146 154.543L44.1421 115.995ZM54.7431 121.714L55.6013 131.523C55.8884 131.514 56.1351 131.501 56.3415 131.482C57.2621 131.402 57.8776 131.124 58.188 130.649C58.5128 130.157 58.6127 129.196 58.4877 127.768L58.2106 124.601C58.0954 123.284 57.814 122.445 57.3666 122.084C56.9192 121.723 56.0447 121.6 54.7431 121.714ZM68.6187 113.854L85.3332 112.391L86.0081 120.106L79.3175 120.691L79.957 128.001L86.219 127.453L86.8606 134.786L80.5986 135.334L81.3402 143.811L88.6975 143.167L89.3724 150.881L71.9912 152.402L68.6187 113.854ZM111.286 110.121L114.658 148.669L105.873 149.438L99.1251 132.37L100.658 149.894L92.2772 150.627L88.9047 112.079L97.2857 111.346L104.423 128.212L102.905 110.854L111.286 110.121Z" fill="white"/>
<rect width="23.2649" height="22.5985" transform="matrix(-0.996195 0.0871557 0.0871557 0.996195 23.1758 108.917)" fill="#1E1E1E"/>
<g filter="url(#filter0_d_2134_6670)">
<path d="M23.1758 108.917L12.5551 121.796L2.63283 133.399L25.1454 131.429L23.1758 108.917Z" fill="white"/>
</g>
<g filter="url(#filter1_d_2134_6670)">
<path d="M128.59 130.292C128.652 126.726 131.593 123.886 135.158 123.949L432.733 129.143C436.299 129.205 439.139 132.15 439.076 135.715C438.792 152.025 438.594 163.378 438.309 179.687C438.247 183.252 435.306 186.096 431.74 186.034L134.165 180.84C130.6 180.778 127.76 177.837 127.822 174.271L128.59 130.292Z" fill="#C39815"/>
</g>
<path d="M141.467 132.101L148.783 132.228C153.66 132.313 156.954 132.559 158.666 132.966C160.394 133.372 161.785 134.362 162.838 135.936C163.908 137.494 164.413 139.966 164.354 143.354C164.3 146.447 163.879 148.519 163.091 149.569C162.303 150.62 160.778 151.232 158.516 151.405C160.553 151.948 161.916 152.651 162.605 153.515C163.294 154.378 163.714 155.171 163.865 155.894C164.032 156.601 164.088 158.558 164.032 161.766L163.849 172.248L154.251 172.081L154.481 158.873C154.518 156.746 154.369 155.425 154.035 154.912C153.716 154.399 152.845 154.13 151.421 154.105L151.108 172.026L140.773 171.846L141.467 132.101ZM151.683 139.081L151.529 147.919C152.691 147.939 153.504 147.798 153.968 147.495C154.448 147.176 154.703 146.141 154.734 144.389L154.772 142.205C154.794 140.944 154.579 140.114 154.128 139.713C153.693 139.313 152.878 139.102 151.683 139.081ZM168.569 132.574L185.803 132.874L185.664 140.828L178.766 140.708L178.634 148.245L185.09 148.357L184.958 155.918L178.502 155.806L178.349 164.545L185.935 164.678L185.796 172.631L167.875 172.319L168.569 132.574ZM213.314 150.692L202.979 150.511L203.1 143.588C203.135 141.575 203.042 140.321 202.822 139.826C202.618 139.315 202.14 139.053 201.387 139.04C200.536 139.025 199.99 139.319 199.751 139.92C199.511 140.522 199.374 141.829 199.338 143.842L199.016 162.303C198.982 164.234 199.075 165.496 199.294 166.089C199.513 166.683 200.023 166.986 200.825 167C201.594 167.014 202.099 166.728 202.338 166.143C202.594 165.558 202.741 164.177 202.779 162L202.866 157.017L213.201 157.197L213.174 158.744C213.102 162.852 212.757 165.76 212.137 167.468C211.535 169.176 210.224 170.66 208.204 171.918C206.202 173.176 203.744 173.78 200.83 173.729C197.803 173.676 195.316 173.084 193.372 171.953C191.427 170.823 190.152 169.286 189.548 167.344C188.943 165.385 188.675 162.458 188.743 158.563L188.946 146.951C188.996 144.087 189.131 141.945 189.353 140.524C189.574 139.088 190.179 137.715 191.168 136.406C192.173 135.097 193.541 134.082 195.273 133.359C197.021 132.62 199.016 132.27 201.259 132.309C204.303 132.362 206.805 132.995 208.764 134.208C210.724 135.421 212 136.917 212.591 138.695C213.182 140.457 213.445 143.196 213.38 146.911L213.314 150.692ZM217.324 133.425L224.639 133.552C229.517 133.637 232.811 133.883 234.523 134.29C236.251 134.696 237.642 135.686 238.695 137.26C239.764 138.818 240.27 141.29 240.211 144.678C240.157 147.771 239.736 149.843 238.948 150.893C238.16 151.944 236.635 152.556 234.373 152.729C236.41 153.272 237.773 153.975 238.462 154.839C239.15 155.702 239.57 156.495 239.722 157.218C239.889 157.925 239.945 159.882 239.889 163.09L239.706 173.572L230.108 173.405L230.338 160.198C230.375 158.07 230.226 156.749 229.892 156.236C229.573 155.723 228.702 155.454 227.278 155.429L226.965 173.35L216.63 173.17L217.324 133.425ZM227.54 140.405L227.386 149.243C228.548 149.263 229.361 149.122 229.825 148.819C230.305 148.5 230.56 147.465 230.591 145.714L230.629 143.529C230.651 142.268 230.436 141.438 229.985 141.037C229.55 140.637 228.735 140.426 227.54 140.405ZM267.92 134.308L267.456 160.87C267.403 163.881 267.268 165.999 267.05 167.223C266.833 168.431 266.23 169.673 265.242 170.949C264.254 172.208 262.96 173.16 261.361 173.803C259.779 174.43 257.915 174.725 255.771 174.688C253.398 174.646 251.31 174.217 249.507 173.4C247.704 172.582 246.364 171.536 245.486 170.26C244.608 168.984 244.099 167.649 243.959 166.255C243.82 164.845 243.79 161.898 243.868 157.413L244.279 133.895L254.614 134.076L254.094 163.878C254.063 165.613 254.134 166.727 254.305 167.222C254.494 167.7 254.874 167.944 255.447 167.954C256.102 167.965 256.523 167.711 256.713 167.19C256.918 166.653 257.039 165.395 257.073 163.415L257.584 134.127L267.92 134.308ZM282.256 134.558L281.563 174.303L271.227 174.123L271.921 134.378L282.256 134.558ZM307.223 134.994L307.084 142.948L300.947 142.841L300.392 174.632L290.057 174.451L290.611 142.66L284.499 142.554L284.638 134.6L307.223 134.994ZM341.469 135.592L340.775 175.337L331.741 175.179L332.209 148.347L328.132 175.116L321.725 175.004L318.377 148.719L317.92 174.938L308.886 174.78L309.58 135.035L322.959 135.268C323.31 137.665 323.678 140.487 324.063 143.735L325.311 153.874L327.991 135.356L341.469 135.592ZM345.618 135.664L362.851 135.965L362.712 143.919L355.814 143.798L355.682 151.335L362.139 151.448L362.007 159.009L355.55 158.896L355.398 167.636L362.984 167.768L362.845 175.722L344.924 175.409L345.618 135.664ZM389.61 136.432L388.916 176.177L379.857 176.019L374.796 157.857L374.481 175.925L365.84 175.774L366.534 136.029L375.175 136.18L380.656 154.177L380.968 136.281L389.61 136.432ZM414.601 136.868L414.462 144.822L408.325 144.715L407.77 176.506L397.435 176.326L397.989 144.534L391.877 144.428L392.016 136.474L414.601 136.868ZM418.541 168.59L418.4 176.692L410.912 176.561L411.053 168.46L418.541 168.59Z" fill="white"/>
<rect width="22.5985" height="22.5985" transform="matrix(0.999848 0.0174524 0.0174524 -0.999848 415.894 186.211)" fill="#1E1E1E"/>
<g filter="url(#filter2_d_2134_6670)">
<path d="M415.894 185.808L427.802 174.11L438.883 163.607L416.288 163.213L415.894 185.808Z" fill="white"/>
</g>
<g filter="url(#filter3_d_2134_6670)">
<path d="M83.5895 62.1744L78.8968 62.7947L78.4813 59.6514C78.3605 58.7374 78.2333 58.1758 78.0998 57.9666C77.9728 57.749 77.7383 57.6628 77.3965 57.708C77.0101 57.7591 76.783 57.9289 76.7154 58.2176C76.6477 58.5063 76.6742 59.1077 76.795 60.0217L77.903 68.4039C78.0189 69.2807 78.1466 69.846 78.286 70.0998C78.4254 70.3536 78.6771 70.4564 79.0413 70.4082C79.3905 70.3621 79.5995 70.1984 79.6682 69.9171C79.7443 69.6348 79.717 68.9996 79.5864 68.0112L79.2873 65.7485L83.9799 65.1282L84.0727 65.8304C84.3193 67.6956 84.3604 69.036 84.196 69.8516C84.0391 70.6663 83.5461 71.427 82.7171 72.1339C81.8956 72.8398 80.8234 73.2802 79.5007 73.455C78.126 73.6367 76.9598 73.5376 76.0023 73.1576C75.0448 72.7776 74.3632 72.1683 73.9574 71.3298C73.5507 70.4838 73.2305 69.1765 72.9967 67.4079L72.2998 62.1356C72.1279 60.8352 72.0438 59.8559 72.0475 59.1976C72.0503 58.5319 72.2311 57.8691 72.5899 57.2092C72.9562 56.5484 73.5069 55.9955 74.242 55.5505C74.9835 55.0971 75.8633 54.8031 76.8813 54.6686C78.2635 54.4859 79.4395 54.6026 80.4094 55.0188C81.3793 55.435 82.0584 56.0257 82.4469 56.7909C82.8344 57.5487 83.1396 58.771 83.3626 60.4578L83.5895 62.1744Z" fill="white"/>
<path d="M95.4628 53.0658L99.6549 70.9857L94.8252 71.3828L94.3218 68.1413L92.6298 68.2804L92.6177 71.5643L87.7321 71.9659L88.6385 53.6269L95.4628 53.0658ZM93.9229 64.9363C93.515 62.9016 93.0674 60.3851 92.5802 57.3867C92.3871 60.8922 92.2968 63.453 92.3093 65.069L93.9229 64.9363Z" fill="white"/>
<path d="M106.578 52.4835L107.058 67.0358L109.935 66.9409L110.055 70.5818L102.448 70.8328L101.847 52.6396L106.578 52.4835Z" fill="white"/>
<path d="M117.601 52.3461L117.42 66.9174L120.301 66.9483L120.256 70.5939L112.638 70.5123L112.864 52.2954L117.601 52.3461Z" fill="white"/>
<path d="M128.592 52.817L127.547 70.9901L122.821 70.7184L123.866 52.5453L128.592 52.817Z" fill="white"/>
<path d="M142.998 54.2623L140.83 72.3359L136.711 71.8418L135.252 63.3323L134.266 71.5485L130.337 71.0772L132.505 53.0036L136.434 53.475L138.093 61.9291L139.069 53.791L142.998 54.2623Z" fill="white"/>
<path d="M157.588 63.9115L152.965 62.8935L153.321 61.2794C153.545 60.2619 153.641 59.6153 153.61 59.3398C153.578 59.0642 153.398 58.8902 153.069 58.8176C152.783 58.7547 152.565 58.8218 152.414 59.0189C152.263 59.2159 152.088 59.7683 151.888 60.676L150.009 69.2077C149.833 70.0056 149.769 70.5439 149.815 70.8227C149.862 71.0942 150.04 71.2638 150.347 71.3315C150.684 71.4056 150.942 71.3129 151.122 71.0532C151.31 70.7951 151.494 70.2524 151.677 69.4253L152.141 67.317L151.208 67.1115L151.802 64.4103L157.216 65.6025L155.114 75.1444L152.205 74.5036L152.057 73.1356C151.621 73.6152 151.131 73.941 150.587 74.1127C150.051 74.2788 149.458 74.2901 148.806 74.1466C148.03 73.9757 147.343 73.6287 146.745 73.1054C146.155 72.5764 145.746 71.9951 145.517 71.3614C145.288 70.7276 145.196 70.0973 145.242 69.4704C145.29 68.8362 145.448 67.9078 145.718 66.6853L146.881 61.4038C147.255 59.7055 147.618 58.4922 147.97 57.7639C148.323 57.0356 149.001 56.4481 150.005 56.0015C151.018 55.5491 152.212 55.4745 153.589 55.7776C154.943 56.0758 156.005 56.6015 156.776 57.3545C157.546 58.1075 157.982 58.8981 158.084 59.7264C158.187 60.5474 158.078 61.6862 157.757 63.1429L157.588 63.9115Z" fill="white"/>
<path d="M175.83 74.2202C175.139 75.9182 174.607 77.1052 174.234 77.7812C173.871 78.4531 173.358 78.9952 172.696 79.4076C172.04 79.8228 171.289 80.0416 170.445 80.064C169.6 80.0865 168.7 79.9043 167.746 79.5176C166.841 79.1507 166.086 78.6743 165.481 78.0884C164.885 77.4985 164.489 76.8188 164.291 76.0494C164.093 75.28 164.094 74.5305 164.294 73.8007C164.493 73.0709 164.948 71.836 165.656 70.0962L166.833 67.2047C167.525 65.5066 168.052 64.3216 168.415 63.6498C168.787 62.9738 169.302 62.4282 169.957 62.013C170.62 61.6006 171.374 61.3832 172.219 61.3608C173.064 61.3383 173.963 61.5205 174.917 61.9072C175.822 62.2741 176.573 62.7526 177.168 63.3426C177.773 63.9284 178.175 64.606 178.373 65.3754C178.571 66.1448 178.57 66.8944 178.37 67.6242C178.17 68.354 177.716 69.5888 177.007 71.3286L175.83 74.2202ZM173.694 66.8841C174.014 66.0977 174.173 65.5783 174.17 65.3259C174.177 65.0693 174.045 64.886 173.773 64.7759C173.544 64.6828 173.329 64.7013 173.13 64.8314C172.941 64.9574 172.669 65.4553 172.315 66.3252L169.101 74.2171C168.702 75.1983 168.494 75.8193 168.477 76.08C168.467 76.3435 168.608 76.5346 168.901 76.6531C169.2 76.7745 169.445 76.7199 169.637 76.4893C169.828 76.2587 170.126 75.6459 170.531 74.6507L173.694 66.8841Z" fill="white"/>
<path d="M193.857 71.1982L188.764 82.2741C188.187 83.5297 187.739 84.3945 187.422 84.8683C187.108 85.3353 186.626 85.7449 185.977 86.097C185.33 86.4424 184.612 86.6013 183.823 86.5738C183.044 86.5426 182.208 86.3195 181.316 85.9045C180.328 85.4451 179.532 84.8757 178.926 84.1965C178.321 83.5172 177.952 82.8277 177.819 82.128C177.686 81.4283 177.719 80.7725 177.918 80.1608C178.119 79.5422 178.65 78.298 179.51 76.4281L184.02 66.6216L188.32 68.6224L182.606 81.0495C182.273 81.7728 182.097 82.2543 182.078 82.4939C182.069 82.7298 182.183 82.9032 182.422 83.0141C182.694 83.1409 182.918 83.1125 183.093 82.9289C183.278 82.7417 183.561 82.2353 183.941 81.4095L189.556 69.1974L193.857 71.1982Z" fill="white"/>
<path d="M206.113 74.4504L205.344 78.0126L202.592 77.4372L199.518 91.6748L194.883 90.7059L197.957 76.4683L195.215 75.8953L195.984 72.3332L206.113 74.4504Z" fill="white"/>
<path d="M223.661 75.618L223.042 93.8106L218.895 93.6694L216.716 85.3152L216.435 93.5856L212.479 93.4509L213.099 75.2583L217.054 75.393L219.427 83.675L219.706 75.4833L223.661 75.618Z" fill="white"/>
<path d="M227.705 75.6727L235.596 75.5198L235.667 79.162L232.508 79.2232L232.575 82.6743L235.531 82.617L235.598 86.0793L232.642 86.1366L232.719 90.1385L236.193 90.0712L236.263 93.7134L228.057 93.8724L227.705 75.6727Z" fill="white"/>
<path d="M256.654 74.1793L255.98 92.4968L250.084 92.9679C249.328 90.2232 248.605 87.0922 247.916 83.575C247.848 85.1071 247.659 88.3109 247.349 93.1864L241.487 93.6549L237.957 75.6732L242.542 75.3069L243.52 81.6024L244.492 87.6728C244.416 84.4977 244.525 80.3151 244.817 75.1251L249.727 74.7328C249.836 75.258 250.164 77.2398 250.712 80.6781L251.768 87.5314C251.685 83.1234 251.786 78.7948 252.07 74.5456L256.654 74.1793Z" fill="white"/>
<path d="M265.414 72.888L268.729 72.3623C270.939 72.0119 272.447 71.8602 273.253 71.9072C274.066 71.9531 274.774 72.2893 275.376 72.916C275.984 73.5341 276.411 74.6105 276.657 76.1451C276.881 77.5463 276.858 78.5155 276.586 79.0527C276.315 79.5898 275.675 79.9878 274.667 80.2464C275.631 80.3293 276.303 80.5381 276.684 80.8731C277.064 81.208 277.318 81.5327 277.444 81.8472C277.577 82.153 277.759 83.0325 277.992 84.4856L278.752 89.2341L274.403 89.9238L273.445 83.9409C273.291 82.9771 273.118 82.3927 272.925 82.1876C272.74 81.9813 272.325 81.9293 271.68 82.0316L272.979 90.1496L268.296 90.8923L265.414 72.888ZM270.59 75.2258L271.231 79.2292C271.758 79.1457 272.113 79.017 272.299 78.8433C272.49 78.6609 272.522 78.1731 272.395 77.3798L272.237 76.3901C272.145 75.8192 271.981 75.4613 271.745 75.3163C271.517 75.1701 271.132 75.1399 270.59 75.2258Z" fill="white"/>
<path d="M292.188 79.1064C292.534 80.9036 292.735 82.1865 292.792 82.955C292.854 83.7147 292.72 84.4477 292.39 85.154C292.068 85.8589 291.559 86.451 290.865 86.9303C290.17 87.4097 289.318 87.7477 288.31 87.9444C287.353 88.1311 286.462 88.1444 285.636 87.9844C284.817 87.8156 284.115 87.4633 283.531 86.9277C282.947 86.3921 282.539 85.7646 282.309 85.0453C282.079 84.326 281.787 83.0456 281.432 81.2042L280.843 78.1438C280.497 76.3466 280.293 75.0681 280.231 74.3084C280.174 73.5399 280.308 72.8032 280.63 72.0984C280.96 71.3921 281.472 70.7992 282.167 70.3199C282.861 69.8405 283.713 69.5025 284.722 69.3058C285.679 69.1191 286.567 69.1102 287.386 69.279C288.211 69.439 288.916 69.7869 289.5 70.3225C290.085 70.8581 290.492 71.4856 290.722 72.2049C290.952 72.9242 291.245 74.2046 291.599 76.046L292.188 79.1064ZM286.408 74.1354C286.247 73.3031 286.097 72.7821 285.958 72.5724C285.824 72.354 285.614 72.2727 285.326 72.3287C285.084 72.3761 284.914 72.5085 284.819 72.7258C284.729 72.9344 284.773 73.499 284.95 74.4197L286.558 82.7723C286.758 83.8108 286.922 84.4438 287.049 84.671C287.185 84.8969 287.407 84.9796 287.716 84.9193C288.033 84.8576 288.208 84.6781 288.243 84.381C288.277 84.0839 288.193 83.4087 287.99 82.3554L286.408 74.1354Z" fill="white"/>
<path d="M306.662 75.8068C307.075 77.5884 307.325 78.8617 307.41 79.6268C307.501 80.3829 307.395 81.1193 307.092 81.836C306.796 82.551 306.31 83.1601 305.635 83.6633C304.959 84.1664 304.121 84.5341 303.12 84.7664C302.171 84.9867 301.281 85.0317 300.451 84.9013C299.626 84.762 298.911 84.4354 298.307 83.9215C297.703 83.4077 297.273 82.7959 297.016 82.0861C296.758 81.3763 296.418 80.1087 295.994 78.2833L295.29 75.2496C294.876 73.468 294.624 72.1992 294.533 71.4431C294.448 70.678 294.553 69.938 294.849 69.2229C295.152 68.5062 295.641 67.8963 296.317 67.3931C296.993 66.89 297.831 66.5223 298.831 66.29C299.78 66.0697 300.667 66.0292 301.492 66.1686C302.323 66.2989 303.04 66.621 303.644 67.1349C304.248 67.6487 304.679 68.2605 304.936 68.9703C305.193 69.6801 305.534 70.9477 305.957 72.7731L306.662 75.8068ZM300.698 71.0507C300.507 70.2256 300.337 69.711 300.19 69.5066C300.048 69.2933 299.834 69.2197 299.55 69.2858C299.309 69.3418 299.145 69.4799 299.057 69.7003C298.975 69.9116 299.04 70.4736 299.252 71.3863L301.175 79.6662C301.414 80.6957 301.601 81.3216 301.737 81.5439C301.881 81.7645 302.106 81.8392 302.413 81.768C302.727 81.6951 302.895 81.5098 302.919 81.212C302.942 80.9142 302.832 80.2432 302.59 79.1991L300.698 71.0507Z" fill="white"/>
<path d="M320.654 69.493L316.088 70.6999L315.295 67.6375C315.064 66.747 314.87 66.2066 314.712 66.0161C314.56 65.8165 314.318 65.7607 313.985 65.8486C313.609 65.948 313.405 66.145 313.373 66.4396C313.342 66.7342 313.441 67.3268 313.672 68.2173L315.788 76.3836C316.009 77.2379 316.204 77.782 316.373 78.0159C316.541 78.2497 316.803 78.3199 317.157 78.2262C317.497 78.1364 317.684 77.9478 317.718 77.6604C317.758 77.3711 317.654 76.745 317.405 75.7821L316.834 73.5777L321.4 72.3708L321.577 73.055C322.048 74.8721 322.251 76.1952 322.188 77.0242C322.132 77.8512 321.737 78.6673 321.003 79.4724C320.276 80.2755 319.269 80.8472 317.982 81.1874C316.645 81.5409 315.479 81.5899 314.486 81.3341C313.493 81.0784 312.744 80.5607 312.241 79.7809C311.736 78.9939 311.26 77.7389 310.814 76.0159L309.483 70.8793C309.154 69.6124 308.952 68.6525 308.876 67.9997C308.797 67.3397 308.896 66.6601 309.17 65.9609C309.452 65.2598 309.93 64.6424 310.602 64.1088C311.281 63.5659 312.115 63.1636 313.106 62.9018C314.451 62.5463 315.628 62.5136 316.638 62.8036C317.648 63.0936 318.391 63.5933 318.869 64.3025C319.344 65.0045 319.795 66.1773 320.221 67.8207L320.654 69.493Z" fill="white"/>
<path d="M333.198 57.6422L332.854 66.2895L338.455 75.0717L333.752 76.4173L329.768 69.4414L331.915 76.9432L327.364 78.2456L322.356 60.7449L326.907 59.4426L328.852 66.2418L328.928 58.8641L333.198 57.6422Z" fill="white"/>
<path d="M340.908 55.3327L346.157 72.7626L341.625 74.1276L336.376 56.6977L340.908 55.3327Z" fill="white"/>
<path d="M343.783 54.3756L351.329 52.0221L352.421 55.5027L349.4 56.4447L350.435 59.7427L353.262 58.861L354.301 62.1697L351.474 63.0514L352.674 66.8757L355.995 65.8398L357.087 69.3204L349.241 71.7677L343.783 54.3756Z" fill="white"/>
</g>
<path d="M138.107 81.7195L74.5626 80.7556C67.3354 80.646 60.7599 76.5531 57.4707 70.1168L56.6414 68.4939C54.0952 63.5114 54.2938 57.569 57.167 52.7676C59.4074 49.0238 63.0602 46.3392 67.3022 45.3188L74.7669 43.5231C77.9986 42.7457 81.3256 42.4392 84.6448 42.6132L133.205 45.1581C137.171 45.366 141.108 45.9514 144.963 46.9065L167.615 52.5189L207.989 59.7807L240.493 61.4841C244.813 61.7105 249.145 61.4877 253.419 60.8193L298.251 53.8078L339.82 43.6083C345.637 42.1809 351.734 42.3685 357.453 44.1508L362.415 45.6975C366.391 46.9366 369.821 49.5013 372.134 52.9638L372.993 54.2493C376.745 59.8649 376.569 67.2311 372.552 72.6603C370.431 75.5273 367.413 77.6037 363.977 78.5602L314.72 92.2727C311.688 93.1167 308.597 93.7304 305.473 94.1087L250.289 100.791C246.713 101.224 243.105 101.347 239.507 101.158L199.158 99.0436C191.28 98.6307 183.551 96.7298 176.38 93.4414L163.207 87.4001C155.325 83.7856 146.777 81.851 138.107 81.7195Z" stroke="white" stroke-width="1.49809"/>
<path d="M154.372 15.3415L147.82 15.2271L148.077 0.522323L154.628 0.636684L154.623 0.958901L148.384 0.849994L148.278 6.92329L152.925 7.00441L152.92 7.32663L148.272 7.2455L148.138 14.9299L154.377 15.0388L154.372 15.3415ZM162.81 15.4888L160.418 15.447C159.103 15.4241 158.088 15.0417 157.371 14.2999C156.655 13.5581 156.308 12.533 156.331 11.2247L156.443 4.82914C156.466 3.52075 156.848 2.50839 157.59 1.79206C158.338 1.06933 159.366 0.719386 160.675 0.742224L163.067 0.78398L163.061 1.1062L160.669 1.06444C159.445 1.04308 158.492 1.36178 157.81 2.02055C157.128 2.67281 156.777 3.61082 156.755 4.8346L156.644 11.2301C156.622 12.4604 156.937 13.4166 157.59 14.0986C158.249 14.7743 159.193 15.1229 160.423 15.1443L162.816 15.1861L162.81 15.4888ZM172.273 12.3429C172.259 13.1436 171.967 13.8677 171.395 14.5154C170.738 15.2527 169.892 15.6124 168.857 15.5943C168.056 15.5803 167.209 15.4158 166.316 15.1007C165.423 14.7856 164.649 14.3814 163.993 13.8881L164.183 13.6374C166.534 14.7268 168.094 15.2782 168.862 15.2916C169.799 15.308 170.564 14.9795 171.155 14.3061C171.673 13.7226 171.938 13.0663 171.951 12.3373C171.965 11.5236 171.697 10.832 171.147 10.2624C170.962 10.0768 170.715 9.88042 170.406 9.67318C170.103 9.46604 169.733 9.24795 169.294 9.01891L166.913 7.77599C166.655 7.64126 166.387 7.49333 166.11 7.33222C165.839 7.17122 165.556 6.99373 165.26 6.79973C164.464 6.11517 164.076 5.23586 164.095 4.1618C164.109 3.3286 164.392 2.59775 164.944 1.96925C165.608 1.2125 166.516 0.844184 167.668 0.864295C169.178 0.890656 170.481 1.23571 171.577 1.89946L171.396 2.16002C169.636 1.52374 168.392 1.19924 167.663 1.18651C166.602 1.16799 165.772 1.49862 165.174 2.17839C164.676 2.74921 164.42 3.41216 164.407 4.16726C164.385 5.45612 165.038 6.45075 166.367 7.15114C166.793 7.36694 167.319 7.63657 167.945 7.96005C168.577 8.28363 169.316 8.66768 170.161 9.11219C171.593 9.91203 172.297 10.9889 172.273 12.3429ZM189.277 5.40226C189.249 6.97103 188.706 8.09778 187.645 8.78251C186.881 9.27055 185.946 9.50492 184.84 9.4856L181.198 9.42203L181.089 15.6613L180.776 15.6559L181.03 1.09753L184.985 1.16656C186.098 1.18599 187.024 1.45936 187.764 1.98667C188.799 2.721 189.304 3.85953 189.277 5.40226ZM188.955 5.39664C188.979 3.97107 188.519 2.92121 187.574 2.24706C186.892 1.75983 186.027 1.50707 184.979 1.48877L181.337 1.4252L181.203 9.09981L184.845 9.16338C185.893 9.18168 186.766 8.96576 187.464 8.51564C188.433 7.8814 188.929 6.84173 188.955 5.39664ZM196.072 7.92358L195.75 7.91796L195.775 6.47287L191.293 6.39464L191.129 15.8366L190.816 15.8311L190.986 6.07673L196.103 6.16604L196.072 7.92358ZM205.228 12.879C205.211 13.8164 204.872 14.6049 204.21 15.2445C203.541 15.8774 202.741 16.1858 201.81 16.1695C200.873 16.1532 200.084 15.8171 199.445 15.1613C198.805 14.499 198.494 13.6991 198.51 12.7618L198.566 9.56892C198.582 8.63156 198.921 7.84309 199.584 7.20351C200.246 6.56393 201.046 6.25232 201.983 6.26868C202.92 6.28504 203.709 6.62438 204.349 7.28668C204.988 7.94899 205.3 8.74882 205.283 9.68617L205.228 12.879ZM204.905 12.8734L204.961 9.68055C204.976 8.83432 204.692 8.10986 204.11 7.50717C203.535 6.90458 202.824 6.59591 201.978 6.58113C201.131 6.56636 200.407 6.84999 199.804 7.43201C199.202 8.01402 198.893 8.72814 198.878 9.57437L198.822 12.7672C198.808 13.6135 199.091 14.3379 199.673 14.9406C200.255 15.5433 200.969 15.8521 201.816 15.8668C202.662 15.8816 203.383 15.5979 203.979 15.0158C204.582 14.4338 204.891 13.7196 204.905 12.8734ZM213.608 16.3754L209.849 16.3098C209.022 16.2954 208.327 16 207.764 15.4237C207.201 14.8409 206.927 14.1361 206.941 13.3094L207.06 6.51357L207.373 6.51903L207.254 13.3149C207.241 14.0504 207.487 14.6798 207.993 15.203C208.498 15.7263 209.118 15.9943 209.854 16.0071L213.291 16.0671L213.456 6.62521L213.778 6.63083L213.608 16.3754ZM222.046 16.5227L218.287 16.4571C217.46 16.4427 216.766 16.1473 216.203 15.571C215.64 14.9882 215.366 14.2834 215.38 13.4567L215.45 9.46318C215.464 8.63648 215.763 7.94172 216.346 7.37889C216.928 6.81606 217.633 6.54186 218.46 6.55629L221.897 6.61628L221.978 1.96855L222.3 1.97417L222.046 16.5227ZM221.729 16.2144L221.891 6.92873L218.454 6.86874C217.719 6.8559 217.089 7.10211 216.566 7.60738C216.043 8.11265 215.775 8.73307 215.762 9.46863L215.692 13.4622C215.68 14.1977 215.926 14.8271 216.431 15.3503C216.936 15.8736 217.557 16.1416 218.292 16.1544L221.729 16.2144ZM227.927 16.6254C227.425 16.6166 227.008 16.4401 226.676 16.0957C226.343 15.7513 226.181 15.335 226.19 14.8468L226.413 2.04597L226.735 2.05159L226.512 14.8524C226.505 15.256 226.639 15.6001 226.914 15.8849C227.189 16.1697 227.528 16.3156 227.932 16.3227L227.927 16.6254ZM239.083 7.12137L233.997 21.5367L232.278 21.5068L232.284 21.1845L233.768 21.2104L235.391 16.6092L232.375 7.00428L232.689 6.91209L235.576 16.1045L238.782 7.01845L239.083 7.12137ZM256.785 6.58063C256.758 8.1494 256.214 9.27615 255.154 9.96087C254.39 10.4489 253.455 10.6833 252.348 10.664L248.706 10.6004L248.597 16.8397L248.285 16.8342L248.539 2.27589L252.493 2.34492C253.606 2.36435 254.533 2.63772 255.272 3.16503C256.308 3.89936 256.812 5.03789 256.785 6.58063ZM256.463 6.575C256.488 5.14944 256.028 4.09958 255.082 3.42543C254.401 2.93819 253.536 2.68543 252.488 2.66714L248.846 2.60357L248.712 10.2782L252.354 10.3417C253.402 10.36 254.275 10.1441 254.973 9.694C255.941 9.05976 256.438 8.0201 256.463 6.575ZM263.581 9.10195L263.258 9.09633L263.284 7.65123L258.802 7.573L258.637 17.0149L258.325 17.0095L258.495 7.2551L263.611 7.3444L263.581 9.10195ZM272.761 12.6221L266.356 12.5103L266.331 13.9456C266.31 15.1629 266.539 16.0003 267.019 16.458C267.417 16.8296 268.104 17.0239 269.08 17.0409L272.517 17.1009L272.512 17.4036L269.075 17.3436C268.007 17.325 267.249 17.1066 266.801 16.6886C266.256 16.1842 265.995 15.2681 266.018 13.9402L266.074 10.7473C266.09 9.80992 266.43 9.02146 267.092 8.38187C267.754 7.74229 268.554 7.43069 269.492 7.44705C270.429 7.46341 271.217 7.80274 271.857 8.46505C272.497 9.12735 272.808 9.92718 272.792 10.8645L272.761 12.6221ZM272.445 12.2942L272.47 10.8589C272.484 10.0127 272.201 9.28823 271.619 8.68553C271.043 8.08295 270.332 7.77427 269.486 7.7595C268.64 7.74473 267.915 8.02835 267.313 8.61037C266.71 9.19239 266.401 9.90651 266.387 10.7527L266.361 12.1881L272.445 12.2942ZM281.154 15.4057C281.129 16.8378 279.997 17.5343 277.757 17.4952C276.833 17.479 275.751 17.1932 274.51 16.6376L274.632 16.3467C275.912 16.8965 276.955 17.1784 277.763 17.1925C278.661 17.2082 279.333 17.1287 279.779 16.9542C280.467 16.6862 280.818 16.1682 280.831 15.4001C280.842 14.7882 280.574 14.2789 280.028 13.8721C279.938 13.799 279.761 13.6917 279.496 13.5503C279.238 13.4026 278.887 13.2206 278.441 13.0045L276.108 11.8308C275.585 11.5612 275.206 11.2908 274.97 11.0198C274.67 10.6694 274.524 10.2274 274.534 9.69359C274.559 8.255 275.424 7.5506 277.129 7.58037C278.184 7.59877 279.211 7.88692 280.211 8.44482L280.049 8.72525C278.548 8.17814 277.573 7.90066 277.124 7.89282C275.627 7.86669 274.868 8.46876 274.846 9.69904C274.836 10.2979 275.104 10.7975 275.65 11.1977C275.708 11.2443 275.869 11.3382 276.134 11.4796C276.398 11.6144 276.766 11.7999 277.237 12.0361C277.418 12.1239 277.638 12.2319 277.896 12.3601C278.161 12.4884 278.47 12.6403 278.825 12.8158C279.581 13.1937 280.103 13.5023 280.392 13.7418C280.911 14.1741 281.165 14.7287 281.154 15.4057ZM289.638 12.9167L283.233 12.8049L283.208 14.2402C283.187 15.4575 283.416 16.2949 283.897 16.7526C284.294 17.1242 284.981 17.3185 285.957 17.3355L289.394 17.3955L289.389 17.6982L285.952 17.6382C284.884 17.6196 284.126 17.4012 283.678 16.9832C283.133 16.4788 282.872 15.5627 282.895 14.2347L282.951 11.0419C282.968 10.1045 283.307 9.31605 283.969 8.67647C284.632 8.03689 285.431 7.72528 286.369 7.74164C287.306 7.758 288.095 8.09733 288.734 8.75964C289.374 9.42194 289.685 10.2218 289.669 11.1591L289.638 12.9167ZM289.322 12.5888L289.347 11.1535C289.361 10.3073 289.078 9.58282 288.496 8.98012C287.92 8.37754 287.209 8.06886 286.363 8.05409C285.517 8.03932 284.793 8.32294 284.19 8.90496C283.587 9.48698 283.278 10.2011 283.264 11.0473L283.239 12.4827L289.322 12.5888ZM297.996 17.7019L297.674 17.6963L297.792 10.9005C297.805 10.1649 297.559 9.53551 297.054 9.01229C296.555 8.48919 295.938 8.22121 295.202 8.20837L291.755 8.14821L291.591 17.5901L291.278 17.5847L291.448 7.8303L295.208 7.89592C296.034 7.91035 296.729 8.20898 297.292 8.79181C297.855 9.37464 298.129 10.0794 298.114 10.9061L297.996 17.7019ZM305.633 8.39044L302.596 8.33743L302.431 17.7794L302.109 17.7737L302.274 8.33181L300.838 8.30675L300.844 7.9943L302.279 8.01936L302.36 3.37163L302.683 3.37725L302.601 8.02498L305.638 8.07799L305.633 8.39044Z" fill="white"/>
<defs>
<filter id="filter0_d_2134_6670" x="0.37296" y="108.271" width="27.0324" height="29.0016" filterUnits="userSpaceOnUse" color-interpolation-filters="sRGB">
<feFlood flood-opacity="0" result="BackgroundImageFix"/>
<feColorMatrix in="SourceAlpha" type="matrix" values="0 0 0 0 0 0 0 0 0 0 0 0 0 0 0 0 0 0 127 0" result="hardAlpha"/>
<feOffset dy="1.61418"/>
<feGaussianBlur stdDeviation="1.12993"/>
<feComposite in2="hardAlpha" operator="out"/>
<feColorMatrix type="matrix" values="0 0 0 0 0 0 0 0 0 0 0 0 0 0 0 0 0 0 0.25 0"/>
<feBlend mode="normal" in2="BackgroundImageFix" result="effect1_dropShadow_2134_6670"/>
<feBlend mode="normal" in="SourceGraphic" in2="effect1_dropShadow_2134_6670" result="shape"/>
</filter>
<filter id="filter1_d_2134_6670" x="119.981" y="116.108" width="324.939" height="75.7699" filterUnits="userSpaceOnUse" color-interpolation-filters="sRGB">
<feFlood flood-opacity="0" result="BackgroundImageFix"/>
<feColorMatrix in="SourceAlpha" type="matrix" values="0 0 0 0 0 0 0 0 0 0 0 0 0 0 0 0 0 0 127 0" result="hardAlpha"/>
<feOffset dx="-0.998726" dy="-0.998726"/>
<feGaussianBlur stdDeviation="3.42063"/>
<feComposite in2="hardAlpha" operator="out"/>
<feColorMatrix type="matrix" values="0 0 0 0 0 0 0 0 0 0 0 0 0 0 0 0 0 0 0.25 0"/>
<feBlend mode="normal" in2="BackgroundImageFix" result="effect1_dropShadow_2134_6670"/>
<feBlend mode="normal" in="SourceGraphic" in2="effect1_dropShadow_2134_6670" result="shape"/>
</filter>
<filter id="filter2_d_2134_6670" x="413.23" y="159.742" width="27.509" height="27.1149" filterUnits="userSpaceOnUse" color-interpolation-filters="sRGB">
<feFlood flood-opacity="0" result="BackgroundImageFix"/>
<feColorMatrix in="SourceAlpha" type="matrix" values="0 0 0 0 0 0 0 0 0 0 0 0 0 0 0 0 0 0 127 0" result="hardAlpha"/>
<feOffset dx="-0.403545" dy="-1.21064"/>
<feGaussianBlur stdDeviation="1.12993"/>
<feComposite in2="hardAlpha" operator="out"/>
<feColorMatrix type="matrix" values="0 0 0 0 0 0 0 0 0 0 0 0 0 0 0 0 0 0 0.25 0"/>
<feBlend mode="normal" in2="BackgroundImageFix" result="effect1_dropShadow_2134_6670"/>
<feBlend mode="normal" in="SourceGraphic" in2="effect1_dropShadow_2134_6670" result="shape"/>
</filter>
<filter id="filter3_d_2134_6670" x="64.2174" y="46.2355" width="300.061" height="56.326" filterUnits="userSpaceOnUse" color-interpolation-filters="sRGB">
<feFlood flood-opacity="0" result="BackgroundImageFix"/>
<feColorMatrix in="SourceAlpha" type="matrix" values="0 0 0 0 0 0 0 0 0 0 0 0 0 0 0 0 0 0 127 0" result="hardAlpha"/>
<feOffset dy="1.49809"/>
<feGaussianBlur stdDeviation="3.59541"/>
<feComposite in2="hardAlpha" operator="out"/>
<feColorMatrix type="matrix" values="0 0 0 0 1 0 0 0 0 1 0 0 0 0 1 0 0 0 0.4 0"/>
<feBlend mode="normal" in2="BackgroundImageFix" result="effect1_dropShadow_2134_6670"/>
<feBlend mode="normal" in="SourceGraphic" in2="effect1_dropShadow_2134_6670" result="shape"/>
</filter>
</defs>
</svg>
