<svg width="24" height="25" viewBox="0 0 24 25" fill="none" xmlns="http://www.w3.org/2000/svg">
<g clip-path="url(#clip0_826_743)">
<path d="M14 8.91785V6.91785C14 6.38741 13.7893 5.87871 13.4142 5.50363C13.0391 5.12856 12.5304 4.91785 12 4.91785H5C4.46957 4.91785 3.96086 5.12856 3.58579 5.50363C3.21071 5.87871 3 6.38741 3 6.91785V18.9178C3 19.4483 3.21071 19.957 3.58579 20.3321C3.96086 20.7071 4.46957 20.9178 5 20.9178H12C12.5304 20.9178 13.0391 20.7071 13.4142 20.3321C13.7893 19.957 14 19.4483 14 18.9178V16.9178M7 12.9178H21M21 12.9178L18 9.91785M21 12.9178L18 15.9178" stroke="#323231" stroke-width="2" stroke-linecap="round" stroke-linejoin="round"/>
</g>
<defs>
<clipPath id="clip0_826_743">
<rect width="24" height="24" fill="white" transform="translate(0 0.917847)"/>
</clipPath>
</defs>
</svg>
