<svg width="363" height="137" viewBox="0 0 363 137" fill="none" xmlns="http://www.w3.org/2000/svg">
<path d="M0.999483 75.3486C0.746143 72.4529 2.88819 69.9001 5.78387 69.6468L98.7478 61.5135C101.643 61.2601 104.197 63.4055 104.45 66.3011C105.609 79.5469 106.415 88.7674 107.574 102.013C107.828 104.909 105.686 107.465 102.79 107.718L9.82627 115.852C6.93059 116.105 4.3778 113.963 4.12446 111.067L0.999483 75.3486Z" fill="#C39815"/>
<path d="M34.459 92.1014C34.7353 95.2585 34.8535 97.5037 34.8137 98.8371C34.7857 100.156 34.4246 101.394 33.7304 102.55C33.0491 103.705 32.0676 104.631 30.7859 105.33C29.5041 106.029 27.9769 106.456 26.2043 106.611C24.5222 106.758 22.9846 106.619 21.5914 106.193C20.21 105.754 19.0636 105.019 18.1523 103.991C17.2409 102.963 16.651 101.808 16.3825 100.528C16.114 99.2475 15.8383 96.99 15.5553 93.7553L15.085 88.3791C14.8087 85.222 14.6846 82.9839 14.7126 81.6646C14.7524 80.3312 15.113 79.0872 15.7942 77.9324C16.4884 76.7764 17.4764 75.8491 18.7581 75.1502C20.0399 74.4514 21.5671 74.0244 23.3397 73.8693C25.0218 73.7222 26.5535 73.8685 27.9349 74.3082C29.3281 74.7339 30.4804 75.461 31.3917 76.4895C32.3031 77.518 32.893 78.6724 33.1615 79.9527C33.43 81.233 33.7057 83.4906 33.9887 86.7253L34.459 92.1014ZM25.3848 82.491C25.2569 81.0289 25.0913 80.1047 24.888 79.7183C24.6965 79.3178 24.3484 79.1397 23.8438 79.1838C23.4168 79.2212 23.1016 79.4182 22.8981 79.775C22.7065 80.1177 22.6814 81.0978 22.8229 82.7151L24.1066 97.3879C24.2662 99.2123 24.4358 100.332 24.6155 100.746C24.8081 101.16 25.1762 101.343 25.7196 101.295C26.276 101.246 26.6103 100.969 26.7225 100.464C26.8348 99.9589 26.81 98.7811 26.6481 96.9308L25.3848 82.491ZM35.9159 73.434L44.145 72.714C46.3705 72.5193 48.0937 72.5446 49.3146 72.7898C50.5485 73.0338 51.4919 73.4598 52.1449 74.0676C52.8107 74.6743 53.2885 75.4408 53.5781 76.3673C53.8796 77.2796 54.1164 78.7192 54.2884 80.6859L54.5279 83.4225C54.7033 85.428 54.6242 86.9082 54.2905 87.8631C53.9569 88.818 53.2552 89.5899 52.1854 90.179C51.1286 90.7669 49.7075 91.1389 47.9219 91.2951L45.7287 91.487L46.8359 104.141L38.6649 104.856L35.9159 73.434ZM44.5571 78.0952L45.2567 86.0915C45.4907 86.084 45.6919 86.073 45.8601 86.0582C46.6105 85.9926 47.1122 85.7662 47.3652 85.379C47.6299 84.9777 47.7114 84.1948 47.6095 83.0303L47.3837 80.449C47.2897 79.3751 47.0604 78.6911 46.6957 78.3971C46.331 78.103 45.6181 78.0024 44.5571 78.0952ZM55.8676 71.6884L69.4923 70.4964L70.0425 76.7847L64.5887 77.2619L65.11 83.2202L70.2144 82.7737L70.7374 88.7514L65.633 89.198L66.2375 96.1074L72.2347 95.5827L72.7848 101.871L58.6167 103.111L55.8676 71.6884ZM90.6474 68.6456L93.3965 100.068L86.2348 100.694L80.7347 86.7816L81.9844 101.066L75.1526 101.664L72.4036 70.2417L79.2353 69.644L85.0535 83.392L83.8157 69.2433L90.6474 68.6456Z" fill="white"/>
<rect width="18.9641" height="18.4209" transform="matrix(-0.996195 0.0871557 0.0871557 0.996195 18.8918 68.4175)" fill="#1E1E1E"/>
<g filter="url(#filter0_d_2100_5584)">
<path d="M18.8918 68.4175L10.2345 78.9159L2.14649 88.3738L20.4973 86.7683L18.8918 68.4175Z" fill="white"/>
</g>
<g filter="url(#filter1_d_2100_5584)">
<path d="M104.818 85.8414C104.869 82.9351 107.266 80.6202 110.172 80.671L352.738 84.9049C355.644 84.9557 357.959 87.3561 357.908 90.2624C357.676 103.557 357.514 112.811 357.282 126.105C357.232 129.012 354.834 131.33 351.928 131.279L109.363 127.045C106.457 126.994 104.142 124.597 104.193 121.691L104.818 85.8414Z" fill="#C39815"/>
</g>
<path d="M115.325 86.744L121.288 86.8481C125.264 86.9175 127.949 87.1178 129.345 87.4491C130.753 87.7806 131.887 88.5877 132.745 89.8705C133.617 91.1401 134.029 93.1557 133.981 95.9172C133.937 98.4386 133.594 100.127 132.952 100.984C132.31 101.84 131.067 102.338 129.222 102.48C130.883 102.922 131.994 103.496 132.555 104.199C133.117 104.903 133.459 105.55 133.582 106.139C133.719 106.715 133.765 108.311 133.719 110.925L133.57 119.47L125.746 119.334L125.934 108.568C125.964 106.833 125.842 105.757 125.57 105.339C125.31 104.92 124.6 104.701 123.439 104.681L123.184 119.289L114.76 119.142L115.325 86.744ZM123.653 92.4341L123.527 99.638C124.474 99.6546 125.137 99.5393 125.515 99.2924C125.906 99.0323 126.115 98.1886 126.14 96.7611L126.171 94.9802C126.189 93.9529 126.014 93.276 125.646 92.9493C125.291 92.6228 124.627 92.4511 123.653 92.4341ZM137.417 87.1296L151.465 87.3748L151.352 93.8584L145.729 93.7602L145.621 99.9036L150.884 99.9954L150.777 106.159L145.514 106.067L145.389 113.191L151.573 113.299L151.46 119.782L136.852 119.527L137.417 87.1296ZM173.891 101.898L165.466 101.751L165.565 96.1082C165.593 94.4673 165.518 93.4451 165.338 93.0416C165.172 92.625 164.782 92.4113 164.168 92.4006C163.474 92.3885 163.03 92.6276 162.834 93.118C162.639 93.6083 162.527 94.674 162.498 96.3149L162.236 111.363C162.208 112.937 162.284 113.966 162.462 114.45C162.64 114.933 163.056 115.181 163.71 115.192C164.337 115.203 164.748 114.97 164.943 114.493C165.152 114.016 165.272 112.891 165.303 111.116L165.374 107.054L173.798 107.201L173.776 108.462C173.718 111.81 173.436 114.181 172.931 115.573C172.44 116.966 171.371 118.175 169.725 119.2C168.093 120.226 166.089 120.718 163.715 120.677C161.247 120.634 159.22 120.151 157.635 119.23C156.049 118.308 155.01 117.055 154.517 115.472C154.025 113.875 153.806 111.49 153.862 108.314L154.027 98.8493C154.068 96.5147 154.178 94.7684 154.359 93.6106C154.539 92.4394 155.032 91.3204 155.838 90.2535C156.658 89.1869 157.773 88.359 159.185 87.7698C160.61 87.1674 162.236 86.8822 164.064 86.9141C166.545 86.9575 168.584 87.4735 170.182 88.4622C171.779 89.4509 172.819 90.67 173.301 92.1197C173.783 93.556 173.997 95.7883 173.945 98.8166L173.891 101.898ZM177.159 87.8233L183.122 87.9274C187.098 87.9968 189.783 88.1971 191.179 88.5284C192.587 88.8599 193.721 89.667 194.579 90.9498C195.451 92.2194 195.863 94.235 195.815 96.9965C195.771 99.5179 195.428 101.207 194.786 102.063C194.144 102.919 192.9 103.418 191.056 103.559C192.717 104.002 193.828 104.575 194.389 105.279C194.951 105.982 195.293 106.629 195.416 107.218C195.553 107.794 195.599 109.39 195.553 112.005L195.404 120.549L187.579 120.413L187.767 109.647C187.798 107.913 187.676 106.836 187.403 106.418C187.144 106 186.434 105.78 185.273 105.76L185.018 120.368L176.593 120.221L177.159 87.8233ZM185.487 93.5134L185.361 100.717C186.308 100.734 186.971 100.619 187.349 100.372C187.74 100.112 187.949 99.2679 187.973 97.8404L188.005 96.0595C188.023 95.0322 187.848 94.3553 187.48 94.0286C187.125 93.7021 186.461 93.5304 185.487 93.5134ZM218.402 88.5432L218.024 110.195C217.981 112.65 217.871 114.376 217.693 115.374C217.516 116.358 217.024 117.37 216.219 118.411C215.414 119.437 214.359 120.213 213.056 120.737C211.766 121.249 210.247 121.489 208.499 121.459C206.565 121.425 204.863 121.075 203.393 120.409C201.923 119.742 200.831 118.889 200.115 117.849C199.399 116.809 198.984 115.721 198.871 114.585C198.757 113.435 198.733 111.033 198.796 107.377L199.131 88.2068L207.556 88.3539L207.132 112.647C207.107 114.061 207.164 114.97 207.304 115.373C207.458 115.762 207.768 115.961 208.235 115.969C208.768 115.979 209.112 115.771 209.266 115.347C209.434 114.909 209.532 113.883 209.56 112.269L209.977 88.3961L218.402 88.5432ZM230.088 88.7472L229.522 121.145L221.098 120.998L221.663 88.6001L230.088 88.7472ZM250.439 89.1024L250.326 95.586L245.323 95.4986L244.871 121.413L236.446 121.266L236.899 95.3516L231.916 95.2646L232.029 88.7811L250.439 89.1024ZM278.354 89.5897L277.789 121.987L270.425 121.859L270.807 99.9869L267.483 121.808L262.26 121.716L259.532 100.291L259.159 121.662L251.795 121.534L252.36 89.1359L263.266 89.3263C263.552 91.2796 263.853 93.5802 264.167 96.2279L265.183 104.493L267.368 89.3979L278.354 89.5897ZM281.736 89.6487L295.784 89.8939L295.671 96.3775L290.048 96.2793L289.941 102.423L295.203 102.515L295.096 108.678L289.833 108.586L289.709 115.71L295.892 115.818L295.779 122.301L281.171 122.046L281.736 89.6487ZM317.596 90.2746L317.03 122.672L309.646 122.544L305.521 107.739L305.264 122.467L298.22 122.344L298.786 89.9463L305.83 90.0693L310.297 104.74L310.552 90.1517L317.596 90.2746ZM337.967 90.6302L337.854 97.1138L332.851 97.0264L332.399 122.941L323.974 122.794L324.427 96.8794L319.444 96.7924L319.557 90.3089L337.967 90.6302ZM341.179 116.488L341.064 123.092L334.96 122.985L335.076 116.382L341.179 116.488Z" fill="white"/>
<rect width="18.4209" height="18.4209" transform="matrix(0.999848 0.0174524 0.0174524 -0.999848 339.011 131.424)" fill="#1E1E1E"/>
<g filter="url(#filter2_d_2100_5584)">
<path d="M339.011 131.095L348.718 121.559L357.75 112.999L339.332 112.677L339.011 131.095Z" fill="white"/>
</g>
<g filter="url(#filter3_d_2100_5584)">
<path d="M68.1708 30.5658L64.3456 31.0715L64.0069 28.5092C63.9084 27.7642 63.8048 27.3064 63.696 27.1359C63.5924 26.9585 63.4013 26.8883 63.1227 26.9251C62.8077 26.9667 62.6226 27.1052 62.5674 27.3405C62.5122 27.5759 62.5339 28.0661 62.6324 28.8111L63.5355 35.6437C63.63 36.3585 63.7341 36.8193 63.8477 37.0262C63.9613 37.233 64.1666 37.3168 64.4634 37.2776C64.7481 37.24 64.9184 37.1065 64.9744 36.8772C65.0364 36.6472 65.0142 36.1293 64.9077 35.3237L64.6639 33.4792L68.4891 32.9736L68.5647 33.546C68.7657 35.0664 68.7992 36.159 68.6652 36.8239C68.5373 37.4879 68.1354 38.108 67.4597 38.6842C66.79 39.2596 65.9161 39.6186 64.8379 39.7611C63.7173 39.9093 62.7667 39.8284 61.9862 39.5187C61.2057 39.2089 60.6501 38.7123 60.3193 38.0287C59.9878 37.3392 59.7268 36.2735 59.5362 34.8319L58.9681 30.5343C58.828 29.4742 58.7595 28.6759 58.7625 28.1393C58.7647 27.5967 58.9121 27.0564 59.2046 26.5185C59.5032 25.9799 59.9521 25.5292 60.5513 25.1664C61.1557 24.7969 61.8729 24.5573 62.7027 24.4476C63.8294 24.2986 64.788 24.3938 65.5786 24.733C66.3691 25.0723 66.9228 25.5538 67.2394 26.1775C67.5553 26.7952 67.8041 27.7916 67.9858 29.1666L68.1708 30.5658Z" fill="white"/>
<path d="M77.8365 23.1424L81.2536 37.7496L77.3168 38.0733L76.9064 35.431L75.5272 35.5444L75.5174 38.2212L71.5349 38.5486L72.2738 23.5997L77.8365 23.1424ZM76.5813 32.8185C76.2488 31.1599 75.8839 29.1086 75.4868 26.6645C75.3294 29.522 75.2558 31.6094 75.266 32.9267L76.5813 32.8185Z" fill="white"/>
<path d="M86.8844 22.6686L87.2758 34.5308L89.6208 34.4534L89.7187 37.4213L83.5174 37.6259L83.028 22.7959L86.8844 22.6686Z" fill="white"/>
<path d="M95.8586 22.5568L95.7115 34.4344L98.0596 34.4596L98.0228 37.4313L91.8133 37.3647L91.9972 22.5154L95.8586 22.5568Z" fill="white"/>
<path d="M104.806 22.9402L103.954 37.7538L100.102 37.5324L100.954 22.7188L104.806 22.9402Z" fill="white"/>
<path d="M116.534 24.1167L114.766 38.8492L111.409 38.4464L110.219 31.51L109.416 38.2074L106.213 37.8232L107.98 23.0907L111.183 23.4749L112.535 30.3662L113.331 23.7325L116.534 24.1167Z" fill="white"/>
<path d="M128.402 31.978L124.634 31.1481L124.924 29.8324C125.107 29.003 125.185 28.476 125.159 28.2514C125.134 28.0268 124.987 27.8849 124.718 27.8258C124.486 27.7745 124.308 27.8292 124.185 27.9898C124.062 28.1504 123.919 28.6007 123.756 29.3406L122.224 36.2951C122.081 36.9455 122.028 37.3843 122.066 37.6116C122.105 37.8329 122.249 37.9711 122.5 38.0263C122.774 38.0867 122.985 38.0111 123.132 37.7994C123.284 37.589 123.435 37.1467 123.584 36.4725L123.962 34.754L123.201 34.5864L123.686 32.3846L128.099 33.3564L126.386 41.1344L124.014 40.612L123.893 39.4969C123.538 39.8879 123.139 40.1534 122.695 40.2934C122.259 40.4288 121.775 40.438 121.244 40.321C120.611 40.1817 120.051 39.8988 119.563 39.4723C119.083 39.0411 118.749 38.5672 118.562 38.0507C118.376 37.5341 118.301 37.0203 118.339 36.5093C118.378 35.9923 118.507 35.2355 118.726 34.239L119.674 29.9338C119.979 28.5495 120.275 27.5605 120.562 26.9668C120.85 26.3731 121.402 25.8943 122.221 25.5302C123.046 25.1615 124.02 25.1006 125.142 25.3477C126.246 25.5908 127.112 26.0193 127.74 26.6331C128.368 27.2469 128.724 27.8914 128.806 28.5665C128.89 29.2357 128.802 30.164 128.54 31.3515L128.402 31.978Z" fill="white"/>
<path d="M143.231 40.3686C142.668 41.7528 142.234 42.7204 141.93 43.2714C141.634 43.819 141.216 44.2609 140.676 44.5971C140.142 44.9355 139.53 45.1139 138.841 45.1322C138.153 45.1505 137.42 45.002 136.642 44.6868C135.904 44.3877 135.288 43.9993 134.795 43.5218C134.31 43.0409 133.986 42.4868 133.825 41.8597C133.664 41.2326 133.665 40.6215 133.827 40.0267C133.99 39.4318 134.36 38.4252 134.938 37.007L135.898 34.65C136.461 33.2658 136.891 32.2999 137.187 31.7523C137.49 31.2013 137.91 30.7565 138.444 30.4181C138.985 30.0819 139.599 29.9047 140.288 29.8864C140.976 29.8681 141.709 30.0166 142.487 30.3318C143.225 30.6309 143.837 31.021 144.322 31.5019C144.815 31.9794 145.143 32.5318 145.304 33.1589C145.465 33.786 145.464 34.3971 145.301 34.9919C145.139 35.5868 144.768 36.5934 144.191 38.0116L143.231 40.3686ZM141.49 34.3887C141.751 33.7477 141.88 33.3243 141.878 33.1185C141.884 32.9094 141.776 32.76 141.555 32.6702C141.367 32.5943 141.193 32.6094 141.03 32.7155C140.876 32.8182 140.655 33.2241 140.366 33.9332L137.746 40.3661C137.421 41.166 137.251 41.6721 137.237 41.8847C137.229 42.0995 137.344 42.2552 137.583 42.3518C137.827 42.4508 138.027 42.4063 138.183 42.2183C138.339 42.0303 138.582 41.5308 138.912 40.7196L141.49 34.3887Z" fill="white"/>
<path d="M157.916 37.9006L153.764 46.929C153.293 47.9526 152.929 48.6574 152.67 49.0437C152.415 49.4243 152.022 49.7582 151.492 50.0453C150.965 50.3268 150.38 50.4563 149.736 50.4339C149.101 50.4085 148.42 50.2266 147.693 49.8883C146.888 49.5138 146.239 49.0497 145.745 48.496C145.252 47.9424 144.951 47.3803 144.843 46.81C144.734 46.2396 144.761 45.7051 144.923 45.2064C145.087 44.7022 145.52 43.688 146.221 42.1638L149.897 34.1701L153.402 35.801L148.744 45.9308C148.473 46.5204 148.33 46.9129 148.314 47.1082C148.307 47.3005 148.4 47.4419 148.594 47.5323C148.816 47.6356 148.999 47.6124 149.142 47.4628C149.293 47.3102 149.523 46.8974 149.833 46.2243L154.41 36.2697L157.916 37.9006Z" fill="white"/>
<path d="M167.958 40.5692L167.332 43.4728L165.088 43.0039L162.583 54.6095L158.805 53.8197L161.31 42.2141L159.075 41.747L159.702 38.8433L167.958 40.5692Z" fill="white"/>
<path d="M182.307 41.5267L181.802 56.3562L178.422 56.2411L176.646 49.4313L176.416 56.1728L173.192 56.063L173.697 41.2335L176.921 41.3433L178.856 48.0943L179.083 41.4169L182.307 41.5267Z" fill="white"/>
<path d="M185.616 41.571L192.049 41.4464L192.107 44.4153L189.532 44.4652L189.586 47.2783L191.996 47.2316L192.051 50.0539L189.641 50.1006L189.704 53.3627L192.536 53.3078L192.593 56.2767L185.904 56.4063L185.616 41.571Z" fill="white"/>
<path d="M209.229 40.3532L208.68 55.2845L203.873 55.6685C203.257 53.4312 202.668 50.879 202.106 48.012C202.05 49.2609 201.896 51.8724 201.644 55.8467L196.865 56.2285L193.988 41.571L197.725 41.2723L198.523 46.4041L199.315 51.3523C199.253 48.7641 199.341 45.3547 199.58 41.1241L203.582 40.8044C203.671 41.2325 203.938 42.8479 204.385 45.6506L205.246 51.237C205.178 47.6439 205.261 44.1155 205.492 40.6518L209.229 40.3532Z" fill="white"/>
<path d="M216.39 39.2984L219.092 38.8699C220.893 38.5842 222.123 38.4605 222.779 38.4989C223.442 38.5363 224.019 38.8104 224.51 39.3212C225.006 39.825 225.354 40.7024 225.554 41.9534C225.737 43.0956 225.718 43.8856 225.497 44.3234C225.276 44.7613 224.754 45.0857 223.933 45.2965C224.718 45.364 225.266 45.5343 225.576 45.8073C225.887 46.0803 226.093 46.345 226.196 46.6013C226.304 46.8506 226.453 47.5675 226.643 48.752L227.262 52.6227L223.717 53.1849L222.937 48.308C222.811 47.5224 222.669 47.046 222.513 46.8788C222.362 46.7106 222.023 46.6682 221.497 46.7516L222.557 53.369L218.74 53.9743L216.39 39.2984ZM220.609 41.204L221.132 44.4673C221.561 44.3992 221.851 44.2944 222.002 44.1527C222.158 44.0041 222.184 43.6064 222.08 42.9598L221.951 42.153C221.877 41.6877 221.743 41.3959 221.551 41.2777C221.364 41.1586 221.051 41.134 220.609 41.204Z" fill="white"/>
<path d="M238.222 44.3654C238.504 45.8303 238.668 46.876 238.714 47.5025C238.765 48.1218 238.656 48.7193 238.387 49.295C238.124 49.8696 237.709 50.3522 237.143 50.7429C236.577 51.1337 235.883 51.4092 235.061 51.5696C234.281 51.7217 233.554 51.7326 232.882 51.6022C232.214 51.4645 231.642 51.1774 231.165 50.7408C230.689 50.3042 230.357 49.7928 230.169 49.2064C229.982 48.62 229.744 47.5764 229.455 46.0754L228.974 43.5807C228.692 42.1158 228.526 41.0736 228.475 40.4544C228.429 39.8279 228.538 39.2274 228.801 38.6528C229.07 38.0771 229.487 37.5939 230.053 37.2031C230.62 36.8124 231.314 36.5369 232.136 36.3765C232.916 36.2243 233.64 36.2171 234.308 36.3547C234.98 36.4851 235.555 36.7686 236.031 37.2052C236.508 37.6419 236.84 38.1533 237.027 38.7397C237.215 39.326 237.453 40.3697 237.742 41.8707L238.222 44.3654ZM233.51 40.3133C233.38 39.6349 233.257 39.2102 233.143 39.0393C233.034 38.8612 232.863 38.795 232.629 38.8406C232.431 38.8793 232.293 38.9872 232.215 39.1643C232.142 39.3343 232.177 39.7946 232.322 40.5451L233.633 47.3536C233.796 48.2001 233.929 48.7161 234.033 48.9013C234.144 49.0854 234.325 49.1529 234.577 49.1037C234.835 49.0534 234.978 48.9071 235.006 48.6649C235.034 48.4227 234.965 47.8723 234.8 47.0138L233.51 40.3133Z" fill="white"/>
<path d="M250.029 41.6742C250.366 43.1264 250.57 44.1643 250.639 44.788C250.713 45.4043 250.627 46.0046 250.38 46.5888C250.139 47.1717 249.743 47.6682 249.192 48.0783C248.641 48.4885 247.958 48.7882 247.143 48.9775C246.369 49.1571 245.644 49.1938 244.967 49.0875C244.294 48.9739 243.712 48.7077 243.219 48.2888C242.727 47.87 242.376 47.3713 242.166 46.7927C241.957 46.2141 241.679 45.1808 241.334 43.6929L240.76 41.22C240.423 39.7677 240.217 38.7335 240.143 38.1172C240.073 37.4935 240.159 36.8903 240.4 36.3074C240.647 35.7232 241.046 35.226 241.597 34.8159C242.148 34.4057 242.831 34.106 243.646 33.9167C244.42 33.7371 245.143 33.7041 245.816 33.8177C246.493 33.9239 247.077 34.1865 247.57 34.6053C248.062 35.0242 248.413 35.5229 248.623 36.1015C248.832 36.6801 249.11 37.7133 249.455 39.2013L250.029 41.6742ZM245.168 37.7973C245.012 37.1248 244.874 36.7052 244.754 36.5387C244.638 36.3648 244.464 36.3048 244.232 36.3587C244.036 36.4043 243.902 36.5169 243.831 36.6965C243.764 36.8688 243.817 37.3269 243.99 38.0709L245.557 44.8201C245.752 45.6593 245.904 46.1695 246.016 46.3507C246.133 46.5305 246.316 46.5914 246.566 46.5334C246.822 46.474 246.959 46.3229 246.978 46.0802C246.997 45.8374 246.908 45.2905 246.71 44.4394L245.168 37.7973Z" fill="white"/>
<path d="M261.441 36.526L257.719 37.5098L257.072 35.0135C256.884 34.2876 256.726 33.8471 256.598 33.6918C256.474 33.5292 256.276 33.4836 256.005 33.5553C255.698 33.6363 255.532 33.7969 255.506 34.037C255.48 34.2772 255.561 34.7602 255.749 35.4861L257.474 42.1428C257.655 42.8392 257.814 43.2827 257.951 43.4733C258.089 43.6639 258.302 43.7211 258.591 43.6448C258.868 43.5716 259.02 43.4178 259.047 43.1836C259.081 42.9477 258.996 42.4374 258.792 41.6525L258.327 39.8556L262.049 38.8718L262.193 39.4295C262.577 40.9107 262.743 41.9892 262.691 42.6649C262.646 43.3391 262.324 44.0043 261.725 44.6606C261.133 45.3153 260.312 45.7813 259.263 46.0585C258.173 46.3467 257.223 46.3866 256.413 46.1782C255.603 45.9697 254.993 45.5477 254.583 44.9121C254.171 44.2706 253.784 43.2475 253.42 41.843L252.335 37.656C252.067 36.6233 251.902 35.8408 251.84 35.3087C251.776 34.7707 251.856 34.2168 252.08 33.6468C252.31 33.0754 252.699 32.5721 253.248 32.1371C253.8 31.6946 254.481 31.3666 255.288 31.1532C256.384 30.8635 257.344 30.8368 258.167 31.0732C258.99 31.3096 259.597 31.7169 259.986 32.295C260.373 32.8673 260.741 33.8232 261.088 35.1628L261.441 36.526Z" fill="white"/>
<path d="M271.672 26.8643L271.392 33.913L275.957 41.0717L272.124 42.1686L268.876 36.4823L270.626 42.5973L266.917 43.6589L262.834 29.3935L266.544 28.3319L268.13 33.8742L268.192 27.8603L271.672 26.8643Z" fill="white"/>
<path d="M277.961 24.9806L282.24 39.1883L278.545 40.301L274.266 26.0932L277.961 24.9806Z" fill="white"/>
<path d="M280.307 24.1998L286.457 22.2814L287.348 25.1186L284.886 25.8865L285.729 28.5748L288.034 27.856L288.88 30.5531L286.576 31.2718L287.554 34.3892L290.261 33.5448L291.152 36.3819L284.756 38.3768L280.307 24.1998Z" fill="white"/>
</g>
<path d="M112.576 46.2482L60.7788 45.4625C54.8876 45.3732 49.5277 42.0369 46.8466 36.7904L46.1706 35.4676C44.095 31.4061 44.2569 26.5622 46.599 22.6484C48.4253 19.5967 51.4028 17.4084 54.8606 16.5766L60.9454 15.1128C63.5796 14.4792 66.2916 14.2293 68.9973 14.3711L108.581 16.4456C111.814 16.6151 115.023 17.0923 118.165 17.8708L136.63 22.4457L169.54 28.3651L196.035 29.7536C199.557 29.9382 203.088 29.7565 206.571 29.2117L243.116 23.4963L277 15.1823C281.742 14.0188 286.712 14.1717 291.374 15.6246L295.419 16.8853C298.659 17.8953 301.456 19.9859 303.341 22.8084L304.041 23.8562C307.1 28.4337 306.956 34.4382 303.681 38.8638C301.952 41.2007 299.493 42.8933 296.692 43.673L256.54 54.8506C254.069 55.5385 251.549 56.0388 249.003 56.3472L204.021 61.7939C201.105 62.147 198.165 62.2472 195.232 62.0935L162.341 60.3698C155.919 60.0332 149.62 58.4837 143.774 55.8032L133.036 50.8787C126.611 47.9324 119.643 46.3554 112.576 46.2482Z" stroke="white" stroke-width="1.22115"/>
<defs>
<filter id="filter0_d_2100_5584" x="0.30439" y="67.8912" width="22.035" height="23.6407" filterUnits="userSpaceOnUse" color-interpolation-filters="sRGB">
<feFlood flood-opacity="0" result="BackgroundImageFix"/>
<feColorMatrix in="SourceAlpha" type="matrix" values="0 0 0 0 0 0 0 0 0 0 0 0 0 0 0 0 0 0 127 0" result="hardAlpha"/>
<feOffset dy="1.31578"/>
<feGaussianBlur stdDeviation="0.921047"/>
<feComposite in2="hardAlpha" operator="out"/>
<feColorMatrix type="matrix" values="0 0 0 0 0 0 0 0 0 0 0 0 0 0 0 0 0 0 0.25 0"/>
<feBlend mode="normal" in2="BackgroundImageFix" result="effect1_dropShadow_2100_5584"/>
<feBlend mode="normal" in="SourceGraphic" in2="effect1_dropShadow_2100_5584" result="shape"/>
</filter>
<filter id="filter1_d_2100_5584" x="97.801" y="74.2792" width="264.87" height="61.763" filterUnits="userSpaceOnUse" color-interpolation-filters="sRGB">
<feFlood flood-opacity="0" result="BackgroundImageFix"/>
<feColorMatrix in="SourceAlpha" type="matrix" values="0 0 0 0 0 0 0 0 0 0 0 0 0 0 0 0 0 0 127 0" result="hardAlpha"/>
<feOffset dx="-0.8141" dy="-0.8141"/>
<feGaussianBlur stdDeviation="2.78829"/>
<feComposite in2="hardAlpha" operator="out"/>
<feColorMatrix type="matrix" values="0 0 0 0 0 0 0 0 0 0 0 0 0 0 0 0 0 0 0.25 0"/>
<feBlend mode="normal" in2="BackgroundImageFix" result="effect1_dropShadow_2100_5584"/>
<feBlend mode="normal" in="SourceGraphic" in2="effect1_dropShadow_2100_5584" result="shape"/>
</filter>
<filter id="filter2_d_2100_5584" x="336.84" y="109.848" width="22.4239" height="22.1022" filterUnits="userSpaceOnUse" color-interpolation-filters="sRGB">
<feFlood flood-opacity="0" result="BackgroundImageFix"/>
<feColorMatrix in="SourceAlpha" type="matrix" values="0 0 0 0 0 0 0 0 0 0 0 0 0 0 0 0 0 0 127 0" result="hardAlpha"/>
<feOffset dx="-0.328945" dy="-0.986836"/>
<feGaussianBlur stdDeviation="0.921047"/>
<feComposite in2="hardAlpha" operator="out"/>
<feColorMatrix type="matrix" values="0 0 0 0 0 0 0 0 0 0 0 0 0 0 0 0 0 0 0.25 0"/>
<feBlend mode="normal" in2="BackgroundImageFix" result="effect1_dropShadow_2100_5584"/>
<feBlend mode="normal" in="SourceGraphic" in2="effect1_dropShadow_2100_5584" result="shape"/>
</filter>
<filter id="filter3_d_2100_5584" x="52.3799" y="17.5647" width="244.633" height="45.9242" filterUnits="userSpaceOnUse" color-interpolation-filters="sRGB">
<feFlood flood-opacity="0" result="BackgroundImageFix"/>
<feColorMatrix in="SourceAlpha" type="matrix" values="0 0 0 0 0 0 0 0 0 0 0 0 0 0 0 0 0 0 127 0" result="hardAlpha"/>
<feOffset dy="1.22115"/>
<feGaussianBlur stdDeviation="2.93076"/>
<feComposite in2="hardAlpha" operator="out"/>
<feColorMatrix type="matrix" values="0 0 0 0 1 0 0 0 0 1 0 0 0 0 1 0 0 0 0.4 0"/>
<feBlend mode="normal" in2="BackgroundImageFix" result="effect1_dropShadow_2100_5584"/>
<feBlend mode="normal" in="SourceGraphic" in2="effect1_dropShadow_2100_5584" result="shape"/>
</filter>
</defs>
</svg>
