<svg width="24" height="25" viewBox="0 0 24 25" fill="none" xmlns="http://www.w3.org/2000/svg">
<g clip-path="url(#clip0_380_6125)">
<path d="M12 2.44487C15.2063 2.44487 15.5859 2.45894 16.8469 2.51519C18.0188 2.56675 18.6516 2.76362 19.0734 2.92769C19.6313 3.14331 20.0344 3.40581 20.4516 3.823C20.8734 4.24487 21.1313 4.64331 21.3469 5.20112C21.5109 5.623 21.7078 6.2605 21.7594 7.42769C21.8156 8.69331 21.8297 9.073 21.8297 12.2746C21.8297 15.4808 21.8156 15.8605 21.7594 17.1214C21.7078 18.2933 21.5109 18.9261 21.3469 19.348C21.1313 19.9058 20.8687 20.3089 20.4516 20.7261C20.0297 21.148 19.6313 21.4058 19.0734 21.6214C18.6516 21.7855 18.0141 21.9824 16.8469 22.0339C15.5813 22.0902 15.2016 22.1042 12 22.1042C8.79375 22.1042 8.41406 22.0902 7.15313 22.0339C5.98125 21.9824 5.34844 21.7855 4.92656 21.6214C4.36875 21.4058 3.96563 21.1433 3.54844 20.7261C3.12656 20.3042 2.86875 19.9058 2.65313 19.348C2.48906 18.9261 2.29219 18.2886 2.24063 17.1214C2.18438 15.8558 2.17031 15.4761 2.17031 12.2746C2.17031 9.06831 2.18438 8.68862 2.24063 7.42769C2.29219 6.25581 2.48906 5.623 2.65313 5.20112C2.86875 4.64331 3.13125 4.24019 3.54844 3.823C3.97031 3.40112 4.36875 3.14331 4.92656 2.92769C5.34844 2.76362 5.98594 2.56675 7.15313 2.51519C8.41406 2.45894 8.79375 2.44487 12 2.44487ZM12 0.283936C8.74219 0.283936 8.33438 0.297998 7.05469 0.354248C5.77969 0.410498 4.90313 0.616748 4.14375 0.91206C3.35156 1.22144 2.68125 1.62925 2.01563 2.29956C1.34531 2.96519 0.9375 3.6355 0.628125 4.423C0.332812 5.18706 0.126563 6.05894 0.0703125 7.33394C0.0140625 8.61831 0 9.02612 0 12.2839C0 15.5417 0.0140625 15.9496 0.0703125 17.2292C0.126563 18.5042 0.332812 19.3808 0.628125 20.1402C0.9375 20.9324 1.34531 21.6027 2.01563 22.2683C2.68125 22.9339 3.35156 23.3464 4.13906 23.6511C4.90313 23.9464 5.775 24.1527 7.05 24.2089C8.32969 24.2652 8.7375 24.2792 11.9953 24.2792C15.2531 24.2792 15.6609 24.2652 16.9406 24.2089C18.2156 24.1527 19.0922 23.9464 19.8516 23.6511C20.6391 23.3464 21.3094 22.9339 21.975 22.2683C22.6406 21.6027 23.0531 20.9324 23.3578 20.1449C23.6531 19.3808 23.8594 18.5089 23.9156 17.2339C23.9719 15.9542 23.9859 15.5464 23.9859 12.2886C23.9859 9.03081 23.9719 8.623 23.9156 7.34331C23.8594 6.06831 23.6531 5.19175 23.3578 4.43237C23.0625 3.6355 22.6547 2.96519 21.9844 2.29956C21.3188 1.63394 20.6484 1.22144 19.8609 0.916748C19.0969 0.621436 18.225 0.415186 16.95 0.358936C15.6656 0.297998 15.2578 0.283936 12 0.283936Z" fill="#AFACA2"/>
<path d="M12 6.11987C8.59688 6.11987 5.83594 8.88081 5.83594 12.2839C5.83594 15.6871 8.59688 18.448 12 18.448C15.4031 18.448 18.1641 15.6871 18.1641 12.2839C18.1641 8.88081 15.4031 6.11987 12 6.11987ZM12 16.2824C9.79219 16.2824 8.00156 14.4917 8.00156 12.2839C8.00156 10.0761 9.79219 8.2855 12 8.2855C14.2078 8.2855 15.9984 10.0761 15.9984 12.2839C15.9984 14.4917 14.2078 16.2824 12 16.2824Z" fill="#AFACA2"/>
<path d="M19.8469 5.87608C19.8469 6.67295 19.2 7.31514 18.4078 7.31514C17.6109 7.31514 16.9688 6.66826 16.9688 5.87608C16.9688 5.0792 17.6156 4.43701 18.4078 4.43701C19.2 4.43701 19.8469 5.08389 19.8469 5.87608Z" fill="#AFACA2"/>
</g>
<defs>
<clipPath id="clip0_380_6125">
<rect width="24" height="24" fill="white" transform="translate(0 0.283936)"/>
</clipPath>
</defs>
</svg>
