<svg width="24" height="25" viewBox="0 0 24 25" fill="none" xmlns="http://www.w3.org/2000/svg">
<g clip-path="url(#clip0_380_6124)">
<path d="M22.2234 0.283936H1.77187C0.792187 0.283936 0 1.05737 0 2.01362V22.5496C0 23.5058 0.792187 24.2839 1.77187 24.2839H22.2234C23.2031 24.2839 24 23.5058 24 22.5542V2.01362C24 1.05737 23.2031 0.283936 22.2234 0.283936ZM7.12031 20.7355H3.55781V9.27925H7.12031V20.7355ZM5.33906 7.71831C4.19531 7.71831 3.27188 6.79487 3.27188 5.65581C3.27188 4.51675 4.19531 3.59331 5.33906 3.59331C6.47813 3.59331 7.40156 4.51675 7.40156 5.65581C7.40156 6.79019 6.47813 7.71831 5.33906 7.71831ZM20.4516 20.7355H16.8937V15.1667C16.8937 13.8402 16.8703 12.1292 15.0422 12.1292C13.1906 12.1292 12.9094 13.5777 12.9094 15.073V20.7355H9.35625V9.27925H12.7687V10.8449H12.8156C13.2891 9.94487 14.4516 8.99331 16.1813 8.99331C19.7859 8.99331 20.4516 11.3652 20.4516 14.4496V20.7355Z" fill="#AFACA2"/>
</g>
<defs>
<clipPath id="clip0_380_6124">
<rect width="24" height="24" fill="white" transform="translate(0 0.283936)"/>
</clipPath>
</defs>
</svg>
