<svg width="25" height="25" viewBox="0 0 25 25" fill="none" xmlns="http://www.w3.org/2000/svg">
<g clip-path="url(#clip0_843_1516)">
<path d="M12.5 3.07878C15.7063 3.07878 16.0859 3.09285 17.3469 3.1491C18.5188 3.20066 19.1516 3.39753 19.5734 3.5616C20.1313 3.77722 20.5344 4.03972 20.9516 4.45691C21.3734 4.87878 21.6313 5.27722 21.8469 5.83503C22.0109 6.25691 22.2078 6.89441 22.2594 8.0616C22.3156 9.32722 22.3297 9.70691 22.3297 12.9085C22.3297 16.1147 22.3156 16.4944 22.2594 17.7553C22.2078 18.9272 22.0109 19.56 21.8469 19.9819C21.6313 20.5397 21.3687 20.9428 20.9516 21.36C20.5297 21.7819 20.1313 22.0397 19.5734 22.2553C19.1516 22.4194 18.5141 22.6163 17.3469 22.6678C16.0813 22.7241 15.7016 22.7382 12.5 22.7382C9.29375 22.7382 8.91406 22.7241 7.65313 22.6678C6.48125 22.6163 5.84844 22.4194 5.42656 22.2553C4.86875 22.0397 4.46563 21.7772 4.04844 21.36C3.62656 20.9382 3.36875 20.5397 3.15313 19.9819C2.98906 19.56 2.79219 18.9225 2.74063 17.7553C2.68438 16.4897 2.67031 16.11 2.67031 12.9085C2.67031 9.70222 2.68438 9.32253 2.74063 8.0616C2.79219 6.88972 2.98906 6.25691 3.15313 5.83503C3.36875 5.27722 3.63125 4.8741 4.04844 4.45691C4.47031 4.03503 4.86875 3.77722 5.42656 3.5616C5.84844 3.39753 6.48594 3.20066 7.65313 3.1491C8.91406 3.09285 9.29375 3.07878 12.5 3.07878ZM12.5 0.917847C9.24219 0.917847 8.83438 0.931909 7.55469 0.988159C6.27969 1.04441 5.40313 1.25066 4.64375 1.54597C3.85156 1.85535 3.18125 2.26316 2.51563 2.93347C1.84531 3.5991 1.4375 4.26941 1.12813 5.05691C0.832812 5.82097 0.626563 6.69285 0.570313 7.96785C0.514063 9.25222 0.5 9.66003 0.5 12.9178C0.5 16.1757 0.514063 16.5835 0.570313 17.8632C0.626563 19.1382 0.832812 20.0147 1.12813 20.7741C1.4375 21.5663 1.84531 22.2366 2.51563 22.9022C3.18125 23.5678 3.85156 23.9803 4.63906 24.285C5.40313 24.5803 6.275 24.7866 7.55 24.8428C8.82969 24.8991 9.2375 24.9132 12.4953 24.9132C15.7531 24.9132 16.1609 24.8991 17.4406 24.8428C18.7156 24.7866 19.5922 24.5803 20.3516 24.285C21.1391 23.9803 21.8094 23.5678 22.475 22.9022C23.1406 22.2366 23.5531 21.5663 23.8578 20.7788C24.1531 20.0147 24.3594 19.1428 24.4156 17.8678C24.4719 16.5882 24.4859 16.1803 24.4859 12.9225C24.4859 9.66472 24.4719 9.25691 24.4156 7.97722C24.3594 6.70222 24.1531 5.82566 23.8578 5.06628C23.5625 4.26941 23.1547 3.5991 22.4844 2.93347C21.8188 2.26785 21.1484 1.85535 20.3609 1.55066C19.5969 1.25535 18.725 1.0491 17.45 0.992847C16.1656 0.931909 15.7578 0.917847 12.5 0.917847Z" fill="white"/>
<path d="M6.58594 12.9178C6.58594 9.65279 9.23495 7.00378 12.5 7.00378C15.7651 7.00378 18.4141 9.65279 18.4141 12.9178C18.4141 16.1829 15.7651 18.8319 12.5 18.8319C9.23495 18.8319 6.58594 16.1829 6.58594 12.9178ZM8.25156 12.9178C8.25156 15.2637 10.1541 17.1663 12.5 17.1663C14.8459 17.1663 16.7484 15.2637 16.7484 12.9178C16.7484 10.572 14.8459 8.66941 12.5 8.66941C10.1541 8.66941 8.25156 10.572 8.25156 12.9178Z" fill="white" stroke="white" stroke-width="0.5"/>
<path d="M20.3469 6.50999C20.3469 7.30686 19.7 7.94905 18.9078 7.94905C18.1109 7.94905 17.4688 7.30218 17.4688 6.50999C17.4688 5.71311 18.1156 5.07092 18.9078 5.07092C19.7 5.07092 20.3469 5.7178 20.3469 6.50999Z" fill="white"/>
</g>
<defs>
<clipPath id="clip0_843_1516">
<rect width="24" height="24" fill="white" transform="translate(0.5 0.917847)"/>
</clipPath>
</defs>
</svg>
