<svg width="24" height="25" viewBox="0 0 24 25" fill="none" xmlns="http://www.w3.org/2000/svg">
<path d="M19.3547 4.8355C17.3906 2.86675 14.775 1.78394 11.9953 1.78394C6.25781 1.78394 1.58906 6.45269 1.58906 12.1902C1.58906 14.023 2.06719 15.8136 2.97656 17.3933L1.5 22.7839L7.01719 21.3355C8.53594 22.1652 10.2469 22.6011 11.9906 22.6011H11.9953C17.7281 22.6011 22.5 17.9324 22.5 12.1949C22.5 9.41519 21.3188 6.80425 19.3547 4.8355ZM11.9953 20.848C10.4391 20.848 8.91562 20.4308 7.58906 19.6433L7.275 19.4558L4.00313 20.3136L4.875 17.1214L4.66875 16.7933C3.80156 15.4152 3.34688 13.8261 3.34688 12.1902C3.34688 7.423 7.22812 3.54175 12 3.54175C14.3109 3.54175 16.4812 4.44175 18.1125 6.07769C19.7437 7.71362 20.7469 9.88394 20.7422 12.1949C20.7422 16.9667 16.7625 20.848 11.9953 20.848ZM16.7391 14.3699C16.4813 14.2386 15.2016 13.6105 14.9625 13.5261C14.7234 13.4371 14.55 13.3949 14.3766 13.6574C14.2031 13.9199 13.7063 14.5011 13.5516 14.6792C13.4016 14.8527 13.2469 14.8761 12.9891 14.7449C11.4609 13.9808 10.4578 13.3808 9.45 11.6511C9.18281 11.1917 9.71719 11.2246 10.2141 10.2308C10.2984 10.0574 10.2562 9.90737 10.1906 9.77612C10.125 9.64487 9.60469 8.36519 9.38906 7.84487C9.17813 7.33862 8.9625 7.40894 8.80313 7.39956C8.65313 7.39019 8.47969 7.39019 8.30625 7.39019C8.13281 7.39019 7.85156 7.45581 7.6125 7.71362C7.37344 7.97612 6.70312 8.60425 6.70312 9.88394C6.70312 11.1636 7.63594 12.4011 7.7625 12.5746C7.89375 12.748 9.59531 15.373 12.2062 16.5027C13.8562 17.2152 14.5031 17.2761 15.3281 17.1542C15.8297 17.0792 16.8656 16.5261 17.0812 15.9167C17.2969 15.3074 17.2969 14.7871 17.2313 14.6792C17.1703 14.5621 16.9969 14.4964 16.7391 14.3699Z" fill="#AFACA2"/>
</svg>
