<svg width="24" height="25" viewBox="0 0 24 25" fill="none" xmlns="http://www.w3.org/2000/svg">
<g clip-path="url(#clip0_380_6126)">
<path fill-rule="evenodd" clip-rule="evenodd" d="M16.8426 6.83175C15.6036 5.65005 13.9501 5.00629 12.2392 5.03274C9.10863 5.03274 6.44981 7.14479 5.5018 9.98879V9.98886C4.99913 11.4792 4.99913 13.093 5.50179 14.5834H5.50619C6.45861 17.423 9.11303 19.5351 12.2437 19.5351C13.8597 19.5351 15.247 19.1217 16.3223 18.3916V18.3887C17.5878 17.5509 18.452 16.2325 18.721 14.7421H12.2393V10.1212H23.558C23.6991 10.9237 23.7653 11.7438 23.7653 12.5595C23.7653 16.2094 22.4609 19.2951 20.1913 21.3851L20.1937 21.387C18.2051 23.2213 15.4757 24.2839 12.2392 24.2839C7.70204 24.2839 3.55286 21.7265 1.51575 17.6743V17.6743C-0.186243 14.2835 -0.186239 10.2887 1.51576 6.89792H1.51579L1.51575 6.89789C3.55286 2.8413 7.70204 0.28389 12.2392 0.28389C15.22 0.248615 18.0992 1.36859 20.2686 3.4057L16.8426 6.83175Z" fill="#AFACA2"/>
</g>
<defs>
<clipPath id="clip0_380_6126">
<rect width="24" height="24" fill="white" transform="translate(0 0.283936)"/>
</clipPath>
</defs>
</svg>
