<svg width="92" height="92" viewBox="0 0 92 92" fill="none" xmlns="http://www.w3.org/2000/svg">
<g clip-path="url(#clip0_735_7659)">
<path d="M26.8504 38.2991H38.3401V26.8094L24.9354 13.4047C29.2235 11.3568 34.041 10.6886 38.7246 11.4922C43.4082 12.2957 47.7275 14.5315 51.0877 17.8917C54.4478 21.2519 56.6837 25.5712 57.4872 30.2548C58.2908 34.9384 57.6226 39.7559 55.5747 44.044L78.5541 67.0234C80.0778 68.5471 80.9337 70.6136 80.9337 72.7683C80.9337 74.923 80.0778 76.9895 78.5541 78.5132C77.0305 80.0368 74.964 80.8928 72.8093 80.8928C70.6545 80.8928 68.588 80.0368 67.0644 78.5132L44.0849 55.5337C39.7969 57.5817 34.9793 58.2499 30.2957 57.4463C25.6122 56.6427 21.2929 54.4069 17.9327 51.0467C14.5725 47.6865 12.3367 43.3672 11.5331 38.6836C10.7295 34.0001 11.3977 29.1825 13.4457 24.8944L26.8504 38.2991Z" stroke="white" stroke-width="7.65982" stroke-linecap="round" stroke-linejoin="round"/>
</g>
<defs>
<clipPath id="clip0_735_7659">
<rect width="91.9178" height="91.9178" fill="white" transform="translate(0.0411377)"/>
</clipPath>
</defs>
</svg>
