<svg width="40" height="40" viewBox="0 0 40 40" fill="none" xmlns="http://www.w3.org/2000/svg">
<path d="M10.1744 14.9132H5.72391C5.55529 14.9132 5.39358 14.9802 5.27435 15.0994C5.15512 15.2186 5.08813 15.3803 5.08813 15.549V18.7279C5.08813 18.8965 5.15512 19.0582 5.27435 19.1774C5.39358 19.2967 5.55529 19.3637 5.72391 19.3637H8.9028C9.02987 19.3637 9.15403 19.3256 9.25925 19.2543C9.36447 19.1831 9.44593 19.082 9.49312 18.964L10.7647 15.7851C10.8033 15.6886 10.8176 15.5841 10.8065 15.4808C10.7954 15.3775 10.7591 15.2785 10.7008 15.1925C10.6426 15.1065 10.5641 15.036 10.4724 14.9873C10.3806 14.9386 10.2783 14.9132 10.1744 14.9132ZM8.47238 18.0921H6.35969V16.1847H9.23532L8.47238 18.0921ZM21.6184 13.6416C21.4497 13.6416 21.288 13.7086 21.1688 13.8278C21.0496 13.9471 20.9826 14.1088 20.9826 14.2774V18.0921C20.9826 18.2607 21.0496 18.4224 21.1688 18.5417C21.288 18.6609 21.4497 18.7279 21.6184 18.7279C21.787 18.7279 21.9487 18.6609 22.0679 18.5417C22.1872 18.4224 22.2541 18.2607 22.2541 18.0921V14.2774C22.2541 14.1088 22.1872 13.9471 22.0679 13.8278C21.9487 13.7086 21.787 13.6416 21.6184 13.6416Z" fill="white"/>
<path d="M26.0667 14.2769H24.4694C24.402 14.0865 24.3243 13.9 24.2365 13.7182L25.3674 12.5873C25.4865 12.468 25.5535 12.3064 25.5535 12.1378C25.5535 11.9693 25.4865 11.8076 25.3674 11.6884L23.5689 9.88996C23.4497 9.77081 23.2881 9.70389 23.1195 9.70389C22.951 9.70389 22.7893 9.77081 22.6701 9.88996L21.5392 11.0209C21.3574 10.9331 21.1709 10.8553 20.9805 10.788V9.19059C20.9805 9.02197 20.9135 8.86026 20.7943 8.74103C20.6751 8.62179 20.5134 8.55481 20.3447 8.55481H17.8016C17.633 8.55481 17.4713 8.62179 17.3521 8.74103C17.2328 8.86026 17.1659 9.02197 17.1659 9.19059V10.788C16.9755 10.8553 16.789 10.9331 16.6072 11.0209L15.4763 9.88996C15.3571 9.77081 15.1954 9.70389 15.0269 9.70389C14.8583 9.70389 14.6967 9.77081 14.5774 9.88996L12.779 11.6884C12.6598 11.8076 12.5929 11.9693 12.5929 12.1378C12.5929 12.3064 12.6598 12.468 12.779 12.5873L13.9099 13.7182C13.8221 13.9 13.7444 14.0865 13.677 14.2769H12.0796C11.911 14.2769 11.7493 14.3438 11.6301 14.4631C11.5108 14.5823 11.4438 14.744 11.4438 14.9126V17.4558C11.4438 17.6244 11.5108 17.7861 11.6301 17.9053C11.7493 18.0246 11.911 18.0916 12.0796 18.0916H13.677C13.7447 18.2818 13.8224 18.4683 13.9099 18.6503L12.779 19.7812C12.6598 19.9004 12.5929 20.062 12.5929 20.2306C12.5929 20.3991 12.6598 20.5608 12.779 20.68L14.5774 22.4785C14.6967 22.5976 14.8583 22.6645 15.0269 22.6645C15.1954 22.6645 15.3571 22.5976 15.4763 22.4785L16.6072 21.3476C16.7891 21.435 16.9756 21.5127 17.1659 21.5804V23.1778C17.1659 23.3465 17.2328 23.5082 17.3521 23.6274C17.4713 23.7466 17.633 23.8136 17.8016 23.8136H20.3447C20.5134 23.8136 20.6751 23.7466 20.7943 23.6274C20.9135 23.5082 20.9805 23.3465 20.9805 23.1778V21.5804C21.1707 21.5127 21.3572 21.435 21.5392 21.3476L22.6701 22.4785C22.7893 22.5976 22.951 22.6645 23.1195 22.6645C23.2881 22.6645 23.4497 22.5976 23.5689 22.4785L25.3674 20.68C25.4865 20.5608 25.5535 20.3991 25.5535 20.2306C25.5535 20.062 25.4865 19.9004 25.3674 19.7812L24.2365 18.6503C24.3239 18.4683 24.4017 18.2818 24.4694 18.0916H26.0667C26.2354 18.0916 26.3971 18.0246 26.5163 17.9053C26.6355 17.7861 26.7025 17.6244 26.7025 17.4558V14.9126C26.7025 14.744 26.6355 14.5823 26.5163 14.4631C26.3971 14.3438 26.2354 14.2769 26.0667 14.2769ZM25.431 16.82H23.9989C23.8579 16.82 23.7209 16.867 23.6095 16.9534C23.4981 17.0399 23.4187 17.161 23.3838 17.2976C23.2793 17.7001 23.1187 18.0858 22.9069 18.4436C22.8351 18.5651 22.8057 18.707 22.8234 18.847C22.8411 18.987 22.9049 19.1171 23.0047 19.2169L24.0187 20.2302L23.1191 21.1298L22.1058 20.1157C22.0061 20.0159 21.8759 19.9522 21.736 19.9345C21.596 19.9168 21.454 19.9462 21.3326 20.018C20.9748 20.2298 20.589 20.3903 20.1866 20.4948C20.05 20.5298 19.9289 20.6092 19.8424 20.7206C19.7559 20.8319 19.709 20.9689 19.709 21.1099V22.542H18.4374V21.1099C18.4374 20.9689 18.3904 20.8319 18.304 20.7206C18.2175 20.6092 18.0964 20.5298 17.9598 20.4948C17.5573 20.3903 17.1716 20.2298 16.8138 20.018C16.6923 19.9462 16.5504 19.9168 16.4104 19.9345C16.2704 19.9522 16.1403 20.0159 16.0405 20.1157L15.0273 21.1298L14.1276 20.2302L15.1417 19.2169C15.2415 19.1171 15.3053 18.987 15.323 18.847C15.3407 18.707 15.3113 18.5651 15.2394 18.4436C15.0276 18.0858 14.8671 17.7001 14.7626 17.2976C14.7277 17.161 14.6482 17.0399 14.5369 16.9534C14.4255 16.867 14.2885 16.82 14.1475 16.82H12.7154V15.5484H14.1475C14.2885 15.5484 14.4255 15.5015 14.5369 15.415C14.6482 15.3285 14.7277 15.2074 14.7626 15.0708C14.8671 14.6684 15.0276 14.2826 15.2394 13.9248C15.3113 13.8033 15.3407 13.6614 15.323 13.5214C15.3053 13.3814 15.2415 13.2513 15.1417 13.1515L14.1276 12.1382L15.0273 11.2386L16.0405 12.2527C16.1403 12.3525 16.2704 12.4163 16.4104 12.434C16.5504 12.4517 16.6923 12.4223 16.8138 12.3504C17.1716 12.1386 17.5573 11.9781 17.9598 11.8736C18.0964 11.8387 18.2175 11.7592 18.304 11.6479C18.3904 11.5365 18.4374 11.3995 18.4374 11.2585V9.82638H19.709V11.2585C19.709 11.3995 19.7559 11.5365 19.8424 11.6479C19.9289 11.7592 20.05 11.8387 20.1866 11.8736C20.589 11.9781 20.9748 12.1386 21.3326 12.3504C21.454 12.4223 21.596 12.4517 21.736 12.434C21.8759 12.4163 22.0061 12.3525 22.1058 12.2527L23.1191 11.2386L24.0187 12.1382L23.0047 13.1515C22.9049 13.2513 22.8411 13.3814 22.8234 13.5214C22.8057 13.6614 22.8351 13.8033 22.9069 13.9248C23.1187 14.2826 23.2793 14.6684 23.3838 15.0708C23.4187 15.2074 23.4981 15.3285 23.6095 15.415C23.7209 15.5015 23.8579 15.5484 23.9989 15.5484H25.431V16.82Z" fill="white"/>
<path d="M35.713 16.8202C35.863 17.2444 36.1581 17.6019 36.5462 17.8296C36.9343 18.0572 37.3903 18.1404 37.8338 18.0643C38.2772 17.9882 38.6795 17.7578 38.9695 17.4138C39.2595 17.0698 39.4186 16.6343 39.4186 16.1844C39.4186 15.7345 39.2595 15.299 38.9695 14.955C38.6795 14.611 38.2772 14.3806 37.8338 14.3045C37.3903 14.2284 36.9343 14.3116 36.5462 14.5392C36.1581 14.7669 35.863 15.1244 35.713 15.5486H29.1843C28.9924 13.5188 28.3348 11.5607 27.2627 9.82655H32.4244C32.5931 9.82655 32.7548 9.75957 32.874 9.64034C32.9932 9.5211 33.0602 9.35939 33.0602 9.19077V2.83293H35.713C35.863 3.25714 36.1581 3.61466 36.5462 3.84232C36.9343 4.06998 37.3903 4.15312 37.8338 4.07703C38.2772 4.00095 38.6795 3.77054 38.9695 3.42654C39.2595 3.08254 39.4186 2.64709 39.4186 2.19715C39.4186 1.74721 39.2595 1.31176 38.9695 0.96776C38.6795 0.623758 38.2772 0.393352 37.8338 0.317267C37.3903 0.241182 36.9343 0.324316 36.5462 0.551976C36.1581 0.779636 35.863 1.13716 35.713 1.56137H32.4244C32.2558 1.56137 32.0941 1.62835 31.9749 1.74758C31.8556 1.86681 31.7887 2.02853 31.7887 2.19715V8.55499H26.3726C25.1246 6.96969 23.5332 5.68826 21.7181 4.80723C19.9031 3.9262 17.9118 3.46854 15.8942 3.46872C8.53189 3.46872 2.54286 9.4578 2.54286 16.8202C2.54286 16.9902 2.54603 17.1651 2.55319 17.3423C2.54351 17.3958 2.54057 17.4502 2.54444 17.5044L2.64458 18.803L0.077625 23.5094C0.0284751 23.5995 0.0018741 23.7002 9.54721e-05 23.8028C-0.00168316 23.9055 0.0214135 24.007 0.0674115 24.0988C0.113409 24.1905 0.180941 24.2698 0.264234 24.3298C0.347528 24.3897 0.444107 24.4287 0.545717 24.4432L3.10711 24.8088L3.816 34.0348C3.82822 34.1946 3.90035 34.3439 4.01794 34.4528C4.13553 34.5617 4.28992 34.6222 4.45019 34.6221H8.97534L9.54118 39.1513C9.56037 39.3051 9.63509 39.4466 9.75129 39.5492C9.8675 39.6518 10.0172 39.7084 10.1722 39.7084H24.7951C24.8834 39.7083 24.9707 39.6899 25.0515 39.6543C25.1323 39.6186 25.2048 39.5666 25.2644 39.5014C25.324 39.4362 25.3693 39.3593 25.3976 39.2756C25.4258 39.192 25.4364 39.1033 25.4285 39.0154L24.35 27.1524C25.5057 26.2095 26.4955 25.08 27.2786 23.8106C27.2984 23.8129 27.3183 23.8139 27.3382 23.8138H31.7887V30.1716C31.7887 30.3402 31.8556 30.502 31.9749 30.6212C32.0941 30.7404 32.2558 30.8074 32.4244 30.8074H35.713C35.863 31.2316 36.1581 31.5891 36.5462 31.8168C36.9343 32.0445 37.3903 32.1276 37.8338 32.0515C38.2772 31.9754 38.6795 31.745 38.9695 31.401C39.2595 31.057 39.4186 30.6216 39.4186 30.1716C39.4186 29.7217 39.2595 29.2862 38.9695 28.9422C38.6795 28.5982 38.2772 28.3678 37.8338 28.2917C37.3903 28.2157 36.9343 28.2988 36.5462 28.5265C36.1581 28.7541 35.863 29.1116 35.713 29.5358H33.0602V23.178C33.0602 23.0094 32.9932 22.8477 32.874 22.7284C32.7548 22.6092 32.5931 22.5422 32.4244 22.5422H27.9676C28.8129 20.7533 29.2495 18.7987 29.2455 16.8202H35.713ZM37.5107 15.5486C37.6364 15.5486 37.7593 15.5859 37.8639 15.6558C37.9684 15.7256 38.0499 15.8249 38.098 15.9411C38.1462 16.0573 38.1588 16.1851 38.1342 16.3084C38.1097 16.4318 38.0491 16.545 37.9602 16.634C37.8713 16.7229 37.758 16.7834 37.6347 16.808C37.5114 16.8325 37.3835 16.8199 37.2674 16.7718C37.1512 16.7237 37.0519 16.6422 36.982 16.5376C36.9122 16.4331 36.8749 16.3101 36.8749 16.1844C36.8751 16.0158 36.9422 15.8543 37.0614 15.7351C37.1805 15.6159 37.3421 15.5488 37.5107 15.5486ZM37.5107 1.56137C37.6364 1.56137 37.7593 1.59865 37.8639 1.66851C37.9684 1.73838 38.0499 1.83767 38.098 1.95385C38.1462 2.07002 38.1588 2.19785 38.1342 2.32118C38.1097 2.44451 38.0491 2.5578 37.9602 2.64672C37.8713 2.73563 37.758 2.79618 37.6347 2.82072C37.5114 2.84525 37.3835 2.83266 37.2674 2.78454C37.1512 2.73642 37.0519 2.65493 36.982 2.55037C36.9122 2.44582 36.8749 2.3229 36.8749 2.19715C36.8751 2.0286 36.9422 1.86702 37.0614 1.74784C37.1805 1.62866 37.3421 1.5616 37.5107 1.56137ZM37.5107 29.5358C37.6364 29.5358 37.7593 29.5731 37.8639 29.643C37.9684 29.7128 38.0499 29.8121 38.098 29.9283C38.1462 30.0445 38.1588 30.1723 38.1342 30.2957C38.1097 30.419 38.0491 30.5323 37.9602 30.6212C37.8713 30.7101 37.758 30.7707 37.6347 30.7952C37.5114 30.8197 37.3835 30.8071 37.2674 30.759C37.1512 30.7109 37.0519 30.6294 36.982 30.5248C36.9122 30.4203 36.8749 30.2974 36.8749 30.1716C36.8751 30.0031 36.9422 29.8415 37.0614 29.7223C37.1805 29.6031 37.3421 29.5361 37.5107 29.5358ZM4.64808 28.2643H9.53642V30.1716H4.79431L4.64808 28.2643ZM23.2955 26.3665C23.2114 26.432 23.1451 26.5175 23.1026 26.6152C23.0601 26.713 23.0428 26.8198 23.0523 26.9259L23.1166 27.6285H17.4288L13.1651 23.364C13.0457 23.2448 12.884 23.1779 12.7153 23.178H8.90064C8.73202 23.178 8.57031 23.245 8.45107 23.3642C8.33184 23.4835 8.26486 23.6452 8.26486 23.8138C8.26486 23.9824 8.33184 24.1441 8.45107 24.2634C8.57031 24.3826 8.73202 24.4496 8.90064 24.4496H12.4523L16.7159 28.7141C16.8353 28.8332 16.9971 28.9001 17.1658 28.9001H23.2319L23.4051 30.8074H19.7089C19.5402 30.8074 19.3785 30.8744 19.2593 30.9936C19.1401 31.1129 19.0731 31.2746 19.0731 31.4432C19.0731 31.6118 19.1401 31.7735 19.2593 31.8928C19.3785 32.012 19.5402 32.079 19.7089 32.079H23.5212L24.0989 38.4368H10.7333L10.1674 33.9076C10.1482 33.7538 10.0735 33.6123 9.95732 33.5097C9.84111 33.4071 9.69143 33.3505 9.53642 33.3505H5.03908L4.89206 31.4432H10.1722C10.3408 31.4432 10.5025 31.3762 10.6218 31.257C10.741 31.1377 10.808 30.976 10.808 30.8074V27.6285C10.808 27.4599 10.741 27.2982 10.6218 27.1789C10.5025 27.0597 10.3408 26.9927 10.1722 26.9927H4.55033L4.33575 24.2032C4.32454 24.0589 4.26451 23.9228 4.16555 23.8172C4.0666 23.7116 3.93462 23.6428 3.79136 23.6223L1.6321 23.3139L3.85097 19.2465C3.90999 19.1387 3.93649 19.0161 3.92726 18.8936L3.82315 17.5489C3.82965 17.508 3.83178 17.4664 3.82951 17.425C3.81918 17.2199 3.81441 17.0165 3.81441 16.8202C3.81441 10.1595 9.23363 4.74028 15.8942 4.74028C16.0166 4.74028 16.139 4.74267 16.2606 4.74664L11.1807 9.82655H8.26486C8.09624 9.82655 7.93453 9.89354 7.8153 10.0128C7.69606 10.132 7.62908 10.2937 7.62908 10.4623C7.62908 10.631 7.69606 10.7927 7.8153 10.9119C7.93453 11.0311 8.09624 11.0981 8.26486 11.0981H11.4438C11.6124 11.0982 11.7742 11.0313 11.8936 10.9122L17.8977 4.90718C23.6086 5.86483 27.974 10.8414 27.974 16.8202C27.9793 18.6638 27.5601 20.4838 26.7487 22.1393C25.9374 23.7948 24.7558 25.2412 23.2955 26.3665Z" fill="white"/>
<path d="M19.0746 13.6416H16.5315C16.3629 13.6416 16.2012 13.7086 16.082 13.8278C15.9627 13.9471 15.8958 14.1088 15.8958 14.2774V18.0921C15.8958 18.2607 15.9627 18.4224 16.082 18.5417C16.2012 18.6609 16.3629 18.7279 16.5315 18.7279C16.7001 18.7279 16.8619 18.6609 16.9811 18.5417C17.1003 18.4224 17.1673 18.2607 17.1673 18.0921V16.8205H18.4389V18.0921C18.4389 18.2607 18.5058 18.4224 18.6251 18.5417C18.7443 18.6609 18.906 18.7279 19.0746 18.7279C19.2433 18.7279 19.405 18.6609 19.5242 18.5417C19.6434 18.4224 19.7104 18.2607 19.7104 18.0921V14.2774C19.7104 14.1088 19.6434 13.9471 19.5242 13.8278C19.405 13.7086 19.2433 13.6416 19.0746 13.6416ZM18.4389 15.549H17.1673V14.9132H18.4389V15.549Z" fill="white"/>
</svg>
