<svg width="37" height="37" viewBox="0 0 37 37" fill="none" xmlns="http://www.w3.org/2000/svg">
<path d="M35.6085 6.94913C35.7742 6.94913 35.9331 6.88325 36.0502 6.76598C36.1674 6.6487 36.2332 6.48965 36.2332 6.3238C36.2332 6.15795 36.1674 5.9989 36.0502 5.88162C35.9331 5.76435 35.7742 5.69847 35.6085 5.69847H33.7343V3.82247C33.7344 3.74033 33.7183 3.659 33.6869 3.58311C33.6555 3.50722 33.6095 3.43826 33.5515 3.38018C33.4935 3.32211 33.4246 3.27605 33.3488 3.24464C33.2729 3.21323 33.1917 3.19709 33.1096 3.19713H31.2355V1.32113C31.2355 1.15529 31.1697 0.996229 31.0525 0.878957C30.9354 0.761684 30.7765 0.695801 30.6108 0.695801C30.4451 0.695801 30.2862 0.761684 30.1691 0.878957C30.0519 0.996229 29.9861 1.15529 29.9861 1.32113V3.19713H26.2378V1.32113C26.2378 1.15529 26.172 0.996229 26.0549 0.878957C25.9377 0.761684 25.7788 0.695801 25.6131 0.695801C25.4474 0.695801 25.2885 0.761684 25.1714 0.878957C25.0542 0.996229 24.9884 1.15529 24.9884 1.32113V3.19713H21.2401V1.32113C21.2401 1.15529 21.1743 0.996229 21.0572 0.878957C20.94 0.761684 20.7811 0.695801 20.6154 0.695801C20.4498 0.695801 20.2909 0.761684 20.1737 0.878957C20.0565 0.996229 19.9907 1.15529 19.9907 1.32113V3.19713H16.2425V1.32113C16.2425 1.15529 16.1766 0.996229 16.0595 0.878957C15.9423 0.761684 15.7834 0.695801 15.6178 0.695801C15.4521 0.695801 15.2932 0.761684 15.176 0.878957C15.0589 0.996229 14.993 1.15529 14.993 1.32113V3.19713H11.2448V1.32113C11.2448 1.15529 11.179 0.996229 11.0618 0.878957C10.9447 0.761684 10.7858 0.695801 10.6201 0.695801C10.4544 0.695801 10.2955 0.761684 10.1783 0.878957C10.0612 0.996229 9.99536 1.15529 9.99536 1.32113V3.19713H6.2471V1.32113C6.2471 1.15529 6.18128 0.996229 6.06413 0.878957C5.94697 0.761684 5.78807 0.695801 5.62239 0.695801C5.45671 0.695801 5.29781 0.761684 5.18065 0.878957C5.0635 0.996229 4.99768 1.15529 4.99768 1.32113V3.19713H3.12355C3.0415 3.19709 2.96024 3.21323 2.88443 3.24464C2.80861 3.27605 2.73973 3.32211 2.68171 3.38018C2.62369 3.43826 2.57767 3.50722 2.5463 3.58311C2.51492 3.659 2.49879 3.74033 2.49884 3.82247V5.69847H0.62471C0.459027 5.69847 0.300129 5.76435 0.182973 5.88162C0.0658175 5.9989 0 6.15795 0 6.3238C0 6.48965 0.0658175 6.6487 0.182973 6.76598C0.300129 6.88325 0.459027 6.94913 0.62471 6.94913H2.49884V10.7011H0.62471C0.459027 10.7011 0.300129 10.767 0.182973 10.8843C0.0658175 11.0016 0 11.1606 0 11.3265C0 11.4923 0.0658175 11.6514 0.182973 11.7686C0.300129 11.8859 0.459027 11.9518 0.62471 11.9518H2.49884V15.7038H0.62471C0.459027 15.7038 0.300129 15.7697 0.182973 15.887C0.0658175 16.0042 0 16.1633 0 16.3291C0 16.495 0.0658175 16.654 0.182973 16.7713C0.300129 16.8886 0.459027 16.9545 0.62471 16.9545H2.49884V20.7065H0.62471C0.459027 20.7065 0.300129 20.7723 0.182973 20.8896C0.0658175 21.0069 0 21.1659 0 21.3318C0 21.4976 0.0658175 21.6567 0.182973 21.774C0.300129 21.8912 0.459027 21.9571 0.62471 21.9571H2.49884V25.7091H0.62471C0.459027 25.7091 0.300129 25.775 0.182973 25.8923C0.0658175 26.0096 0 26.1686 0 26.3345C0 26.5003 0.0658175 26.6594 0.182973 26.7766C0.300129 26.8939 0.459027 26.9598 0.62471 26.9598H2.49884V30.7118H0.62471C0.459027 30.7118 0.300129 30.7777 0.182973 30.895C0.0658175 31.0122 0 31.1713 0 31.3371C0 31.503 0.0658175 31.662 0.182973 31.7793C0.300129 31.8966 0.459027 31.9625 0.62471 31.9625H2.49884V33.8385C2.49879 33.9206 2.51492 34.0019 2.5463 34.0778C2.57767 34.1537 2.62369 34.2227 2.68171 34.2807C2.73973 34.3388 2.80861 34.3849 2.88443 34.4163C2.96024 34.4477 3.0415 34.4638 3.12355 34.4638H4.99768V36.3398C4.99768 36.5056 5.0635 36.6647 5.18065 36.782C5.29781 36.8992 5.45671 36.9651 5.62239 36.9651C5.78807 36.9651 5.94697 36.8992 6.06413 36.782C6.18128 36.6647 6.2471 36.5056 6.2471 36.3398V34.4638H9.99536V36.3398C9.99536 36.5056 10.0612 36.6647 10.1783 36.782C10.2955 36.8992 10.4544 36.9651 10.6201 36.9651C10.7858 36.9651 10.9447 36.8992 11.0618 36.782C11.179 36.6647 11.2448 36.5056 11.2448 36.3398V34.4638H14.993V36.3398C14.993 36.5056 15.0589 36.6647 15.176 36.782C15.2932 36.8992 15.4521 36.9651 15.6178 36.9651C15.7834 36.9651 15.9423 36.8992 16.0595 36.782C16.1766 36.6647 16.2425 36.5056 16.2425 36.3398V33.8385C16.2425 33.7563 16.2264 33.675 16.195 33.5991C16.1636 33.5232 16.1176 33.4543 16.0596 33.3962C16.0016 33.3381 15.9327 33.292 15.8569 33.2606C15.7811 33.2292 15.6998 33.2131 15.6178 33.2131H3.74826V4.4478H32.4849V33.2131H20.6154C20.5334 33.2131 20.4521 33.2292 20.3763 33.2606C20.3005 33.292 20.2316 33.3381 20.1736 33.3962C20.1156 33.4543 20.0696 33.5232 20.0382 33.5991C20.0068 33.675 19.9907 33.7563 19.9907 33.8385V36.3398C19.9907 36.5056 20.0565 36.6647 20.1737 36.782C20.2909 36.8992 20.4498 36.9651 20.6154 36.9651C20.7811 36.9651 20.94 36.8992 21.0572 36.782C21.1743 36.6647 21.2401 36.5056 21.2401 36.3398V34.4638H24.9884V36.3398C24.9884 36.5056 25.0542 36.6647 25.1714 36.782C25.2885 36.8992 25.4474 36.9651 25.6131 36.9651C25.7788 36.9651 25.9377 36.8992 26.0549 36.782C26.172 36.6647 26.2378 36.5056 26.2378 36.3398V34.4638H29.9861V36.3398C29.9861 36.5056 30.0519 36.6647 30.1691 36.782C30.2862 36.8992 30.4451 36.9651 30.6108 36.9651C30.7765 36.9651 30.9354 36.8992 31.0525 36.782C31.1697 36.6647 31.2355 36.5056 31.2355 36.3398V34.4638H33.1096C33.1917 34.4638 33.2729 34.4477 33.3488 34.4163C33.4246 34.3849 33.4935 34.3388 33.5515 34.2807C33.6095 34.2227 33.6555 34.1537 33.6869 34.0778C33.7183 34.0019 33.7344 33.9206 33.7343 33.8385V31.9625H35.6085C35.7742 31.9625 35.9331 31.8966 36.0502 31.7793C36.1674 31.662 36.2332 31.503 36.2332 31.3371C36.2332 31.1713 36.1674 31.0122 36.0502 30.895C35.9331 30.7777 35.7742 30.7118 35.6085 30.7118H33.7343V26.9598H35.6085C35.7742 26.9598 35.9331 26.8939 36.0502 26.7766C36.1674 26.6594 36.2332 26.5003 36.2332 26.3345C36.2332 26.1686 36.1674 26.0096 36.0502 25.8923C35.9331 25.775 35.7742 25.7091 35.6085 25.7091H33.7343V21.9571H35.6085C35.7742 21.9571 35.9331 21.8912 36.0502 21.774C36.1674 21.6567 36.2332 21.4976 36.2332 21.3318C36.2332 21.1659 36.1674 21.0069 36.0502 20.8896C35.9331 20.7723 35.7742 20.7065 35.6085 20.7065H33.7343V16.9545H35.6085C35.7742 16.9545 35.9331 16.8886 36.0502 16.7713C36.1674 16.654 36.2332 16.495 36.2332 16.3291C36.2332 16.1633 36.1674 16.0042 36.0502 15.887C35.9331 15.7697 35.7742 15.7038 35.6085 15.7038H33.7343V11.9518H35.6085C35.7742 11.9518 35.9331 11.8859 36.0502 11.7686C36.1674 11.6514 36.2332 11.4923 36.2332 11.3265C36.2332 11.1606 36.1674 11.0016 36.0502 10.8843C35.9331 10.767 35.7742 10.7011 35.6085 10.7011H33.7343V6.94913H35.6085Z" fill="white"/>
<path d="M22.4891 8.82528C22.4892 8.74315 22.4731 8.66181 22.4417 8.58592C22.4103 8.51003 22.3643 8.44108 22.3063 8.383C22.2483 8.32492 22.1794 8.27886 22.1035 8.24745C22.0277 8.21605 21.9465 8.1999 21.8644 8.19995H8.1208C8.03875 8.1999 7.9575 8.21605 7.88168 8.24745C7.80587 8.27886 7.73698 8.32492 7.67896 8.383C7.62094 8.44108 7.57493 8.51003 7.54355 8.58592C7.51217 8.66181 7.49605 8.74315 7.49609 8.82528V28.836C7.49605 28.9181 7.51217 28.9994 7.54355 29.0753C7.57493 29.1512 7.62094 29.2202 7.67896 29.2782C7.73698 29.3363 7.80587 29.3824 7.88168 29.4138C7.9575 29.4452 8.03875 29.4613 8.1208 29.4613H11.8691C11.9851 29.4611 12.0987 29.4287 12.1974 29.3677C12.2961 29.3067 12.3759 29.2194 12.4279 29.1156L13.504 26.9599H22.7283L23.8044 29.1156C23.8565 29.2194 23.9363 29.3067 24.0349 29.3677C24.1336 29.4287 24.2473 29.4611 24.3633 29.4613H28.1115C28.1936 29.4613 28.2748 29.4452 28.3507 29.4138C28.4265 29.3824 28.4954 29.3363 28.5534 29.2782C28.6114 29.2202 28.6574 29.1512 28.6888 29.0753C28.7202 28.9994 28.7363 28.9181 28.7362 28.836V15.0786C28.7363 14.9965 28.7202 14.9151 28.6888 14.8393C28.6574 14.7634 28.6114 14.6944 28.5534 14.6363C28.4954 14.5783 28.4265 14.5322 28.3507 14.5008C28.2748 14.4694 28.1936 14.4532 28.1115 14.4533C26.6209 14.4517 25.1917 13.8582 24.1377 12.8031C23.0836 11.748 22.4908 10.3174 22.4891 8.82528ZM27.4868 28.2106H24.7488L23.6727 26.0549C23.6207 25.9512 23.5409 25.8639 23.4422 25.8029C23.3435 25.7418 23.2298 25.7094 23.1138 25.7093H13.1185C13.0025 25.7094 12.8888 25.7418 12.7901 25.8029C12.6915 25.8639 12.6117 25.9512 12.5597 26.0549L11.4835 28.2106H8.74551V9.45062H21.2678C21.4159 11.0516 22.1187 12.5503 23.2545 13.6872C24.3902 14.8241 25.8874 15.5276 27.4868 15.6759V28.2106Z" fill="white"/>
<path d="M28.7377 10.076C28.7377 9.70491 28.6278 9.34221 28.4219 9.0337C28.216 8.7252 27.9233 8.48474 27.5808 8.34275C27.2383 8.20076 26.8615 8.16361 26.498 8.236C26.1344 8.30838 25.8005 8.48706 25.5384 8.74942C25.2763 9.01178 25.0978 9.34605 25.0255 9.70996C24.9532 10.0739 24.9903 10.4511 25.1321 10.7939C25.274 11.1367 25.5142 11.4297 25.8224 11.6358C26.1306 11.8419 26.4929 11.952 26.8636 11.952C27.3605 11.9514 27.8369 11.7536 28.1882 11.4019C28.5396 11.0502 28.7372 10.5733 28.7377 10.076ZM26.2389 10.076C26.2389 9.95227 26.2755 9.83137 26.3442 9.72854C26.4128 9.6257 26.5104 9.54555 26.6245 9.49822C26.7387 9.45089 26.8643 9.43851 26.9855 9.46263C27.1067 9.48676 27.218 9.54632 27.3053 9.63377C27.3927 9.72123 27.4522 9.83265 27.4763 9.95395C27.5004 10.0753 27.488 10.201 27.4408 10.3153C27.3935 10.4295 27.3134 10.5272 27.2107 10.5959C27.1079 10.6646 26.9872 10.7013 26.8636 10.7013C26.698 10.701 26.5393 10.635 26.4222 10.5178C26.3051 10.4006 26.2392 10.2417 26.2389 10.076ZM14.3694 16.9546C14.5351 16.9546 14.694 16.8887 14.8111 16.7715C14.9283 16.6542 14.9941 16.4951 14.9941 16.3293C14.9941 16.1634 14.9283 16.0044 14.8111 15.8871C14.694 15.7698 14.5351 15.704 14.3694 15.704C13.541 15.704 12.7465 16.0334 12.1607 16.6197C11.5749 17.2061 11.2458 18.0014 11.2458 18.8306C11.2458 19.6599 11.5749 20.4551 12.1607 21.0415C12.7465 21.6279 13.541 21.9573 14.3694 21.9573C14.5351 21.9573 14.694 21.8914 14.8111 21.7741C14.9283 21.6569 14.9941 21.4978 14.9941 21.3319C14.9941 21.1661 14.9283 21.007 14.8111 20.8898C14.694 20.7725 14.5351 20.7066 14.3694 20.7066C13.8723 20.7066 13.3957 20.509 13.0442 20.1571C12.6927 19.8053 12.4953 19.3282 12.4953 18.8306C12.4953 18.3331 12.6927 17.8559 13.0442 17.5041C13.3957 17.1523 13.8723 16.9546 14.3694 16.9546ZM18.1177 15.704H16.8682C16.7862 15.7039 16.7049 15.72 16.6291 15.7515C16.5533 15.7829 16.4844 15.8289 16.4264 15.887C16.3684 15.9451 16.3224 16.014 16.291 16.0899C16.2596 16.1658 16.2435 16.2472 16.2435 16.3293V21.3319C16.2435 21.4978 16.3093 21.6569 16.4265 21.7741C16.5437 21.8914 16.7026 21.9573 16.8682 21.9573C17.0339 21.9573 17.1928 21.8914 17.31 21.7741C17.4271 21.6569 17.493 21.4978 17.493 21.3319V19.4559H18.1177C18.6147 19.4559 19.0914 19.2583 19.4429 18.9065C19.7943 18.5547 19.9918 18.0775 19.9918 17.58C19.9918 17.0824 19.7943 16.6052 19.4429 16.2534C19.0914 15.9016 18.6147 15.704 18.1177 15.704ZM18.1177 18.2053H17.493V16.9546H18.1177C18.2833 16.9546 18.4422 17.0205 18.5594 17.1378C18.6766 17.255 18.7424 17.4141 18.7424 17.58C18.7424 17.7458 18.6766 17.9049 18.5594 18.0221C18.4422 18.1394 18.2833 18.2053 18.1177 18.2053ZM22.4906 20.0813V16.3293C22.4906 16.1634 22.4248 16.0044 22.3077 15.8871C22.1905 15.7698 22.0316 15.704 21.8659 15.704C21.7002 15.704 21.5413 15.7698 21.4242 15.8871C21.307 16.0044 21.2412 16.1634 21.2412 16.3293V20.0813C21.2412 20.5788 21.4387 21.056 21.7901 21.4078C22.1416 21.7596 22.6183 21.9573 23.1153 21.9573C23.6124 21.9573 24.0891 21.7596 24.4406 21.4078C24.792 21.056 24.9895 20.5788 24.9895 20.0813V16.3293C24.9895 16.1634 24.9237 16.0044 24.8065 15.8871C24.6893 15.7698 24.5304 15.704 24.3648 15.704C24.1991 15.704 24.0402 15.7698 23.923 15.8871C23.8059 16.0044 23.7401 16.1634 23.7401 16.3293V20.0813C23.7401 20.2471 23.6742 20.4062 23.5571 20.5235C23.4399 20.6407 23.281 20.7066 23.1153 20.7066C22.9497 20.7066 22.7908 20.6407 22.6736 20.5235C22.5564 20.4062 22.4906 20.2471 22.4906 20.0813Z" fill="white"/>
<path d="M18.1179 34.4643C18.4629 34.4643 18.7426 34.1843 18.7426 33.839C18.7426 33.4936 18.4629 33.2136 18.1179 33.2136C17.7729 33.2136 17.4932 33.4936 17.4932 33.839C17.4932 34.1843 17.7729 34.4643 18.1179 34.4643Z" fill="white"/>
</svg>
